<svg version="1.1" id="svg1" width="259.90799" height="178.80133" xmlns:inkscape="http://www.inkscape.org/namespaces/inkscape" xmlns:sodipodi="http://sodipodi.sourceforge.net/DTD/sodipodi-0.dtd" xmlns:xlink="http://www.w3.org/1999/xlink" xmlns="http://www.w3.org/2000/svg" xmlns:svg="http://www.w3.org/2000/svg" viewBox="-185.898 108.269 90.184 92.357">
  <defs id="defs1">
    <clipPath clipPathUnits="userSpaceOnUse" id="clipPath3">
      <path d="M -308.16 197.739 L -34.325 197.739 L -34.325 9.396 L -308.16 9.396 L -308.16 197.739 Z" id="path3"></path>
    </clipPath>
    <clipPath clipPathUnits="userSpaceOnUse" id="clipPath5">
      <path d="M -308.13 211.119 L -34.335 211.119 L -34.335 22.778 L -308.13 22.778 L -308.13 211.119 Z" id="path5"></path>
    </clipPath>
    <clipPath clipPathUnits="userSpaceOnUse" id="clipPath7">
      <path d="M -308.11 242.366 L -34.349 242.366 L -34.349 54.025 L -308.11 54.025 L -308.11 242.366 Z" id="path7"></path>
    </clipPath>
    <clipPath clipPathUnits="userSpaceOnUse" id="clipPath9">
      <path d="M -308.15 152.946 L -34.32 152.946 L -34.32 -35.395 L -308.15 -35.395 L -308.15 152.946 Z" id="path9"></path>
    </clipPath>
  </defs>
  <g id="layer-MC0">
    <path id="path2" d="M -141.34 161.677 C -146.34 161.677 -150.41 157.61 -150.41 152.613 L -150.41 145.888 C -150.41 144.684 -149.43 143.708 -148.22 143.708 C -147.02 143.708 -146.04 144.684 -146.04 145.888 L -146.04 152.613 C -146.04 155.205 -143.94 157.315 -141.34 157.315 C -138.75 157.315 -136.64 155.205 -136.64 152.613 L -136.64 145.888 C -136.64 144.684 -135.66 143.708 -134.46 143.708 C -133.25 143.708 -132.28 144.684 -132.28 145.888 L -132.28 152.613 C -132.28 157.611 -136.34 161.677 -141.34 161.677" style="fill:#0090b0;fill-opacity:1;fill-rule:nonzero;stroke:none" clip-path="url(#clipPath3)"></path>
    <path id="path4" d="M -103.06 157.748 C -103.04 157.835 -103.12 157.933 -103.11 158.02 C -103.09 158.118 -103.17 158.205 -103.17 158.304 L -103.17 158.315 C -103.17 159.111 -103.51 159.83 -104.21 160.212 L -105.16 160.769 L -105.22 160.801 L -107.35 162 L -107.37 162.011 L -134.85 177.007 C -138.93 179.229 -143.85 179.229 -147.92 177.006 L -175.38 162.01 L -177.56 160.801 L -178.51 160.212 C -179.2 159.829 -179.51 159.099 -179.51 158.314 L -179.51 158.302 C -179.51 158.204 -179.61 158.117 -179.6 158.019 C -179.59 157.932 -179.63 157.833 -179.61 157.746 C -179.53 157.461 -179.44 157.201 -179.26 156.971 C -179.21 156.905 -179.16 156.842 -179.11 156.776 C -179.1 156.776 -179.09 156.764 -179.09 156.753 C -179.02 156.687 -178.97 156.634 -178.89 156.578 C -178.82 156.512 -178.74 156.458 -178.65 156.415 L -178.41 156.284 L -154.23 142.281 L -152.35 141.19 L -150.45 140.1 C -150.33 140.253 -150.22 140.405 -150.09 140.558 C -149.29 141.53 -148.32 142.38 -147.24 143.034 L -148.02 143.307 L -148.03 143.307 L -148.6 143.742 L -149.16 144.179 L -149.27 144.277 L -150.06 144.846 L -150.06 144.857 L -150.2 144.912 L -151.18 145.512 L -151.22 145.534 L -173.13 158.238 L -173.06 158.292 L -173.03 158.304 L -147.99 172.209 C -143.88 174.494 -138.87 174.496 -134.76 172.214 L -109.67 158.304 L -109.6 158.26 L -131.53 145.576 L -132.49 145.019 L -133.57 144.399 L -134.72 143.722 L -135.71 143.166 C -134.37 142.381 -133.2 141.333 -132.29 140.092 L -130.38 141.193 L -128.5 142.283 L -104.32 156.285 L -104.08 156.417 C -103.99 156.461 -103.92 156.516 -103.84 156.58 C -103.76 156.635 -103.7 156.69 -103.63 156.755 C -103.63 156.766 -103.62 156.777 -103.61 156.777 C -103.6 156.788 -103.6 156.788 -103.6 156.8 C -103.55 156.854 -103.49 156.919 -103.45 156.974 C -103.38 157.073 -103.32 157.17 -103.26 157.269 C -103.24 157.302 -103.23 157.335 -103.21 157.367 C -103.21 157.378 -103.19 157.378 -103.19 157.389 C -103.17 157.444 -103.15 157.499 -103.13 157.552 C -103.11 157.617 -103.09 157.682 -103.06 157.748" style="fill:#0090b0;fill-opacity:1;fill-rule:nonzero;stroke:none" clip-path="url(#clipPath5)"></path>
    <path id="path6" d="M -134.81 192.224 C -138.88 194.451 -143.81 194.451 -147.89 192.224 L -178.59 175.436 C -179.28 175.05 -179.71 174.322 -179.71 173.529 L -179.71 158.426 C -179.71 157.286 -178.89 156.245 -177.76 156.13 C -176.45 156 -175.35 157.022 -175.35 158.3 L -175.35 172.246 L -147.97 187.45 C -143.85 189.736 -138.84 189.736 -134.73 187.451 L -107.33 172.245 L -107.33 158.426 C -107.33 157.286 -106.51 156.245 -105.38 156.13 C -104.07 156 -102.97 157.022 -102.97 158.3 L -102.97 173.53 C -102.97 174.324 -103.4 175.053 -104.09 175.437 L -134.81 192.224 Z" style="fill:#ef8f20;fill-opacity:1;fill-rule:nonzero;stroke:none" clip-path="url(#clipPath7)"></path>
    <path id="path8" d="M -138.27 124.041 C -139.46 124.041 -140.42 123.079 -140.42 121.894 C -140.42 120.707 -139.46 119.746 -138.27 119.746 C -137.09 119.746 -136.13 120.707 -136.13 121.894 C -136.13 123.079 -137.09 124.041 -138.27 124.041 M -141.35 114.388 C -144.35 114.388 -147.14 115.232 -149.53 116.672 L -141.35 130.296 L -157.23 130.979 C -156.87 139.445 -149.91 146.205 -141.35 146.205 C -132.57 146.205 -125.44 139.083 -125.44 130.296 C -125.44 121.511 -132.57 114.388 -141.35 114.388" style="fill:#ef8f20;fill-opacity:1;fill-rule:nonzero;stroke:none" clip-path="url(#clipPath9)"></path>
  </g>
</svg>