<?xml version="1.0"?>
<svg xmlns="http://www.w3.org/2000/svg" viewBox="0 0 981.57 180"
	 style="enable-background:new 0 0 981.57 180;">
<style type="text/css">
	.st0{fill:#26BB93;}
	.st1{fill:#EEF0E9;}
</style>
 <path class="st0" d="M853.09,168.26c-7.36,4.35-17.07,11.04-32.46,11.17c-25.43,0.22-37.16-13.19-37.16-34.35V48.8h-20.55v-7.67 h20.55L783.16,7.7l21.16-7.67v41.09h31.28v7.67h-31.28c0,0,0,59.8,0,85.56c0,18.4-0.97,36.33,15.97,36.83 c12.3,0.36,20.79-15.48,22.42-18.32L853.09,168.26z"/>
 <path class="st0" d="M903.06,176.98c-11.96-28.21-46.61-108.25-59.18-135.85h24.23c14.41,35.88,35.88,86.78,50.6,121.13 c8.28-18.71,42.01-103.34,49.37-121.43l13.49,0.31c-18.4,37.1-49.06,106.1-61.94,135.54L903.06,176.98z"/>
 <path class="st1" d="M684.41,38.9c-14.75,0-27.39,5.89-40.67,19.02l-7.2-17.13h-26.2v136.34h34.57v-73.98 c-0.12-20.23,3.78-34.48,11.61-42.36c5.21-5.25,12.09-7.8,21.04-7.8c22.88,0,34.52,15.25,34.52,49.44v74.7h33.68v-64.54 C745.75,65.76,723.39,38.9,684.41,38.9z"/>
 <path class="st1" d="M555.81,39.24c-24.67-1.28-35.35,5.47-47.35,17.73l-5.89-16.52h-28.34V176.8h35.31l0-76.99 c0.06-0.66,0.1-1.41,0.15-2.3c0.05-0.92,0.08-2.03,0.12-3.28c0.25-9.17,0.99-24.89,11.84-31.52c11.86-7.25,22.4-8.45,39.73,0.65 c9.03,4.74,21.09,17.51,21.09,17.51l16.35-28.04l-1.3-0.84C596.77,51.51,579.33,40.46,555.81,39.24z"/>
 <path class="st1" d="M250.9,36.86c-21.25,0.55-37.63,7.05-51.39,17.4c-15.93,11.99-24.69,31.78-24.69,53.01 c0,24.76,12.29,43.06,22.26,52.61c14.73,14.12,36.02,20.23,52.39,19.83c0.95-0.02,1.9-0.02,2.84-0.06 c22.74-0.97,43.09-13.97,53.17-26.42l0.98-1.21l-15.23-16.05l-1.25,1.78c-0.22,0.32-0.32,0.62-0.59,1.51 c-5.78,18.96-18.74,29.03-37.48,29.14c-29.33-0.88-40.27-33.66-40.27-61.93c0-19.79,6.6-38.13,16.75-48.16 c6.48-6.4,14.39-9.57,23.48-9.49c24.37,0.29,34.55,24.2,40.02,37.04c0.34,0.79,0.65,1.53,0.95,2.21l1.61,3.69l1.65-3.68 c5.35-11.95,9.11-19.45,11.85-24.93c1.64-3.29,2.94-5.88,3.97-8.21l0.61-1.4l-1.29-0.82C294.6,39.29,265.55,36.49,250.9,36.86z" />
 <path class="st1" d="M442.27,61.67c-24.52-29.23-66.14-34.69-99.94-6.32c-34.38,28.85-35.65,70.29-11.13,99.52 c24.52,29.23,65.71,35.04,99.94,6.32C465.1,132.7,466.8,90.9,442.27,61.67z M426.33,150.88c-14.96,13.95-44.85,6.22-66.75-17.28 c-21.91-23.49-27.54-53.85-12.58-67.8c14.96-13.95,44.85-6.22,66.76,17.28C435.66,106.58,441.29,136.93,426.33,150.88z"/>
 <path class="st1" d="M101.25,0H61.3l10.89,24.04L0,177.26h25.28c0,0,5.26-12.42,10.96-22.46c7.11-12.52,15.28-22.53,28.77-29.11 c13.88-6.77,28.51-7.62,29.87-7.36l0.15,0.02l-9.06-21.19c-7.22-1.12-24.57,4.57-38.23,16.81C55.86,96.99,72,62.36,81.49,42.58 l60.38,134.68h37.74L101.25,0z"/>
</svg>