<?xml version="1.0" encoding="UTF-8" standalone="no"?>
<!-- Created with Inkscape (http://www.inkscape.org/) -->

<svg
   xmlns:dc="http://purl.org/dc/elements/1.1/"
   xmlns:cc="http://creativecommons.org/ns#"
   xmlns:rdf="http://www.w3.org/1999/02/22-rdf-syntax-ns#"
   xmlns:svg="http://www.w3.org/2000/svg"
   xmlns="http://www.w3.org/2000/svg"
   xmlns:sodipodi="http://sodipodi.sourceforge.net/DTD/sodipodi-0.dtd"
   xmlns:inkscape="http://www.inkscape.org/namespaces/inkscape"
   version="1.1"
   id="svg2"
   xml:space="preserve"
   width="495.22668"
   height="481.02667"
   viewBox="0 0 495.22668 481.02667"
   sodipodi:docname="APF logo.svg"
   inkscape:version="0.92.4 5da689c313, 2019-01-14"><metadata
     id="metadata8"><rdf:RDF><cc:Work
         rdf:about=""><dc:format>image/svg+xml</dc:format><dc:type
           rdf:resource="http://purl.org/dc/dcmitype/StillImage" /><dc:title></dc:title></cc:Work></rdf:RDF></metadata><defs
     id="defs6" /><sodipodi:namedview
     pagecolor="#ffffff"
     bordercolor="#666666"
     borderopacity="1"
     objecttolerance="10"
     gridtolerance="10"
     guidetolerance="10"
     inkscape:pageopacity="0"
     inkscape:pageshadow="2"
     inkscape:window-width="1919"
     inkscape:window-height="1027"
     id="namedview4"
     showgrid="false"
     inkscape:zoom="0.69383762"
     inkscape:cx="2.1664095"
     inkscape:cy="205.41283"
     inkscape:window-x="1"
     inkscape:window-y="0"
     inkscape:window-maximized="1"
     inkscape:current-layer="g10" /><g
     id="g10"
     inkscape:groupmode="layer"
     inkscape:label="ink_ext_XXXXXX"
     transform="matrix(1.3333333,0,0,-1.3333333,0,481.02667)"><g
       id="g12"
       transform="scale(0.1)"><path
         d="m 1095.35,1211.08 -43.77,104.51 -44.4,-104.51 z m -56.41,130.72 h 25.27 l 97.74,-227.85 h -24.66 l -32.99,76.46 H 998.242 l -32.992,-76.46 h -24.668 l 98.358,227.85"
         style="fill:#2c2c2e;fill-opacity:1;fill-rule:nonzero;stroke:none"
         id="path14"
         inkscape:connector-curvature="0" /><path
         d="m 1227.31,1177.77 c 0.62,-24.97 20.04,-45.93 45.63,-45.93 25.9,0 47.17,18.81 47.17,45.02 0,12.32 -6.16,24.66 -15.72,32.37 -10.48,8.63 -22.2,11.71 -35.15,15.11 -14.18,3.69 -28.67,7.4 -40.08,17.25 -12.64,10.8 -19.12,26.21 -19.12,42.55 0,36.69 28.99,61.36 64.75,61.36 34.53,0 62.9,-26.83 62.59,-61.67 h -23.74 c -1.54,23.12 -18.19,39.78 -41.62,39.78 -22.2,0 -39.16,-18.19 -39.16,-39.78 0,-27.42 22.82,-33.91 45.01,-40.08 16.35,-4.61 30.53,-7.4 43.79,-19.41 13.56,-11.72 21.27,-29.59 21.27,-47.8 0,-37.61 -32.37,-66.59 -69.37,-66.59 -38.85,0 -70.92,28.05 -70.61,67.82 h 24.36"
         style="fill:#2c2c2e;fill-opacity:1;fill-rule:nonzero;stroke:none"
         id="path16"
         inkscape:connector-curvature="0" /><path
         d="m 1514.67,1323.93 c -53.65,-0.32 -97.74,-43.48 -97.74,-97.13 0,-52.72 45.94,-94.94 97.74,-94.94 53.65,0 97.43,42.85 97.43,96.79 0,52.72 -45.32,94.96 -97.43,94.96 z m 120.24,-95.28 c 0,-66.29 -54.57,-118.69 -120.55,-118.69 -63.82,0 -120.24,51.49 -120.24,116.84 0,66.31 54.26,118.7 120.24,118.7 64.44,0 120.55,-51.48 120.55,-116.85"
         style="fill:#2c2c2e;fill-opacity:1;fill-rule:nonzero;stroke:none"
         id="path18"
         inkscape:connector-curvature="0" /><path
         d="m 1890.51,1283.22 c -16.97,25.91 -49.03,40.39 -79.55,40.39 -51.79,0 -95.28,-45.02 -95.28,-94.96 0,-53.34 45.02,-96.81 96.82,-96.81 30.84,0 61.04,16.66 78.94,41.62 h 25.27 c -19.73,-37.93 -61.36,-63.51 -104.21,-63.51 -66.91,0 -119.63,51.48 -119.63,118.7 0,64.75 53.03,116.85 117.78,116.85 23.12,0 46.25,-6.16 65.67,-19.11 14.5,-9.25 33.3,-26.53 39.46,-43.17 h -25.27"
         style="fill:#2c2c2e;fill-opacity:1;fill-rule:nonzero;stroke:none"
         id="path20"
         inkscape:connector-curvature="0" /><path
         d="m 1984.23,1113.95 h 22.82 v 227.85 h -22.82 v -227.85"
         style="fill:#2c2c2e;fill-opacity:1;fill-rule:nonzero;stroke:none"
         id="path22"
         inkscape:connector-curvature="0" /><path
         d="m 2219.47,1211.08 -43.77,104.51 -44.4,-104.51 z m -56.41,130.72 h 25.27 l 97.74,-227.85 h -24.66 l -33,76.46 h -106.05 l -32.99,-76.46 h -24.68 l 98.37,227.85"
         style="fill:#2c2c2e;fill-opacity:1;fill-rule:nonzero;stroke:none"
         id="path24"
         inkscape:connector-curvature="0" /><path
         d="m 2531.49,1283.22 c -16.95,25.91 -49.02,40.39 -79.55,40.39 -51.79,0 -95.27,-45.02 -95.27,-94.96 0,-53.34 45.02,-96.81 96.82,-96.81 30.83,0 61.05,16.66 78.92,41.62 h 25.3 c -19.74,-37.93 -61.37,-63.51 -104.22,-63.51 -66.91,0 -119.63,51.48 -119.63,118.7 0,64.75 53.03,116.85 117.77,116.85 23.13,0 46.25,-6.16 65.68,-19.11 14.49,-9.25 33.31,-26.53 39.46,-43.17 h -25.28"
         style="fill:#2c2c2e;fill-opacity:1;fill-rule:nonzero;stroke:none"
         id="path26"
         inkscape:connector-curvature="0" /><path
         d="m 2625.22,1341.8 h 124.57 v -20.67 h -101.75 v -81.99 h 98.35 v -20.66 h -98.35 v -83.87 h 101.75 v -20.66 h -124.57 v 227.85"
         style="fill:#2c2c2e;fill-opacity:1;fill-rule:nonzero;stroke:none"
         id="path28"
         inkscape:connector-curvature="0" /><path
         d="m 321.02,856.5 c 16.031,0 32.07,0.629 45.945,9.262 12.945,8.019 20.039,23.129 20.039,37.918 0,19.742 -10.484,35.16 -28.359,42.558 -15.114,6.481 -31.766,4.922 -47.485,4.922 H 281.859 V 856.5 Z m -61.965,115.32 h 59.808 c 21.278,-0.32 42.547,-0.609 61.047,-12.328 19.731,-12.332 29.91,-33.301 29.91,-56.121 0,-20.961 -8.636,-40.07 -25.898,-52.723 C 366.352,837.699 346,835.852 324.723,835.852 H 281.859 V 743.969 H 259.055 V 971.82"
         style="fill:#2c2c2e;fill-opacity:1;fill-rule:nonzero;stroke:none"
         id="path30"
         inkscape:connector-curvature="0" /><path
         d="m 472.402,971.82 h 54.258 c 21.594,0 45.641,-0.32 64.75,-11.101 23.121,-13.25 35.461,-36.68 35.461,-63.207 0,-37.293 -30.223,-67.524 -67.223,-68.442 l 64.129,-85.101 H 595.422 L 518.031,847.27 h 6.778 c 16.043,0 34.531,-0.622 49.64,6.16 18.813,8.64 29.606,25.89 29.606,46.25 0,15.73 -8.325,31.769 -21.278,40.691 -15.105,10.789 -33.605,10.789 -51.488,10.789 h -36.07 V 743.969 H 472.402 V 971.82"
         style="fill:#2c2c2e;fill-opacity:1;fill-rule:nonzero;stroke:none"
         id="path32"
         inkscape:connector-curvature="0" /><path
         d="m 801.07,953.949 c -53.648,-0.32 -97.742,-43.488 -97.742,-97.129 0,-52.73 45.945,-94.961 97.742,-94.961 53.653,0 97.43,42.852 97.43,96.801 0,52.731 -45.32,94.969 -97.43,94.969 z M 921.309,858.66 c 0,-66.281 -54.571,-118.691 -120.547,-118.691 -63.824,0 -120.239,51.48 -120.239,116.851 0,66.289 54.258,118.692 120.239,118.692 64.437,0 120.547,-51.492 120.547,-116.852"
         style="fill:#2c2c2e;fill-opacity:1;fill-rule:nonzero;stroke:none"
         id="path34"
         inkscape:connector-curvature="0" /><path
         d="m 989.141,971.82 h 115.619 v -20.66 h -92.8 v -82.308 h 89.41 V 848.18 h -89.41 V 743.969 H 989.141 V 971.82"
         style="fill:#2c2c2e;fill-opacity:1;fill-rule:nonzero;stroke:none"
         id="path36"
         inkscape:connector-curvature="0" /><path
         d="m 1169.5,971.82 h 124.56 v -20.66 h -101.74 v -82 h 98.35 V 848.5 h -98.35 v -83.871 h 101.74 v -20.66 H 1169.5 V 971.82"
         style="fill:#2c2c2e;fill-opacity:1;fill-rule:nonzero;stroke:none"
         id="path38"
         inkscape:connector-curvature="0" /><path
         d="m 1373.3,807.789 c 0.62,-24.969 20.04,-45.93 45.63,-45.93 25.9,0 47.17,18.813 47.17,45.02 0,12.32 -6.16,24.66 -15.72,32.371 -10.48,8.629 -22.2,11.711 -35.15,15.109 -14.18,3.692 -28.67,7.403 -40.08,17.25 -12.64,10.801 -19.12,26.211 -19.12,42.551 0,36.692 28.99,61.36 64.75,61.36 34.53,0 62.9,-26.829 62.59,-61.668 h -23.74 c -1.54,23.128 -18.19,39.777 -41.62,39.777 -22.2,0 -39.16,-18.188 -39.16,-39.777 0,-27.422 22.82,-33.911 45.01,-40.082 16.35,-4.61 30.53,-7.399 43.79,-19.411 13.56,-11.718 21.27,-29.589 21.27,-47.8 0,-37.61 -32.37,-66.59 -69.37,-66.59 -38.85,0 -70.92,28.051 -70.61,67.82 h 24.36"
         style="fill:#2c2c2e;fill-opacity:1;fill-rule:nonzero;stroke:none"
         id="path40"
         inkscape:connector-curvature="0" /><path
         d="m 1549.96,743.969 h 22.82 V 971.82 h -22.82 V 743.969"
         style="fill:#2c2c2e;fill-opacity:1;fill-rule:nonzero;stroke:none"
         id="path42"
         inkscape:connector-curvature="0" /><path
         d="m 1761.16,953.949 c -53.65,-0.32 -97.74,-43.488 -97.74,-97.129 0,-52.73 45.94,-94.961 97.74,-94.961 53.65,0 97.43,42.852 97.43,96.801 0,52.731 -45.32,94.969 -97.43,94.969 z M 1881.4,858.66 c 0,-66.281 -54.57,-118.691 -120.55,-118.691 -63.81,0 -120.24,51.48 -120.24,116.851 0,66.289 54.26,118.692 120.24,118.692 64.45,0 120.55,-51.492 120.55,-116.852"
         style="fill:#2c2c2e;fill-opacity:1;fill-rule:nonzero;stroke:none"
         id="path44"
         inkscape:connector-curvature="0" /><path
         d="m 1949.24,971.82 h 30.83 l 127.64,-189 v 189 h 22.82 V 743.969 h -22.82 l -135.65,200.41 v -200.41 h -22.82 V 971.82"
         style="fill:#2c2c2e;fill-opacity:1;fill-rule:nonzero;stroke:none"
         id="path46"
         inkscape:connector-curvature="0" /><path
         d="m 2331.85,1017.75 5.24,-18.801 -68.75,-19.109 -5.25,18.191 z m 11.11,-176.66 -43.79,104.519 -44.39,-104.519 z m -56.43,130.73 h 25.29 l 97.73,-227.851 h -24.67 l -32.99,76.472 h -106.06 l -32.99,-76.472 h -24.66 l 98.35,227.851"
         style="fill:#2c2c2e;fill-opacity:1;fill-rule:nonzero;stroke:none"
         id="path48"
         inkscape:connector-curvature="0" /><path
         d="m 2467.21,971.82 h 22.82 V 764.629 h 94.35 v -20.66 H 2467.21 V 971.82"
         style="fill:#2c2c2e;fill-opacity:1;fill-rule:nonzero;stroke:none"
         id="path50"
         inkscape:connector-curvature="0" /><path
         d="m 2640.48,971.82 h 30.83 l 127.65,-189 v 189 h 22.82 V 743.969 h -22.82 l -135.66,200.41 v -200.41 h -22.82 V 971.82"
         style="fill:#2c2c2e;fill-opacity:1;fill-rule:nonzero;stroke:none"
         id="path52"
         inkscape:connector-curvature="0" /><path
         d="m 2899.46,971.82 h 22.82 V 743.969 h -22.82 z m 50.57,45.93 5.24,-18.801 -68.76,-19.109 -5.23,18.191 68.75,19.719"
         style="fill:#2c2c2e;fill-opacity:1;fill-rule:nonzero;stroke:none"
         id="path54"
         inkscape:connector-curvature="0" /><path
         d="m 3187.74,913.242 c -16.96,25.906 -49.02,40.399 -79.55,40.399 -51.79,0 -95.27,-45.032 -95.27,-94.969 0,-53.34 45.03,-96.813 96.81,-96.813 30.84,0 61.05,16.661 78.94,41.621 h 25.29 c -19.75,-37.929 -61.37,-63.511 -104.23,-63.511 -66.89,0 -119.62,51.48 -119.62,118.703 0,64.75 53.03,116.848 117.78,116.848 23.12,0 46.24,-6.161 65.68,-19.11 14.49,-9.25 33.3,-26.519 39.45,-43.168 h -25.28"
         style="fill:#2c2c2e;fill-opacity:1;fill-rule:nonzero;stroke:none"
         id="path56"
         inkscape:connector-curvature="0" /><path
         d="m 3281.47,971.82 h 22.82 V 871.621 h 118.08 V 971.82 h 22.83 V 743.969 h -22.83 V 850.961 H 3304.29 V 743.969 h -22.82 V 971.82"
         style="fill:#2c2c2e;fill-opacity:1;fill-rule:nonzero;stroke:none"
         id="path58"
         inkscape:connector-curvature="0" /><path
         d="M 826.039,601.84 H 941.66 V 581.172 H 848.863 V 498.859 H 938.27 V 478.191 H 848.863 V 373.988 H 826.039 V 601.84"
         style="fill:#2c2c2e;fill-opacity:1;fill-rule:nonzero;stroke:none"
         id="path60"
         inkscape:connector-curvature="0" /><path
         d="m 1117.09,583.969 c -53.65,-0.321 -97.74,-43.489 -97.74,-97.141 0,-52.719 45.94,-94.937 97.74,-94.937 53.65,0 97.43,42.839 97.43,96.789 0,52.73 -45.32,94.968 -97.43,94.968 z m 120.24,-95.289 c 0,-66.282 -54.57,-118.692 -120.55,-118.692 -63.82,0 -120.237,51.492 -120.237,116.84 0,66.301 54.257,118.723 120.237,118.723 64.44,0 120.55,-51.512 120.55,-116.871"
         style="fill:#2c2c2e;fill-opacity:1;fill-rule:nonzero;stroke:none"
         id="path62"
         inkscape:connector-curvature="0" /><path
         d="m 1336.31,581.18 h -52.41 v 20.66 h 127.02 v -20.66 h -51.79 V 374 h -22.82 v 207.18"
         style="fill:#2c2c2e;fill-opacity:1;fill-rule:nonzero;stroke:none"
         id="path64"
         inkscape:connector-curvature="0" /><path
         d="m 1578.03,583.969 c -53.65,-0.321 -97.75,-43.489 -97.75,-97.141 0,-52.719 45.94,-94.937 97.75,-94.937 53.65,0 97.42,42.839 97.42,96.789 0,52.73 -45.32,94.968 -97.42,94.968 z m 120.24,-95.289 c 0,-66.282 -54.57,-118.692 -120.55,-118.692 -63.83,0 -120.25,51.492 -120.25,116.84 0,66.301 54.26,118.723 120.25,118.723 64.43,0 120.55,-51.512 120.55,-116.871"
         style="fill:#2c2c2e;fill-opacity:1;fill-rule:nonzero;stroke:none"
         id="path66"
         inkscape:connector-curvature="0" /><path
         d="m 1998.88,479.121 c -4.32,-62.59 -59.2,-109.141 -120.55,-109.141 -65.68,0 -122.1,52.418 -122.1,119.02 0,30.199 13.88,60.73 35.15,81.68 23.74,23.441 54.26,34.851 86.95,34.851 23.74,0 47.17,-6.472 66.9,-19.422 14.8,-9.859 33.92,-27.437 39.78,-45.019 h -25.9 c -16.04,26.832 -49.03,42.558 -80.78,42.558 -24.36,0 -49.03,-8.328 -67.83,-25.597 -18.81,-17.27 -31.45,-43.469 -31.45,-69.371 0,-55.5 45.94,-96.809 100.2,-96.809 40.7,0 80.78,26.82 92.2,66.59 H 1844.1 v 20.66 h 154.78"
         style="fill:#2c2c2e;fill-opacity:1;fill-rule:nonzero;stroke:none"
         id="path68"
         inkscape:connector-curvature="0" /><path
         d="m 2065.78,601.84 h 54.26 c 21.59,0 45.64,-0.32 64.75,-11.11 23.12,-13.25 35.46,-36.679 35.46,-63.21 0,-37.29 -30.22,-67.52 -67.22,-68.438 l 64.14,-85.094 h -28.37 l -77.39,103.293 h 6.78 c 16.04,0 34.54,-0.621 49.64,6.16 18.81,8.641 29.6,25.887 29.6,46.25 0,15.719 -8.32,31.758 -21.27,40.688 -15.11,10.793 -33.61,10.793 -51.49,10.793 H 2088.6 V 373.988 h -22.82 V 601.84"
         style="fill:#2c2c2e;fill-opacity:1;fill-rule:nonzero;stroke:none"
         id="path70"
         inkscape:connector-curvature="0" /><path
         d="m 2418.5,471.109 -43.78,104.52 -44.41,-104.52 z m -56.43,130.731 h 25.29 L 2485.09,374 h -24.67 l -32.98,76.449 H 2321.38 L 2288.39,374 h -24.67 l 98.35,227.84"
         style="fill:#2c2c2e;fill-opacity:1;fill-rule:nonzero;stroke:none"
         id="path72"
         inkscape:connector-curvature="0" /><path
         d="m 2542.75,601.84 h 115.62 v -20.668 h -92.8 v -82.313 h 89.41 v -20.668 h -89.41 V 373.988 h -22.82 V 601.84"
         style="fill:#2c2c2e;fill-opacity:1;fill-rule:nonzero;stroke:none"
         id="path74"
         inkscape:connector-curvature="0" /><path
         d="m 2785.69,627.738 c 0,-8.636 6.78,-15.726 15.42,-15.726 8.32,0 15.41,6.777 15.41,15.41 0,8.637 -6.78,15.418 -15.41,15.418 -8.33,0 -15.42,-6.781 -15.42,-15.102 z m 41.01,-0.316 c 0,-14.18 -11.41,-25.582 -25.59,-25.582 -14.19,0 -25.59,11.402 -25.59,25.582 0,14.18 11.4,25.598 25.59,25.598 14.18,0 25.59,-11.418 25.59,-25.598 z M 2745.92,601.84 V 463.398 c 0,-16.339 1.54,-33.589 10.49,-47.789 9.56,-15.097 26.51,-23.738 44.39,-23.738 16.03,0 32.37,7.399 41.94,20.649 11.09,14.812 12.63,33 12.63,50.878 V 601.84 h 22.82 V 463.398 c 0,-23.128 -2.15,-45.328 -16.96,-64.437 -14.18,-18.813 -37,-28.981 -60.43,-28.981 -22.82,0 -45.02,9.551 -59.5,27.129 -15.72,19.422 -18.2,42.243 -18.2,66.289 V 601.84 h 22.82"
         style="fill:#2c2c2e;fill-opacity:1;fill-rule:nonzero;stroke:none"
         id="path76"
         inkscape:connector-curvature="0" /><path
         d="m 497.691,271.621 24.047,-12.949 24.055,12.949 H 576.93 L 535,242.949 h -26.52 l -41.925,28.672 z M 600.98,173.27 c -16.96,25.902 -49.031,40.39 -79.55,40.39 -51.801,0 -95.27,-45.012 -95.27,-94.969 0,-53.3394 45.012,-96.7926 96.809,-96.7926 30.832,0 61.051,16.6524 78.929,41.6016 h 25.286 C 607.449,25.5781 565.828,0 522.969,0 456.07,0 403.34,51.4883 403.34,118.691 c 0,64.758 53.043,116.86 117.781,116.86 23.133,0 46.25,-6.153 65.672,-19.121 14.484,-9.239 33.301,-26.508 39.469,-43.16 H 600.98"
         style="fill:#2c2c2e;fill-opacity:1;fill-rule:nonzero;stroke:none"
         id="path78"
         inkscape:connector-curvature="0" /><path
         d="m 694.703,231.852 h 124.559 v -20.661 h -101.75 v -82 h 98.355 V 108.52 H 717.512 V 24.6602 h 101.75 V 4 H 694.703 v 227.852"
         style="fill:#2c2c2e;fill-opacity:1;fill-rule:nonzero;stroke:none"
         id="path80"
         inkscape:connector-curvature="0" /><path
         d="m 898.5,67.832 c 0.609,-24.9804 20.039,-45.9336 45.633,-45.9336 25.894,0 47.168,18.793 47.168,45.0118 0,12.3203 -6.16,24.6601 -15.731,32.3711 -10.468,8.6287 -22.191,11.7067 -35.14,15.1167 -14.18,3.68 -28.668,7.391 -40.078,17.243 -12.641,10.8 -19.122,26.211 -19.122,42.55 0,36.688 28.981,61.36 64.75,61.36 34.532,0 62.9,-26.832 62.59,-61.672 h -23.742 c -1.547,23.133 -18.187,39.793 -41.613,39.793 -22.203,0 -39.16,-18.203 -39.16,-39.793 0,-27.418 22.816,-33.91 45.008,-40.078 16.347,-4.61 30.515,-7.403 43.789,-19.403 C 1006.4,102.66 1014.11,84.8008 1014.11,66.5898 1014.11,28.9883 981.746,0 944.742,0 905.898,0 873.828,28.0508 874.141,67.832 H 898.5"
         style="fill:#2c2c2e;fill-opacity:1;fill-rule:nonzero;stroke:none"
         id="path82"
         inkscape:connector-curvature="0" /><path
         d="m 1075.16,231.852 h 22.82 V 100.809 l 105.13,131.043 h 28.98 l -90.02,-111 L 1232.09,4 h -28.36 l -76.16,98.66 -29.59,-36.3787 V 4 h -22.82 v 227.852"
         style="fill:#2c2c2e;fill-opacity:1;fill-rule:nonzero;stroke:none"
         id="path84"
         inkscape:connector-curvature="0" /><path
         d="m 1389.34,277.789 5.24,-18.801 -68.75,-19.117 -5.25,18.188 z M 1288.2,231.852 h 124.57 v -20.661 h -101.75 v -82 h 98.36 V 108.52 h -98.36 V 24.6602 h 101.75 V 4 H 1288.2 v 227.852"
         style="fill:#2c2c2e;fill-opacity:1;fill-rule:nonzero;stroke:none"
         id="path86"
         inkscape:connector-curvature="0" /><path
         d="m 1600.53,231.852 h 54.26 c 21.59,0 45.64,-0.313 64.75,-11.102 23.13,-13.25 35.47,-36.68 35.47,-63.211 0,-37.289 -30.23,-67.5195 -67.23,-68.4374 L 1751.92,4 h -28.37 l -77.39,103.309 h 6.78 c 16.04,0 34.54,-0.629 49.64,6.152 18.81,8.641 29.61,25.891 29.61,46.25 0,15.719 -8.32,31.769 -21.28,40.687 -15.11,10.793 -33.61,10.793 -51.49,10.793 h -36.07 V 4 h -22.82 v 227.852"
         style="fill:#2c2c2e;fill-opacity:1;fill-rule:nonzero;stroke:none"
         id="path88"
         inkscape:connector-curvature="0" /><path
         d="m 1818.51,231.852 h 124.56 v -20.661 h -101.74 v -82 h 98.35 V 108.52 h -98.35 V 24.6602 h 101.74 V 4 h -124.56 v 227.852"
         style="fill:#2c2c2e;fill-opacity:1;fill-rule:nonzero;stroke:none"
         id="path90"
         inkscape:connector-curvature="0" /><path
         d="m 2076.57,116.539 c 16.03,0 32.07,0.621 45.94,9.25 12.96,8.02 20.05,23.121 20.05,37.922 0,19.738 -10.49,35.16 -28.37,42.559 -15.1,6.48 -31.75,4.921 -47.48,4.921 h -29.29 v -94.652 z m -61.96,115.313 h 59.81 c 21.27,-0.313 42.55,-0.614 61.05,-12.332 19.72,-12.329 29.9,-33.301 29.9,-56.122 0,-20.957 -8.63,-40.066 -25.9,-52.718 -17.57,-12.9417 -37.92,-14.8011 -59.19,-14.8011 h -42.86 V 4 h -22.81 v 227.852"
         style="fill:#2c2c2e;fill-opacity:1;fill-rule:nonzero;stroke:none"
         id="path92"
         inkscape:connector-curvature="0" /><path
         d="M 2250.77,231.852 V 93.4102 c 0,-16.3282 1.53,-33.5782 10.48,-47.7696 9.55,-15.1211 26.52,-23.7422 44.4,-23.7422 16.03,0 32.37,7.3907 41.92,20.6407 11.11,14.8007 12.65,33 12.65,50.8711 V 231.852 h 22.82 V 93.4102 c 0,-23.1211 -2.16,-45.3204 -16.96,-64.4219 C 2351.9,10.1719 2329.08,0 2305.65,0 c -22.81,0 -45.02,9.55078 -59.51,27.1289 -15.73,19.4219 -18.19,42.2422 -18.19,66.2813 V 231.852 h 22.82"
         style="fill:#2c2c2e;fill-opacity:1;fill-rule:nonzero;stroke:none"
         id="path94"
         inkscape:connector-curvature="0" /><path
         d="m 2511.61,24.6602 c 15.42,-0.3086 34.22,-0.3086 48.1,6.7812 12.95,6.7891 22.51,22.207 22.2,36.707 0.31,19.4102 -10.8,34.8206 -28.38,40.9926 -14.18,4.941 -30.82,4.629 -45.94,4.629 h -24.04 V 24.6602 Z m -3.4,109.7618 c 14.5,0 30.22,-0.313 43.17,6.789 11.1,5.848 18.49,19.121 18.49,31.75 0,12.328 -7.7,24.98 -18.18,31.461 -11.72,7.078 -28.06,7.387 -41.62,6.769 h -26.52 v -76.769 z m -47.48,97.43 h 53.34 c 18.19,0 36.08,-1.211 51.8,-11.411 16.35,-10.793 26.82,-29.281 26.82,-49.019 0,-19.731 -9.56,-34.512 -25.27,-45.633 24.04,-9.867 37.61,-31.1406 37.61,-57.3398 0,-20.6679 -10.49,-41.0195 -28.06,-52.1094 C 2556.93,3.69141 2537.19,4.30859 2514.38,4 h -53.65 v 227.852"
         style="fill:#2c2c2e;fill-opacity:1;fill-rule:nonzero;stroke:none"
         id="path96"
         inkscape:connector-curvature="0" /><path
         d="m 2668.54,231.852 h 22.82 V 24.6602 h 94.34 V 4 h -117.16 v 227.852"
         style="fill:#2c2c2e;fill-opacity:1;fill-rule:nonzero;stroke:none"
         id="path98"
         inkscape:connector-curvature="0" /><path
         d="m 2841.82,4 h 22.82 v 227.852 h -22.82 V 4"
         style="fill:#2c2c2e;fill-opacity:1;fill-rule:nonzero;stroke:none"
         id="path100"
         inkscape:connector-curvature="0" /><path
         d="m 2942.33,231.852 h 22.82 V 100.809 l 105.12,131.043 h 28.99 l -90.03,-111 L 3099.26,4 h -28.37 l -76.15,98.66 -29.59,-36.3787 V 4 h -22.82 v 227.852"
         style="fill:#2c2c2e;fill-opacity:1;fill-rule:nonzero;stroke:none"
         id="path102"
         inkscape:connector-curvature="0" /><path
         d="m 3211.8,80.1602 -79.25,151.6918 h 24.99 l 65.66,-127.954 65.68,127.954 h 24.97 L 3234.62,80.1602 V 4 h -22.82 v 76.1602"
         style="fill:#2c2c2e;fill-opacity:1;fill-rule:nonzero;stroke:none"
         id="path104"
         inkscape:connector-curvature="0" /><path
         d="m 1356.24,1467.11 h 241.14 v 2139.5 h -241.14 v -2139.5"
         style="fill:#2c2c2e;fill-opacity:1;fill-rule:nonzero;stroke:none"
         id="path106"
         inkscape:connector-curvature="0" /><path
         d="M 217.262,1425.57 -0.0195313,1530.14 999.934,3607.76 1272.94,3604.88 217.262,1425.57"
         style="fill:#2c2c2e;fill-opacity:1;fill-rule:nonzero;stroke:none"
         id="path108"
         inkscape:connector-curvature="0" /><path
         d="m 1386.87,3364.78 h 570.11 v 242.29 h -570.11 v -242.29"
         style="fill:#2c2c2e;fill-opacity:1;fill-rule:nonzero;stroke:none"
         id="path110"
         inkscape:connector-curvature="0" /><path
         d="m 1691.19,2375.08 h 274.56 v 243.06 h -274.56 v -243.06"
         style="fill:#2c2c2e;fill-opacity:1;fill-rule:nonzero;stroke:none"
         id="path112"
         inkscape:connector-curvature="0" /><path
         d="m 2648.07,1467.31 h 241.14 V 3606.79 H 2648.07 V 1467.31"
         style="fill:#2c2c2e;fill-opacity:1;fill-rule:nonzero;stroke:none"
         id="path114"
         inkscape:connector-curvature="0" /><path
         d="m 2678.7,3365.93 h 1035.49 v 241.14 H 2678.7 v -241.14"
         style="fill:#2c2c2e;fill-opacity:1;fill-rule:nonzero;stroke:none"
         id="path116"
         inkscape:connector-curvature="0" /><path
         d="m 2970.52,2375.08 h 568.22 v 241.14 h -568.22 v -241.14"
         style="fill:#2c2c2e;fill-opacity:1;fill-rule:nonzero;stroke:none"
         id="path118"
         inkscape:connector-curvature="0" /><path
         d="m 891.371,2375.08 h 627.089 v 241.14 H 891.371 v -241.14"
         style="fill:#2c2c2e;fill-opacity:1;fill-rule:nonzero;stroke:none"
         id="path120"
         inkscape:connector-curvature="0" /><path
         d="m 1955.37,3606.57 v -242.89 c 205.79,0 372.61,-166.82 372.61,-372.61 0,-205.78 -166.82,-372.61 -372.61,-372.61 v -242.9 c 339.94,0 615.51,275.57 615.51,615.51 0,339.93 -275.57,615.5 -615.51,615.5"
         style="fill:#2c2c2e;fill-opacity:1;fill-rule:nonzero;stroke:none"
         id="path122"
         inkscape:connector-curvature="0" /></g></g></svg>