<svg xmlns="http://www.w3.org/2000/svg" width="256" height="250" viewBox="0 0 13.7 13.3"><rect fill="#ed1c24" width="13.7" height="13.3" rx="1"/><path fill="#fff" d="M3.1 5.47c.27 0 .62-.1.62-.44 0-.4-.37-.45-.6-.45h-.45v-.82h.4c.36 0 .54-.11.54-.42 0-.32-.22-.42-.54-.42h-.75v2.55Zm1.64-.7c.05.18.04.39.04.39s.02.25-.13.55c-.19.36-.47.5-.47.5s-.17.1-.41.14c-.26.05-.6.05-.6.05H1.3V2.06h2.26s.33 0 .57.12c.24.11.39.33.39.33s.18.24.2.65c.02.33-.16.6-.16.6S4.5 3.9 4.4 4a1 1 0 0 1-.27.14s.25.04.42.26c.11.15.15.2.2.38m2.07-1.2.86 2.83h1.1l-1.5-4.34H6.22L4.7 6.4h2.46v-.94H6.1l.6-1.88.05-.19Zm5.6-1.51v4.35h-1.06l-1.33-2.27-.08-.17V6.4H8.9V2.06h1.06l1.34 2.35.07.14V2.06Zm-8.46 7.1c0-.9-.43-1.28-1.25-1.28h-.38v2.5H3c.37 0 .95-.14.95-1.22M5 9.2c0 1.53-1.1 2.1-1.9 2.1H1.3V6.98h1.8C3.78 6.97 5 7.3 5 9.2m1.82-.71.86 2.82h1.1l-1.5-4.33H6.22L4.7 11.31h2.46v-.94H6.1l.6-1.88.05-.18Zm3.13 2.82H8.9V6.98h1.04Z"/></svg>