<svg xmlns="http://www.w3.org/2000/svg" viewBox="0 0 750 440">
  <g/>
  <g fill="#f89d34">
    <path d="M146.95 9.94c11.24-5.82 24.69-7.38 36.86-3.77 8.17 2.55 14.46 8.88 19.44 15.58 5.7 7.82 7.91 17.69 7.54 27.25.58 19.3-8.9 37.34-20.97 51.81-5.97 7.42-13.34 13.48-20.14 20.09 10.71 3.83 21.32 8.8 29.36 17.06 7.05 7.14 11.64 16.58 13.31 26.44.67 6.14.57 12.35.2 18.5-1.17 11.03-5.37 21.49-10.39 31.29-10.83 20.93-29.27 37.28-50.2 47.74-14.95 7.32-31.98 11.38-48.62 8.75-7.73-1.18-15.06-4.23-21.71-8.29-2.56 5.24-2.16 11.37-4.65 16.61-3.13 3.72-8.44 3.3-12.79 4.06-7.73.9-14.39 5.78-22.22 6.22-5.69.03-11.42-3.1-14.08-8.22-2.78-5.1-2.13-11.15-1.2-16.64 2.43-12.68 5.74-25.17 9.12-37.62 9-35.22 17.1-70.66 24.62-106.23 2.29-11.84 5.61-23.52 6.64-35.57.29-3.02.1-6.2-1.12-9.01-.63-1.47-2.53-1.67-3.85-1.16-4.1 1.26-6.68 4.98-8.77 8.48-8.36 14.55-13.1 30.94-15.5 47.48-.59 3.9-2.75 8.22-6.97 9.08-13.48 2.41-27.39-9.06-27.3-22.85.54-20.6 10.25-39.82 22.62-55.85 10.94-13.7 24.9-26.53 42.58-30.21 8.54-1.4 17.72-1.3 25.61 2.67 5.06 2.1 9.17 5.77 13.36 9.19 10.15-13.92 23.65-25.43 39.22-32.88m7 4.96c-19.33 8.14-35.54 23.05-45.98 41.18-2.28-3.34-4.45-6.81-7.44-9.57-7.05-6.52-16.93-10.1-26.54-8.8-12.94 1.41-24.23 9.04-33.13 18.14-14.12 14.21-25.09 32.16-28.97 51.96-.74 5.59-1.79 11.86 1.39 16.92 3.37 5.75 10.43 8.82 16.96 7.72 2.08-18.61 7.48-37.03 16.89-53.29 3.55-6.03 9.31-12.18 16.89-11.87 5.11-.55 8.84 4.23 9.79 8.77 1.86 8.51-.34 17.17-1.9 25.56-7.56 36.16-15.21 72.31-24.15 108.17-4.38 19.01-10.37 37.63-13.98 56.82-.47 3.2-.88 6.56.01 9.73 1.21 2.86 3.92 5.53 7.23 5.37 5.18.44 9.6-2.66 14.33-4.17 4.95-1.83 10.24-2.14 15.4-2.96 2.26-8.46 3.55-17.15 5.62-25.65 4.25 2.97 7.9 6.79 12.61 9.1 13.4 7.43 29.76 7.4 44.17 3.14 20.59-6.09 39.03-18.84 52.65-35.36 9.06-11.7 15.95-25.31 18.81-39.89 2.6-13.9.75-29.65-8.91-40.59-11.01-12.59-27.72-18.17-43.83-20.47 3.76-3.29 8-5.96 11.86-9.13 14.66-11.8 27.91-26.17 35.23-43.74 4.23-10.63 5.84-22.5 3.52-33.77-1.95-9.6-8.49-17.79-16.55-23.09-9.86-4.98-21.91-4.28-31.98-.23"/>
    <path d="M620.3 20.28c10.84-5.46 23.49-8.15 35.47-5.24 11.81 2.62 23.21 8.93 30.36 18.88 7.87 11.74 6.81 27.33 1.72 39.96-3.52 8.15-7.94 16.36-15.07 21.9-8.04 5.92-18.29 6.84-27.8 8.59-10.13 2.07-20.49 3.48-30.85 3.01-.39 3.08-1.15 6.77 1.26 9.25 3.37 3.84 8.95 3.49 13.54 2.87 10.07-1.7 19.52-6.02 28.11-11.46 9.84-6.16 21.2-10.52 32.96-10.29 17.11.3 34.43 7.47 45.5 20.76 6.99 8.54 11.1 19.39 11.5 30.42 1.21 21.61-7.39 43.29-21.91 59.16-17.77 18.75-42.89 28.58-67.81 33.41-22.93 5.37-46.01 10.15-68.87 15.81-5.05 13.89-12.36 27.65-24.12 36.99-12.27 9.33-29.06 12.6-43.88 8.25-11.59-3.69-21.47-11.68-28.71-21.33-.94-1.52-2.85-.71-4.23-.53-21.77 5.45-43.73 10.03-65.55 15.28-50.65 11.73-101.23 23.77-151.94 35.21-45.59 10.69-91.2 21.24-136.79 31.93-20.47 3.71-39.6 14.06-53.7 29.37-10.76 11.67-20.15 24.5-30.37 36.62-2.89 3.21-6.06 6.52-10.29 7.88-4.21 1.4-9.52.01-11.78-4.01-3.36-5.39-2.47-11.95-2.87-17.98-.82-8.97-.52-17.99-.89-26.99-.58-8.97-1.23-18.03-.41-27.01 3.22-15.86 12.86-29.66 24.28-40.82 15.88-14.83 35.25-26.47 56.61-31.19 64.06-14.74 127.98-30.2 192.02-45.11 64.8-15.03 129.53-30.52 194.29-45.78 3.01-6.47 6.17-12.91 10.12-18.88 2.54-4.08 5.81-7.67 8.17-11.87-7.35.1-15.38-1.44-20.41-7.27-3.53-3.46-4.14-8.49-5.36-13.02-5.32 10.31-13.22 19.08-22.04 26.54-13.91 12.02-30.42 20.55-47.24 27.74-7.94 3.55-17.51 3.53-25.29-.43-3.09-1.52-5.95-3.46-8.88-5.25-8.72 9.82-19.22 19.07-32.34 22.1-8.75 2.05-17.8-.25-25.55-4.42-11.06 7.89-22.84 15.34-36.17 18.65-8.5 1.48-17.87 1.75-25.7-2.44-2.32-1.19-4.61-2.45-6.99-3.51-2.36 5.06-4.48 10.22-7.13 15.14-15.82 3.26-31.44 7.43-47.26 10.69 4.65-10.12 10.45-19.68 15.01-29.85 6.16-13.08 11-26.72 15.73-40.36.95-2.46.63-5.12.32-7.66-3.91-33.17-10.17-66.48-7.06-100 1.46-15.64 6.22-31.44 16.17-43.83 6.91-8.83 17.48-15.04 28.79-15.6 6.94-.54 14.16 1.43 19.52 5.96 6.57 5.39 10.12 13.51 12.37 21.52 3.41 12.35 2.95 25.27 2.6 37.95-.94 11.85-3.46 23.52-6.51 34.99-4.76 19.19-10.77 38.26-20.37 55.64-1.04 2.22-2.82 4.5-2.17 7.1.78 3.93 1.68 7.89 3.33 11.56.83 2.04 2.95 3.74 5.25 3.09 7.11-1.2 12.71-6.15 18.74-9.74-.06-5.24-1.28-10.4-1.11-15.65 1.16-23.42 9.62-46.58 24.69-64.64 10.01-11.9 22.11-22.82 37.04-27.98 5.88-2.13 12.25-2.5 18.42-1.79 4.77.65 9.22 2.63 13.96 3.41 1.01-2.55 1.97-5.27 4.04-7.18 2.1-2.28 5.49-1.14 8.22-1.5 9.29.06 17.74-5.26 27.08-4.65 4.59.22 8.98 3.32 10.38 7.75 1.22 6.26-.56 12.56-2.5 18.47-5.99 17.82-10.47 36.08-16.03 54.03-1.64 4.39-2.82 9.01-2.35 13.74 5.75-1.51 9.94-6 13.9-10.17 5.89-6.74 11.48-14.03 14.44-22.59 3.81-10.91 6.68-22.12 9.67-33.27 2.45-9.81 4.98-20.28 12.3-27.73 10.65-10.78 26.11-16.29 41.15-15.93 8.42.01 16.73 2.71 23.8 7.21 14.82 9.61 24.14 27.14 23.52 44.83.16 7.59-2.05 14.89-4.14 22.09 2.37-1.88 4.96-3.68 6.55-6.32.5-5.24.11-10.56 1.32-15.73 3.14-15.1 9.04-29.63 17.25-42.69 9.58-15.09 22.97-27.96 38.97-36.06m9.88 3.83c-14.77 5.41-27.14 16.03-36.93 28.15-10.95 13.97-18.01 30.72-21.8 47.98-1.46 5.79-.72 11.78-1.1 17.66-1.9 2.56-4.42 4.55-6.72 6.72-7.72 7.16-15.57 14.19-23.76 20.8a59 59 0 0 1-6.75-3.6c3.39-3.86 7.11-7.46 9.91-11.8 6.01-9.16 10.06-19.93 9.85-31.01.75-15.99-8.23-31.96-22.13-39.81-15.93-8.85-36.65-4.99-50.54 6.01-6.13 4.81-9.49 12.21-11.39 19.59-3.56 13.58-7.12 27.18-11.56 40.5-3.63 10.88-10.7 20.2-18.49 28.47-3.85 3.86-8.13 7.58-13.31 9.51-3.95 1.43-8.91.03-10.81-3.88-1.44-4.3-.59-8.99.45-13.28 6.31-19.63 11.15-39.71 17.68-59.27 1.22-4.21 2.75-8.46 2.73-12.9.21-2.01-1.53-3.88-3.57-3.65-8.29-.94-15.75 3.77-23.91 4.12-2.26.29-4.67-.07-6.78.86-1.73 3.65-2.19 7.75-3.97 11.39-9.74-4.69-20.83-9.09-31.75-6.1-11.84 3.23-21.86 10.99-30.32 19.64-11.59 11.66-20.28 26.17-24.93 41.95-1.98 6.77-3.88 13.69-3.91 20.8-.03 6.27-.46 12.64 1.1 18.78.22 1.64 1.09 3.91-.74 4.97-3.21 2.52-6.79 4.54-10.19 6.79-5.31 3.19-11.05 6.79-17.53 6.14-4.09.13-7.57-2.84-9.46-6.25-2.64-4.76-3.47-10.23-4.81-15.43-1.24-3.75 1.53-7.02 3-10.24 9.41-17.18 15.4-35.96 20.09-54.91 5.85-21.93 9.14-45.26 4.09-67.69-1.82-7.65-5.11-15.67-11.92-20.18-5.63-3.86-12.99-3.72-19.34-1.97-10 3.11-17.44 11.44-22.23 20.45-7.62 13.9-9.55 29.98-9.83 45.59-.46 28.57 4.7 56.79 8.03 85.06.25 2.52.57 5.11-.04 7.61-6.66 20.29-14.67 40.17-24.49 59.15 6.35-.66 12.4-2.85 18.65-4.02 3.16-.77 6.48-1.12 9.42-2.59 3.95-6.76 6.9-14.1 8.91-21.67 4.2 3.63 8.06 7.85 13.22 10.15 7.75 4.02 17.05 3.64 25.12.81 12.43-3.87 22.92-11.81 33.64-18.91 4.38 2.08 8.47 5.03 13.33 5.87 5.7.91 11.73.52 16.97-2.06 11.5-5.09 20.03-14.71 27.57-24.47 6.53 9.02 18.57 15.51 29.66 11.35 22.2-9.23 44.13-21.22 59.7-40 10.34-12.47 15.16-28.32 19.35-43.68 2.19-7.44 2.62-15.35 5.35-22.62 3.59-9.03 17.36-10.79 23.42-3.38 3.54 3.87 3.64 9.47 3.53 14.42-.08 11.35-3.95 22.83-11.57 31.35-3.59 4.13-10.09 3.16-13.8 7.2-4.88 4.14-5.57 12.17-.89 16.73 5.45 5.99 14.6 4.91 21.43 2.21 2.7 1.39 5.11 3.27 7.23 5.45-11.12 12.24-20.78 25.95-26.91 41.4-58.78 14.09-117.63 27.93-176.5 41.63-62.64 14.72-125.23 29.65-187.89 44.25-11.69 3.04-23.64 5.02-35.19 8.57-14.01 4.64-26.8 12.52-38.1 21.93-11.92 10.15-22.26 22.91-26.8 38.11-1.42 4.57-1.5 9.41-.9 14.13.61 9.32.16 18.7 1.01 28.01.52 7.67.15 15.38.75 23.05.34 2.02.43 4.68 2.58 5.68 3.39.84 5.94-2.12 8.07-4.26 15.61-17.95 28.6-38.77 48.38-52.62 9.84-6.97 20.97-12.06 32.64-15.12 74.34-17.54 148.83-34.43 223.19-51.88 44.95-10.56 89.96-20.83 134.93-31.25 4.07-.75 7.99-2.8 12.19-2.57 2.29 1.8 3.46 4.64 5.39 6.8 6.59 7.79 15.09 14.5 25.13 17.04 11.12 2.92 23.23.34 32.9-5.65 10.87-7.08 17.29-18.95 22.43-30.49 1.51-2.87 1.37-6.93 3.94-9.02 13.82-3.56 27.89-6.11 41.76-9.51 22.26-5.53 45.55-8.3 66.38-18.47 14.67-6.95 28.29-17.2 36.75-31.28 7.56-12.72 12.01-27.59 11.06-42.46-.65-10.94-5.13-21.78-13.12-29.4-12.4-11.73-30.69-16.7-47.36-13.34-12.12 2.71-21.52 11.44-32.9 15.89-6.44 2.6-13.21 4.56-20.15 5.16-5.95.54-12.41-1.26-16.41-5.88-4.33-5.02-4.38-12.66-1.52-18.39 1.5-2.9 5.08-2.77 7.88-2.9 7.64-.24 15.28-.73 22.8-2.17 8.79-1.68 17.95-2.34 26.19-6.08 6.84-3.37 10.92-10.24 14.24-16.8 4.86-9.14 6.9-20.19 4-30.26-2.47-8.6-9.88-14.54-17.5-18.53-10.78-5.76-24.11-6.72-35.5-2.18m-128.57 65.5c-2.38 1.93-2.59 5.3-3.3 8.07-2.27 12.36-5.62 24.51-10.05 36.26 2.88-2.09 5.7-4.42 9.17-5.48 2.32-.84 5.05-1.29 6.59-3.46 6.19-7.48 8.54-17.47 8.52-27.01-.11-2.59-.05-5.55-1.87-7.62-2.22-2.56-6.34-2.35-9.06-.76M156.36 37.47c3.65-1.03 8.27-.83 10.82 2.37 4.03 4.68 3.54 11.3 3.26 17.05-.97 8.91-5.51 16.92-10.12 24.42-12.12 18.44-27.89 34.29-45.47 47.54-4.89 3.59-9.61 7.46-14.95 10.35 3.22-17.55 8.3-34.79 14.89-51.37 6.89-14.64 14.83-29.12 26.38-40.65 4.39-4.1 9.31-8.04 15.19-9.71m-7.29 12.61c-11.3 9.92-18.86 23.23-25.48 36.54-3.28 6.18-5.33 12.89-7.55 19.5-1.62 4.96-3.38 9.92-4.07 15.12 4.64-2.62 8.41-6.43 12.45-9.83 10.93-9.79 20.74-20.87 28.98-33.01 6.29-9.77 12.08-21.44 9.11-33.35-5.08-1.73-9.67 2.15-13.44 5.03"/>
    <path d="M642.34 45.32c6.25-2.7 14.09 1.97 14.79 8.7.76 7.34-1.81 14.96-6.58 20.54-3.31 4.07-8.87 4.43-13.62 5.48-6.17 1.04-12.44 2.07-18.71 1.68-1.89.14-3.27-1.93-2.5-3.64 4.17-11.2 11.4-21.14 20.2-29.17 1.84-1.66 4.08-2.81 6.42-3.59m-1.67 9.34c-5.94 5.48-11.3 11.8-14.75 19.16 5.62-.07 11.19-1.11 16.6-2.58 2.63-.73 3.98-3.36 5.12-5.62 1.61-3.69 2.91-7.96 1.72-11.96-2.21-2.91-6.51-1.02-8.69 1m-376.16 1.81c1.33-2.15 4.31-5.45 6.79-2.84 3.61 4.59 4.45 10.74 5.1 16.38 1.06 21.19-5.07 42.15-14.3 61.05-1.21 2.54-2.42 5.16-4.44 7.17-1.22-16.07-2.07-32.27-.24-48.34 1.13-11.28 1.16-23.36 7.09-33.42m2.03 16.93c-1 9.96-2.61 19.93-2.26 29.98 2.39-4.43 2.8-9.53 3.72-14.39.87-7.02 1.78-14.16.67-21.21-1.95 1.17-1.77 3.66-2.13 5.62m109.03 31.35c2.43-.92 5.8-1.1 7.49 1.26 1.68 2.27 1.77 5.25 2.12 7.96.99 8.76-1.95 17.27-4.88 25.39-4.74 13.1-11.68 25.5-21.08 35.84-3.48 3.64-7.89 7.27-13.21 7.2-3.09-.19-4.75-3.29-5.27-5.99-.89-5.31-.36-10.76.86-15.97 3.51-15.76 10.25-30.91 20.11-43.74 3.88-4.7 8.26-9.33 13.86-11.95m-12.68 23.1c-5.78 9.31-10.46 19.38-13.06 30.05-1.29 5.36-2.69 10.84-1.99 16.39 4.33-1.43 7.04-5.3 9.79-8.68 9.06-11.45 14.94-25.07 18.98-39.01 1.38-4.75 1.41-9.74.92-14.62-6.11 3.98-10.77 9.77-14.64 15.87m321.82 2.67c7.13-1.3 15.39-1.36 21.31 3.45 5.27 4.21 6.55 12.78 1.87 17.9-3.81 4.82-10.34 5.07-15.84 6.36-38.38 8.95-76.68 18.22-115.07 27.13-4.29-10.17-10.57-19.31-18.03-27.4 6.75-4.86 13.31-9.99 19.49-15.56 1.29-1 2.96-3.18 4.58-1.39 8.38 6.85 19.1 10.9 29.96 10.71 14.74.63 29.06-3.95 42.7-9.03 9.89-3.57 18.46-10.47 29.03-12.17m1.2 7.34c-8.73 1.38-15.83 6.99-23.85 10.26-10.43 4.3-21.28 7.76-32.41 9.68-12.25 2.45-25.22 1.98-36.94-2.56-3.77-1.42-7.1-3.77-10.82-5.27-4.49 2.24-7.86 6.2-11.85 9.19 4.03 5.62 7.98 11.31 11.11 17.49 39.07-8.91 78-18.52 117.1-27.29 4.32-.49 6.7-5.97 3.52-9.18-4.3-3.78-10.61-3.22-15.86-2.32M98.18 174.18c8.34-11.04 20.19-20.14 34.07-22.52 6.59-.6 13.81-1.22 19.72 2.38 8.92 5.12 13.03 16.02 12.68 25.93.55 13.98-3.58 27.95-10.87 39.82-5.51 8.85-12.83 17.18-22.64 21.27-4.64 1.77-9.89 3.22-14.76 1.52-5.11-1.45-9.77-5.47-10.83-10.83-1.16-6.89 2.19-13.59 6.31-18.88 4.95-5.86 11.21-10.61 18.1-13.96 1.27-.7 2.68-1.28 3.68-2.36.53-2.77-1.08-5.54-3.75-6.43-7.49-2.96-15.72-.63-23.04 1.71-7.75 2.48-14.59 6.97-20.81 12.12 1.96-10.57 5.56-21.13 12.14-29.77m22.5-10.48c-8.81 5.28-16.61 12.92-20.86 22.37 6.4-1.49 12.55-4.21 19.2-4.51 6.62-.51 14.24.25 18.99 5.43 3.76 4.03 3.85 10.18 2.12 15.14-3.33 2.21-7.36 3.1-10.66 5.38-7.19 4.71-14.68 10.72-16.6 19.57-1.34 4.41 2.93 8.64 7.21 8.66 7.09.64 13.33-3.81 18.33-8.33 10.16-10.29 16.78-24.05 18.47-38.42 1.07-7.22.91-14.95-2.28-21.65-2.15-4.55-6.55-7.97-11.58-8.63-7.73-.97-15.61 1.23-22.34 4.99m413.54 24.54c2.17-2.18 4.34-4.66 7.47-5.41 1.62 3.05 2.96 6.23 4.09 9.5-5.24 2.07-10.83 3.09-16.39 3.79.43-3.21 2.69-5.65 4.83-7.88m-1.63 74.3c6-1.23 11.9-2.96 17.98-3.82-2.26 5-6.57 9.31-11.89 10.87-5.18 1.41-10.32-1.24-14.03-4.69 2.52-1.16 5.22-1.82 7.94-2.36"/>
  </g>
  <g fill="#241f20">
    <path d="M153.95 14.9c10.07-4.05 22.12-4.75 31.98.23 8.06 5.3 14.6 13.49 16.55 23.09 2.32 11.27.71 23.14-3.52 33.77-7.32 17.57-20.57 31.94-35.23 43.74-3.86 3.17-8.1 5.84-11.86 9.13 16.11 2.3 32.82 7.88 43.83 20.47 9.66 10.94 11.51 26.69 8.91 40.59-2.86 14.58-9.75 28.19-18.81 39.89-13.62 16.52-32.06 29.27-52.65 35.36-14.41 4.26-30.77 4.29-44.17-3.14-4.71-2.31-8.36-6.13-12.61-9.1-2.07 8.5-3.36 17.19-5.62 25.65-5.16.82-10.45 1.13-15.4 2.96-4.73 1.51-9.15 4.61-14.33 4.17-3.31.16-6.02-2.51-7.23-5.37-.89-3.17-.48-6.53-.01-9.73 3.61-19.19 9.6-37.81 13.98-56.82 8.94-35.86 16.59-72.01 24.15-108.17 1.56-8.39 3.76-17.05 1.9-25.56-.95-4.54-4.68-9.32-9.79-8.77-7.58-.31-13.34 5.84-16.89 11.87-9.41 16.26-14.81 34.68-16.89 53.29-6.53 1.1-13.59-1.97-16.96-7.72-3.18-5.06-2.13-11.33-1.39-16.92 3.88-19.8 14.85-37.75 28.97-51.96 8.9-9.1 20.19-16.73 33.13-18.14 9.61-1.3 19.49 2.28 26.54 8.8 2.99 2.76 5.16 6.23 7.44 9.57 10.44-18.13 26.65-33.04 45.98-41.18m2.41 22.57c-5.88 1.67-10.8 5.61-15.19 9.71-11.55 11.53-19.49 26.01-26.38 40.65-6.59 16.58-11.67 33.82-14.89 51.37 5.34-2.89 10.06-6.76 14.95-10.35 17.58-13.25 33.35-29.1 45.47-47.54 4.61-7.5 9.15-15.51 10.12-24.42.28-5.75.77-12.37-3.26-17.05-2.55-3.2-7.17-3.4-10.82-2.37M98.18 174.18c-6.58 8.64-10.18 19.2-12.14 29.77 6.22-5.15 13.06-9.64 20.81-12.12 7.32-2.34 15.55-4.67 23.04-1.71 2.67.89 4.28 3.66 3.75 6.43-1 1.08-2.41 1.66-3.68 2.36-6.89 3.35-13.15 8.1-18.1 13.96-4.12 5.29-7.47 11.99-6.31 18.88 1.06 5.36 5.72 9.38 10.83 10.83 4.87 1.7 10.12.25 14.76-1.52 9.81-4.09 17.13-12.42 22.64-21.27 7.29-11.87 11.42-25.84 10.87-39.82.35-9.91-3.76-20.81-12.68-25.93-5.91-3.6-13.13-2.98-19.72-2.38-13.88 2.38-25.73 11.48-34.07 22.52"/>
    <path d="M630.18 24.11c11.39-4.54 24.72-3.58 35.5 2.18 7.62 3.99 15.03 9.93 17.5 18.53 2.9 10.07.86 21.12-4 30.26-3.32 6.56-7.4 13.43-14.24 16.8-8.24 3.74-17.4 4.4-26.19 6.08-7.52 1.44-15.16 1.93-22.8 2.17-2.8.13-6.38 0-7.88 2.9-2.86 5.73-2.81 13.37 1.52 18.39 4 4.62 10.46 6.42 16.41 5.88 6.94-.6 13.71-2.56 20.15-5.16 11.38-4.45 20.78-13.18 32.9-15.89 16.67-3.36 34.96 1.61 47.36 13.34 7.99 7.62 12.47 18.46 13.12 29.4.95 14.87-3.5 29.74-11.06 42.46-8.46 14.08-22.08 24.33-36.75 31.28-20.83 10.17-44.12 12.94-66.38 18.47-13.87 3.4-27.94 5.95-41.76 9.51-2.57 2.09-2.43 6.15-3.94 9.02-5.14 11.54-11.56 23.41-22.43 30.49-9.67 5.99-21.78 8.57-32.9 5.65-10.04-2.54-18.54-9.25-25.13-17.04-1.93-2.16-3.1-5-5.39-6.8-4.2-.23-8.12 1.82-12.19 2.57-44.97 10.42-89.98 20.69-134.93 31.25-74.36 17.45-148.85 34.34-223.19 51.88-11.67 3.06-22.8 8.15-32.64 15.12-19.78 13.85-32.77 34.67-48.38 52.62-2.13 2.14-4.68 5.1-8.07 4.26-2.15-1-2.24-3.66-2.58-5.68-.6-7.67-.23-15.38-.75-23.05-.85-9.31-.4-18.69-1.01-28.01-.6-4.72-.52-9.56.9-14.13 4.54-15.2 14.88-27.96 26.8-38.11 11.3-9.41 24.09-17.29 38.1-21.93 11.55-3.55 23.5-5.53 35.19-8.57 62.66-14.6 125.25-29.53 187.89-44.25 58.87-13.7 117.72-27.54 176.5-41.63 6.13-15.45 15.79-29.16 26.91-41.4-2.12-2.18-4.53-4.06-7.23-5.45-6.83 2.7-15.98 3.78-21.43-2.21-4.68-4.56-3.99-12.59.89-16.73 3.71-4.04 10.21-3.07 13.8-7.2 7.62-8.52 11.49-20 11.57-31.35.11-4.95.01-10.55-3.53-14.42-6.06-7.41-19.83-5.65-23.42 3.38-2.73 7.27-3.16 15.18-5.35 22.62-4.19 15.36-9.01 31.21-19.35 43.68-15.57 18.78-37.5 30.77-59.7 40-11.09 4.16-23.13-2.33-29.66-11.35-7.54 9.76-16.07 19.38-27.57 24.47-5.24 2.58-11.27 2.97-16.97 2.06-4.86-.84-8.95-3.79-13.33-5.87-10.72 7.1-21.21 15.04-33.64 18.91-8.07 2.83-17.37 3.21-25.12-.81-5.16-2.3-9.02-6.52-13.22-10.15-2.01 7.57-4.96 14.91-8.91 21.67-2.94 1.47-6.26 1.82-9.42 2.59-6.25 1.17-12.3 3.36-18.65 4.02 9.82-18.98 17.83-38.86 24.49-59.15.61-2.5.29-5.09.04-7.61-3.33-28.27-8.49-56.49-8.03-85.06.28-15.61 2.21-31.69 9.83-45.59 4.79-9.01 12.23-17.34 22.23-20.45 6.35-1.75 13.71-1.89 19.34 1.97 6.81 4.51 10.1 12.53 11.92 20.18 5.05 22.43 1.76 45.76-4.09 67.69-4.69 18.95-10.68 37.73-20.09 54.91-1.47 3.22-4.24 6.49-3 10.24 1.34 5.2 2.17 10.67 4.81 15.43 1.89 3.41 5.37 6.38 9.46 6.25 6.48.65 12.22-2.95 17.53-6.14 3.4-2.25 6.98-4.27 10.19-6.79 1.83-1.06.96-3.33.74-4.97-1.56-6.14-1.13-12.51-1.1-18.78.03-7.11 1.93-14.03 3.91-20.8 4.65-15.78 13.34-30.29 24.93-41.95 8.46-8.65 18.48-16.41 30.32-19.64 10.92-2.99 22.01 1.41 31.75 6.1 1.78-3.64 2.24-7.74 3.97-11.39 2.11-.93 4.52-.57 6.78-.86 8.16-.35 15.62-5.06 23.91-4.12 2.04-.23 3.78 1.64 3.57 3.65.02 4.44-1.51 8.69-2.73 12.9-6.53 19.56-11.37 39.64-17.68 59.27-1.04 4.29-1.89 8.98-.45 13.28 1.9 3.91 6.86 5.31 10.81 3.88 5.18-1.93 9.46-5.65 13.31-9.51 7.79-8.27 14.86-17.59 18.49-28.47 4.44-13.32 8-26.92 11.56-40.5 1.9-7.38 5.26-14.78 11.39-19.59 13.89-11 34.61-14.86 50.54-6.01 13.9 7.85 22.88 23.82 22.13 39.81.21 11.08-3.84 21.85-9.85 31.01-2.8 4.34-6.52 7.94-9.91 11.8 2.17 1.34 4.42 2.55 6.75 3.6 8.19-6.61 16.04-13.64 23.76-20.8 2.3-2.17 4.82-4.16 6.72-6.72.38-5.88-.36-11.87 1.1-17.66 3.79-17.26 10.85-34.01 21.8-47.98 9.79-12.12 22.16-22.74 36.93-28.15m12.16 21.21c-2.34.78-4.58 1.93-6.42 3.59-8.8 8.03-16.03 17.97-20.2 29.17-.77 1.71.61 3.78 2.5 3.64 6.27.39 12.54-.64 18.71-1.68 4.75-1.05 10.31-1.41 13.62-5.48 4.77-5.58 7.34-13.2 6.58-20.54-.7-6.73-8.54-11.4-14.79-8.7M264.51 56.47c-5.93 10.06-5.96 22.14-7.09 33.42-1.83 16.07-.98 32.27.24 48.34 2.02-2.01 3.23-4.63 4.44-7.17 9.23-18.9 15.36-39.86 14.3-61.05-.65-5.64-1.49-11.79-5.1-16.38-2.48-2.61-5.46.69-6.79 2.84m111.06 48.28c-5.6 2.62-9.98 7.25-13.86 11.95-9.86 12.83-16.6 27.98-20.11 43.74-1.22 5.21-1.75 10.66-.86 15.97.52 2.7 2.18 5.8 5.27 5.99 5.32.07 9.73-3.56 13.21-7.2 9.4-10.34 16.34-22.74 21.08-35.84 2.93-8.12 5.87-16.63 4.88-25.39-.35-2.71-.44-5.69-2.12-7.96-1.69-2.36-5.06-2.18-7.49-1.26m309.14 25.77c-10.57 1.7-19.14 8.6-29.03 12.17-13.64 5.08-27.96 9.66-42.7 9.03-10.86.19-21.58-3.86-29.96-10.71-1.62-1.79-3.29.39-4.58 1.39-6.18 5.57-12.74 10.7-19.49 15.56 7.46 8.09 13.74 17.23 18.03 27.4 38.39-8.91 76.69-18.18 115.07-27.13 5.5-1.29 12.03-1.54 15.84-6.36 4.68-5.12 3.4-13.69-1.87-17.9-5.92-4.81-14.18-4.75-21.31-3.45m-150.49 57.72c-2.14 2.23-4.4 4.67-4.83 7.88 5.56-.7 11.15-1.72 16.39-3.79-1.13-3.27-2.47-6.45-4.09-9.5-3.13.75-5.3 3.23-7.47 5.41m-1.63 74.3c-2.72.54-5.42 1.2-7.94 2.36 3.71 3.45 8.85 6.1 14.03 4.69 5.32-1.56 9.63-5.87 11.89-10.87-6.08.86-11.98 2.59-17.98 3.82"/>
  </g>
  <g style="font-style:normal;font-variant:normal;font-weight:700;font-stretch:normal;font-size:24px;line-height:1.25;font-family:Arial;-inkscape-font-specification:&quot;Arial, Bold&quot;;font-variant-ligatures:normal;font-variant-caps:normal;font-variant-numeric:normal;font-variant-east-asian:normal;fill:#241f20;fill-opacity:1;stroke:none;stroke-width:.75">
    <path d="M706.058 88.006V73.732h-5.098v-2.906h13.652v2.906h-5.086v14.274zm10.746 0v-17.18h5.191l3.117 11.719 3.082-11.72h5.203v17.18h-3.222V74.483l-3.41 13.524h-3.34l-3.399-13.524v13.524z" />
  </g>
</svg>
