<svg xmlns="http://www.w3.org/2000/svg" xmlns:xlink="http://www.w3.org/1999/xlink" id="Capa_1" x="0px" y="0px" viewBox="0 0 120 60" style="enable-background:new 0 0 120 60;" xml:space="preserve"><style type="text/css">	.st0{fill:#FE8C01;}</style><g>	<path class="st0" d="M7.43,35.07c0.8,2.88,2.95,4.32,6.47,4.32c2.27,0,3.98-0.76,5.14-2.3l4.77,2.75  c-2.27,3.28-5.6,4.91-10.01,4.91c-3.8,0-6.84-1.15-9.14-3.44c-2.3-2.3-3.44-5.19-3.44-8.68c0-3.46,1.13-6.34,3.4-8.65  c2.26-2.31,5.17-3.47,8.72-3.47c3.37,0,6.14,1.16,8.33,3.49c2.19,2.33,3.28,5.2,3.28,8.63c0,0.77-0.08,1.58-0.23,2.43H7.43z   M7.34,30.48h11.71c-0.34-1.56-1.03-2.72-2.09-3.49c-1.06-0.76-2.26-1.15-3.6-1.15c-1.59,0-2.91,0.41-3.95,1.22  C8.36,27.87,7.67,29.01,7.34,30.48z"></path>	<path class="st0" d="M41.86,20.51c2.51,0,4.58,0.84,6.22,2.53c1.64,1.68,2.46,4.01,2.46,6.98v14.1h-5.92V30.75  c0-1.53-0.41-2.7-1.24-3.51c-0.83-0.81-1.93-1.22-3.31-1.22c-1.53,0-2.75,0.48-3.67,1.42c-0.92,0.95-1.38,2.37-1.38,4.27v12.4H29.1  V21.16h5.92v2.57C36.46,21.58,38.74,20.51,41.86,20.51z"></path>	<path class="st0" d="M68.72,26.85h-5.19v9.55c0,0.8,0.2,1.38,0.6,1.75c0.4,0.37,0.98,0.57,1.75,0.62c0.76,0.05,1.71,0.04,2.85-0.02  v5.37c-4.07,0.46-6.94,0.08-8.61-1.15c-1.67-1.22-2.5-3.41-2.5-6.57v-9.55h-3.99v-5.69h3.99v-4.64l5.92-1.79v6.43h5.19V26.85z"></path>	<path class="st0" d="M77.22,35.07c0.79,2.88,2.95,4.32,6.47,4.32c2.26,0,3.98-0.76,5.14-2.3l4.78,2.75  c-2.27,3.28-5.6,4.91-10.01,4.91c-3.8,0-6.84-1.15-9.14-3.44s-3.44-5.19-3.44-8.68c0-3.46,1.13-6.34,3.4-8.65  c2.26-2.31,5.17-3.47,8.72-3.47c3.37,0,6.14,1.16,8.33,3.49s3.28,5.2,3.28,8.63c0,0.77-0.08,1.58-0.23,2.43H77.22z M77.13,30.48  h11.71c-0.34-1.56-1.03-2.72-2.09-3.49c-1.06-0.76-2.26-1.15-3.6-1.15c-1.59,0-2.91,0.41-3.95,1.22  C78.15,27.87,77.46,29.01,77.13,30.48z"></path>	<path class="st0" d="M118.77,44.11h-6.84l-4.98-6.96l-4.98,6.96h-6.84l8.42-11.72l-8.05-11.24h6.84l4.63,6.47l4.64-6.47h6.79  l-8.03,11.22L118.77,44.11z"></path></g></svg>