<?xml version="1.0" encoding="UTF-8" standalone="no"?>
<svg
   id="_レイヤー_2"
   viewBox="0 0 69.4598035 69.4410884"
   version="1.1"
   sodipodi:docname="Epoch logo.svg"
   inkscape:version="1.2.2 (732a01da63, 2022-12-09)"
   xmlns:inkscape="http://www.inkscape.org/namespaces/inkscape"
   xmlns:sodipodi="http://sodipodi.sourceforge.net/DTD/sodipodi-0.dtd"
   xmlns="http://www.w3.org/2000/svg"
   xmlns:svg="http://www.w3.org/2000/svg"
   xmlns:rdf="http://www.w3.org/1999/02/22-rdf-syntax-ns#"
   xmlns:cc="http://creativecommons.org/ns#"
   xmlns:dc="http://purl.org/dc/elements/1.1/">
  <title
     id="title255">Epoch logo</title>
  <sodipodi:namedview
     id="namedview24"
     pagecolor="#ffffff"
     bordercolor="#000000"
     borderopacity="0.25"
     inkscape:showpageshadow="2"
     inkscape:pageopacity="0.0"
     inkscape:pagecheckerboard="0"
     inkscape:deskcolor="#d1d1d1"
     showgrid="false"
     inkscape:zoom="11.822972"
     inkscape:cx="34.805124"
     inkscape:cy="34.678252"
     inkscape:window-width="2160"
     inkscape:window-height="1256"
     inkscape:window-x="-11"
     inkscape:window-y="250"
     inkscape:window-maximized="1"
     inkscape:current-layer="_レイヤー_2" />
  <defs
     id="defs4">
    <style
       id="style2">.cls-1{fill:#fff;}.cls-2{fill:#008742;}</style>
  </defs>
  <g
     id="Arosio Stefano">
    <g
       id="g20">
      <rect
         class="cls-2"
         x="0"
         y="0"
         width="69.4598034"
         height="69.4410883"
         id="rect6" />
      <g
         id="g18">
        <path
           class="cls-1"
           d="M5.0167759,27.3892154H13.7360484v2.4898136s-1.3880141-.0920277-6.1605085-.0920277v3.6425519s1.9368031,0,5.7175372-.1843368v2.3976451s-.9450428-.0462953-5.7957749-.0462953v4.2884344s3.0152438,.1843368,6.2618234-.2766459v2.3513499H5.0584276s.1519723-1.9826762,.1519724-7.4697221c0-5.4408913-.193624-7.100767-.193624-7.100767"
           id="path8" />
        <path
           class="cls-1"
           d="M20.8973229,27.3892154c-.544849,0-4.0537215,.2304914-5.9623816,0,0,0,.0461546,2.167013,.0461546,7.2853852,0,5.1179501-.1198893,7.2851038-.1198893,7.2851038h2.6234929s-.1013149-.8299378-.1198893-5.2103999h4.0120698s3.9141321-.3686736,3.9141321-4.6109534c0-4.3341668-3.8364574-4.7491357-4.3936893-4.7491357m.2161384,7.4697221h-3.7672255c-.0045029-1.4753982-.0275802-3.227583-.0275802-5.302709h3.6383304s2.4709577,.0461546,2.4709577,2.628418c0,2.6281365-2.0510638,2.6742911-2.3144825,2.6742911"
           id="path10" />
        <path
           class="cls-1"
           d="M25.9225416,34.6746007c0-4.2881529,3.6101874-7.7003542,8.0235768-7.7003542,4.4584182,0,8.026954,3.4122012,8.026954,7.7003542,0,4.2419984-3.5685358,7.7002134-8.026954,7.7002134-4.4133894,0-8.0235768-3.4582151-8.0235768-7.7002135m8.0235768,6.1325062c3.0799728,0,5.5559963-2.1671537,5.5559963-6.1325062,0-3.8271702-2.4760235-5.9021555-5.5559963-5.9021555-3.0523926,0-5.5469905,2.0749853-5.5469905,5.9021555,0,3.9653524,2.4945979,6.1325062,5.5469905,6.1325062"
           id="path12" />
        <path
           class="cls-1"
           d="M53.1965114,27.7581705s-1.8259196-.3689551-2.655576-.3689551c-4.4499753,0-7.8530301,3.3198921-7.8530301,7.2853852,0,3.0431054,1.7065931,7.5157359,8.0646656,7.5157359,2.5638297,0,2.7073591-.5993057,2.7073591-.5993057v-2.5821227s-1.4758203,1.3832297-3.5460213,1.3832297c-2.0656981,0-4.7128312-1.5677073-4.7128312-5.7175372,0-4.1499707,3.3478944-5.4870458,4.9982015-5.4870458,1.5405493,0,2.2823994,.8760924,2.2823994,.8760924l.7148329-2.3054767"
           id="path14" />
        <path
           class="cls-1"
           d="M62.1279822,35.73503c0,4.7952903-.0641661,6.2246746-.0641661,6.2246746h2.2863395s-.1981269-1.1525976-.1981269-7.2851038c0-6.1788014,.1204522-6.9625847,.1204522-6.9625847h-2.2086647c.2251442,2.9510777,0,5.7175372,0,5.7175372h-5.5059017s-.193624-2.7664595,0-5.7175372h-2.1951561s.1159493,.7837833,.1159493,6.9625847c0,6.1325062-.1891211,7.2851038-.1891211,7.2851038h2.3144825s-.096812-1.4293843-.096812-6.2246746h5.6207252"
           id="path16" />
      </g>
    </g>
  </g>
  <metadata
     id="metadata253">
    <rdf:RDF>
      <cc:Work
         rdf:about="">
        <dc:creator>
          <cc:Agent>
            <dc:title>Arosio Stefano</dc:title>
          </cc:Agent>
        </dc:creator>
        <dc:title>Epoch logo</dc:title>
      </cc:Work>
    </rdf:RDF>
  </metadata>
</svg>
