<svg xmlns="http://www.w3.org/2000/svg" xmlns:xlink="http://www.w3.org/1999/xlink" width="1100" zoomAndPan="magnify" viewBox="0 0 824.88 449.999984" height="600" preserveAspectRatio="xMidYMid meet" version="1.2"><defs><clipPath id="a8b572a956"><path d="M 0 0.03125 L 824.761719 0.03125 L 824.761719 449.964844 L 0 449.964844 Z M 0 0.03125 "/></clipPath></defs><g id="3e29543bce"><g clip-rule="nonzero" clip-path="url(#a8b572a956)"><path style=" stroke:none;fill-rule:nonzero;fill:#ffffff;fill-opacity:1;" d="M 0 0.03125 L 824.878906 0.03125 L 824.878906 449.96875 L 0 449.96875 Z M 0 0.03125 "/><path style=" stroke:none;fill-rule:nonzero;fill:#ffffff;fill-opacity:1;" d="M 0 0.03125 L 824.878906 0.03125 L 824.878906 449.96875 L 0 449.96875 Z M 0 0.03125 "/></g><path style=" stroke:none;fill-rule:nonzero;fill:#2c2926;fill-opacity:1;" d="M 746.832031 281.742188 C 746.832031 290.449219 741.777344 292.339844 736.074219 292.339844 C 730.367188 292.339844 725.316406 290.449219 725.316406 281.742188 C 725.316406 273.039062 730.367188 271.148438 736.074219 271.148438 C 741.777344 271.148438 746.832031 272.941406 746.832031 281.742188 Z M 727.273438 281.742188 C 727.273438 289.308594 730.921875 290.546875 736.074219 290.546875 C 741.226562 290.546875 744.875 289.308594 744.875 281.742188 C 744.875 274.179688 741.191406 272.941406 736.074219 272.941406 C 730.957031 272.941406 727.273438 274.179688 727.273438 281.742188 Z M 733.695312 287.613281 L 731.804688 287.613281 L 731.804688 275.875 L 736.53125 275.875 C 739.5625 275.875 740.441406 277.277344 740.441406 279.460938 C 740.441406 281.027344 739.953125 282.167969 738.585938 282.65625 L 741.355469 287.644531 L 739.234375 287.644531 L 736.792969 282.917969 L 733.695312 282.917969 L 733.695312 287.644531 Z M 733.695312 280.992188 L 736.792969 280.992188 C 738.421875 280.992188 738.648438 280.179688 738.648438 279.429688 C 738.648438 278.449219 738.390625 277.636719 736.792969 277.636719 L 733.695312 277.636719 Z M 733.695312 280.992188 "/><path style=" stroke:none;fill-rule:nonzero;fill:#2c2926;fill-opacity:1;" d="M 565.214844 190.070312 L 561.105469 190.070312 C 553.316406 190.070312 548.132812 191.765625 543.765625 195.679688 C 540.4375 198.320312 538.253906 201.480469 536.851562 205.523438 C 535.613281 208.75 534.996094 211.914062 534.996094 215.335938 L 534.996094 268.636719 C 534.996094 272.09375 535.582031 275.257812 536.789062 278.289062 C 538.253906 282.527344 540.4375 285.6875 543.535156 288.164062 C 548.132812 292.273438 553.316406 293.9375 561.105469 293.9375 L 604.269531 293.9375 L 604.269531 283.730469 C 604.269531 283.730469 561.953125 283.730469 561.953125 283.730469 C 560.714844 283.730469 559.574219 283.632812 558.5 283.503906 L 557.847656 283.375 C 554.488281 282.785156 551.75 281.449219 549.730469 279.363281 C 547.511719 276.789062 546.339844 273.5625 545.394531 268.019531 L 545.328125 266.976562 C 545.296875 266.453125 545.261719 265.964844 545.261719 265.378906 L 545.261719 218.660156 C 545.261719 218.105469 545.261719 217.585938 545.328125 217.0625 L 545.328125 216.507812 C 546.339844 210.480469 547.546875 207.25 549.535156 204.871094 C 551.75 202.589844 554.457031 201.253906 557.78125 200.664062 C 558.109375 200.601562 558.335938 200.566406 558.566406 200.535156 C 559.574219 200.40625 560.714844 200.308594 561.953125 200.308594 L 604.5 200.308594 L 604.335938 190.070312 Z M 565.214844 190.070312 "/><path style=" stroke:none;fill-rule:nonzero;fill:#2c2926;fill-opacity:1;" d="M 71.644531 292.535156 L 71.644531 190.039062 C 71.644531 163.796875 83.152344 153.265625 111.089844 153.265625 L 156.308594 153.265625 L 156.308594 173.378906 L 103.265625 173.378906 C 102.125 173.574219 100.984375 173.769531 99.8125 174.160156 C 94.660156 176.085938 91.5625 180.683594 91.5625 187.757812 L 91.5625 216.511719 L 155.917969 216.511719 L 155.917969 236.625 L 91.5625 236.625 L 91.5625 292.566406 L 71.644531 292.566406 Z M 71.644531 292.535156 "/><path style=" stroke:none;fill-rule:nonzero;fill:#2c2926;fill-opacity:1;" d="M 174.042969 265.703125 L 174.042969 188.113281 L 191.289062 188.113281 L 191.289062 267.824219 L 191.484375 268.410156 C 192.234375 272.0625 196.078125 274.734375 203.1875 274.734375 L 230.570312 274.734375 C 239.375 274.734375 242.273438 271.867188 242.273438 263.421875 L 242.273438 188.113281 L 259.519531 188.113281 L 259.519531 265.703125 C 259.519531 283.144531 249.1875 292.535156 230.40625 292.535156 L 203.1875 292.535156 C 184.410156 292.535156 174.074219 283.144531 174.074219 265.703125 "/><path style=" stroke:none;fill-rule:nonzero;fill:#2c2926;fill-opacity:1;" d="M 279.894531 292.535156 L 279.894531 214.945312 C 279.894531 197.503906 290.230469 188.113281 309.007812 188.113281 L 336.195312 188.113281 C 354.972656 188.113281 365.308594 197.503906 365.308594 214.945312 L 365.308594 292.535156 L 348.0625 292.535156 L 348.0625 212.273438 C 347.28125 208.621094 343.269531 205.949219 336.359375 205.949219 L 308.976562 205.949219 C 299.976562 205.949219 297.109375 208.816406 297.109375 217.0625 L 297.109375 292.566406 L 279.863281 292.566406 Z M 279.894531 292.535156 "/><path style=" stroke:none;fill-rule:nonzero;fill:#2c2926;fill-opacity:1;" d="M 391.453125 292.632812 L 403.808594 292.632812 L 403.808594 165.457031 L 442.246094 165.457031 L 442.246094 153.101562 L 353.246094 153.101562 L 353.246094 165.457031 L 391.453125 165.457031 Z M 391.453125 292.632812 "/><path style=" stroke:none;fill-rule:nonzero;fill:#2c2926;fill-opacity:1;" d="M 699.300781 293.054688 L 709.40625 293.054688 L 709.40625 212.140625 C 709.40625 205.230469 706.277344 189.90625 686.359375 189.90625 L 636.414062 189.90625 L 636.414062 152.679688 L 626.277344 152.679688 L 626.277344 293.054688 L 636.414062 293.054688 L 636.347656 199.492188 L 686.519531 199.492188 C 695.78125 199.492188 699.300781 205.71875 699.300781 212.140625 Z M 699.300781 293.054688 "/><path style=" stroke:none;fill-rule:nonzero;fill:#2c2926;fill-opacity:1;" d="M 461.351562 189.648438 C 440.453125 189.648438 431.128906 198.351562 431.128906 217.8125 L 431.128906 268.246094 C 431.128906 274.507812 432.757812 279.429688 436.476562 284.222656 C 441.5625 290.902344 447.398438 293.511719 457.242188 293.511719 L 514.164062 293.511719 L 514.164062 283.046875 L 458.253906 283.046875 C 446.09375 283.046875 443.125 277.863281 441.398438 267.007812 L 441.332031 265.117188 L 441.332031 247.351562 L 514 247.351562 L 514 214.128906 C 514 198.578125 504.839844 189.679688 488.898438 189.679688 L 461.351562 189.679688 Z M 503.761719 238.027344 L 441.367188 238.027344 L 441.367188 218.207031 C 441.367188 206.046875 446.972656 199.882812 458.058594 199.882812 L 488.308594 199.882812 C 494.929688 199.882812 503.761719 201.351562 503.761719 213.902344 Z M 503.761719 238.027344 "/><path style=" stroke:none;fill-rule:nonzero;fill:#54af33;fill-opacity:1;" d="M 748.984375 182.34375 C 728.542969 182.34375 711.949219 165.71875 711.949219 145.3125 C 711.949219 131.910156 719.21875 119.523438 730.957031 112.972656 C 733.140625 111.765625 735.910156 112.546875 737.117188 114.730469 C 738.324219 116.914062 737.574219 119.6875 735.390625 120.894531 C 726.523438 125.847656 721.011719 135.203125 721.011719 145.3125 C 721.011719 160.730469 733.5625 173.28125 748.984375 173.28125 C 764.402344 173.28125 776.953125 160.730469 776.953125 145.3125 C 776.953125 135.203125 771.445312 125.816406 762.578125 120.859375 C 760.394531 119.652344 759.613281 116.882812 760.851562 114.699219 C 762.054688 112.515625 764.796875 111.730469 767.011719 112.9375 C 778.746094 119.492188 786.019531 131.878906 786.019531 145.277344 C 786.019531 165.6875 769.390625 182.3125 748.984375 182.3125 Z M 748.984375 182.34375 "/><path style=" stroke:none;fill-rule:nonzero;fill:#54af33;fill-opacity:1;" d="M 748.984375 138.691406 C 746.472656 138.691406 744.453125 136.671875 744.453125 134.160156 L 744.453125 102.308594 C 744.453125 99.800781 746.472656 97.777344 748.984375 97.777344 C 751.492188 97.777344 753.515625 99.800781 753.515625 102.308594 L 753.515625 134.160156 C 753.515625 136.671875 751.492188 138.691406 748.984375 138.691406 Z M 748.984375 138.691406 "/></g></svg>