<?xml version="1.0" encoding="UTF-8"?>
<svg width="600" height="120" version="1.1" xmlns="http://www.w3.org/2000/svg">
 <path d="m218.69 106.53v-17.165h-31.319v-77.092h-19.574v94.258zm-62.939 0v-17.165h-31.62v-77.092h-19.273v94.258zm-62.638-1.8068-41.256-93.053-41.859 94.86h21.983l4.5171-13.25h30.415l4.8183 13.25h22.285zm-41.256-54.206 9.6366 26.802h-19.574z" fill="#27aae1"/>
 <path d="m530.07 106.83v-93.655h59.927v5.7217h-53.904v36.137h45.472v5.4206h-45.472v40.654h53.904v5.4206h-59.927zm-20.779-93.655h6.0228v93.655h-6.0228zm-85.826 0h6.324l30.114 87.331 31.921-87.331h6.6251l-34.932 93.655h-6.9263zm-45.472-1.5057c24.091 0 40.955 19.273 40.955 48.484 0 28.91-17.165 48.183-40.955 48.183-23.489 0-40.955-19.273-40.955-48.183 0-29.211 17.466-48.484 40.955-48.484zm0 90.644c20.177 0 35.234-16.262 35.234-42.16 0-26.199-14.756-42.461-35.234-42.461-20.177 0-34.932 16.262-34.932 42.461 0 25.898 14.756 42.16 34.932 42.16zm-62.336-79.2-35.234 50.893h-1.8068l-34.932-50.893v83.416h-6.0228v-93.354h6.0228l36.137 52.399 36.137-52.399h5.7217v93.655h-6.0228z"/>
</svg>
