<!-- Created with Inkscape (http://www.inkscape.org/) -->
<svg width="86.929" height="16.009" version="1.1" viewBox="0 0 86.929 16.009" xmlns="http://www.w3.org/2000/svg">
 <g transform="matrix(1.3333 0 0 -1.3333 -181.9 351.57)" fill="#aaa9aa">
  <path d="m151.24 260.03h1.824l-0.617-1.828h1.994l0.618 1.828h1.837l-1.773-5.247h-1.837l0.719 2.126h-1.995l-0.719-2.126h-1.824z"/>
  <path d="m157.51 260.03h2.025l0.598-1.749 1.779 1.749h2.015l-3.327-3.049-0.743-2.198h-1.824l0.743 2.198z"/>
  <path transform="translate(165.6 257.79)" d="m0 0h0.448c0.352 0 0.618 0.054 0.797 0.163 0.179 0.108 0.298 0.247 0.355 0.416 0.055 0.164 0.041 0.304-0.044 0.418-0.086 0.114-0.299 0.171-0.641 0.171h-0.52zm-1.081 2.238h3.035c0.66 0 1.108-0.139 1.343-0.418s0.266-0.675 0.091-1.19c-0.178-0.529-0.497-0.942-0.956-1.24s-1.056-0.447-1.791-0.447h-0.998l-0.66-1.951h-1.837z"/>
  <path transform="translate(170.49 260.03)" d="m0 0h4.882l-0.378-1.119h-3.058l-0.286-0.845h2.835l-0.361-1.07h-2.835l-0.349-1.031h3.15l-0.399-1.182h-4.973z"/>
  <path transform="translate(177.6 257.91)" d="m0 0h0.765c0.083 0 0.251 0.024 0.505 0.072 0.126 0.021 0.244 0.076 0.349 0.165 0.107 0.089 0.179 0.19 0.218 0.305 0.058 0.169 0.041 0.3-0.049 0.391-0.089 0.091-0.299 0.136-0.63 0.136h-0.797zm-2.892-3.121 1.774 5.247h3.04c0.563 0 0.979-0.043 1.249-0.129 0.268-0.086 0.455-0.246 0.559-0.478 0.104-0.233 0.099-0.517-0.013-0.851-0.099-0.291-0.254-0.543-0.464-0.754-0.211-0.211-0.461-0.383-0.749-0.514-0.184-0.084-0.421-0.153-0.71-0.208 0.194-0.065 0.331-0.129 0.408-0.194 0.052-0.043 0.117-0.136 0.196-0.277 0.081-0.142 0.128-0.251 0.145-0.328l0.379-1.514h-2.064l-0.432 1.601c-0.054 0.208-0.118 0.342-0.195 0.404-0.104 0.081-0.239 0.121-0.406 0.121h-0.161l-0.719-2.126z"/>
  <path transform="translate(182.9 260.03)" d="m0 0h1.824l-0.67-1.982 2.588 1.982h2.426l-2.822-1.973 1.14-3.274h-2.246l-0.511 2.144-1.249-0.873-0.429-1.271h-1.823z"/>
  <path transform="translate(189.84 260.03)" d="m0 0h1.824l-1.773-5.247h-1.823z"/>
  <path transform="translate(192.99 260.03)" d="m0 0h1.707l1.248-2.906 0.983 2.906h1.718l-1.772-5.247h-1.72l-1.24 2.892-0.978-2.892h-1.718z"/>
  <path transform="translate(200.08 260.95)" d="m0 0h0.258c0.123 0 0.207 0.018 0.251 0.055 0.045 0.036 0.067 0.085 0.067 0.146 0 0.038-0.011 0.073-0.032 0.103-0.022 0.031-0.052 0.054-0.09 0.069s-0.109 0.023-0.212 0.023h-0.242zm-0.211-0.739v1.313h0.451c0.155 0 0.265-0.012 0.334-0.036 0.07-0.025 0.124-0.067 0.165-0.127 0.041-0.061 0.062-0.125 0.062-0.193 0-0.096-0.034-0.179-0.103-0.25-0.068-0.072-0.159-0.112-0.272-0.12 0.046-0.02 0.084-0.043 0.111-0.07 0.054-0.051 0.118-0.138 0.194-0.26l0.161-0.257h-0.259l-0.116 0.207c-0.092 0.162-0.166 0.264-0.222 0.305-0.039 0.031-0.096 0.046-0.17 0.046h-0.125v-0.558zm0.535 1.693c-0.172 0-0.339-0.044-0.501-0.132s-0.289-0.213-0.381-0.377c-0.091-0.163-0.137-0.333-0.137-0.51 0-0.176 0.046-0.344 0.135-0.505 0.09-0.161 0.216-0.287 0.377-0.377 0.162-0.09 0.331-0.135 0.507-0.135s0.344 0.045 0.506 0.135 0.287 0.216 0.377 0.377c0.089 0.161 0.134 0.329 0.134 0.505 0 0.177-0.045 0.347-0.137 0.51-0.091 0.164-0.218 0.289-0.381 0.377-0.162 0.088-0.329 0.132-0.499 0.132m0 0.202c0.204 0 0.405-0.052 0.6-0.157 0.195-0.106 0.347-0.257 0.456-0.452 0.108-0.195 0.163-0.4 0.163-0.612 0-0.21-0.054-0.413-0.161-0.606-0.107-0.194-0.257-0.345-0.451-0.453-0.194-0.106-0.396-0.16-0.607-0.16-0.212 0-0.414 0.054-0.607 0.16-0.194 0.108-0.345 0.259-0.452 0.453-0.108 0.193-0.161 0.396-0.161 0.606 0 0.212 0.054 0.417 0.163 0.612 0.11 0.195 0.261 0.346 0.458 0.452 0.194 0.105 0.394 0.157 0.599 0.157"/>
  <path transform="translate(144.96 258.33)" d="m0 0 0.304 0.808 0.651 1.726c-1e-3 1e-3 -1e-3 1e-3 -1e-3 2e-3l0.063 0.168 0.361 0.959-0.926-0.448-0.164-0.079c-0.793 0.591-1.757 0.924-2.751 0.937-0.017 1e-3 -0.036 2e-3 -0.054 2e-3l-0.015 1e-3c-0.177-1e-3 -0.354-0.011-0.53-0.031l-1.523-4.045zm1.801 1.232-2.304-6.119c1.604 0.771 2.691 2.423 2.691 4.253 0 0.651-0.134 1.281-0.387 1.866m-6.877-2.534-0.235-0.623-0.71-1.887c1e-3 0 1e-3 -1e-3 1e-3 -1e-3l-0.411-1.092 1.053 0.509c0.796-0.604 1.771-0.946 2.775-0.961 0.016 0 0.035-1e-3 0.054-2e-3h0.02c0.174 0 0.349 0.013 0.524 0.033l1.515 4.024zm-2.172 0.66c0-0.648 0.133-1.277 0.384-1.86l2.304 6.117c-1.621-0.765-2.688-2.394-2.688-4.257m10.727-0.01c0-3.316-2.687-6.004-6.003-6.004s-6.004 2.688-6.004 6.004c0 3.315 2.688 6.003 6.004 6.003s6.003-2.688 6.003-6.003"/>
 </g>
</svg>
