<?xml version="1.0" encoding="UTF-8"?>
<svg width="366" height="272" version="1.1" viewBox="0 0 96.838 71.967" xmlns="http://www.w3.org/2000/svg" xmlns:cc="http://creativecommons.org/ns#" xmlns:dc="http://purl.org/dc/elements/1.1/" xmlns:rdf="http://www.w3.org/1999/02/22-rdf-syntax-ns#" xmlns:xlink="http://www.w3.org/1999/xlink">
 <title>Logo INTERTON ELECTRONIC (vertical)</title>
 <metadata>
  <rdf:RDF>
   <cc:Work>
    <dc:format>image/svg+xml</dc:format>
    <dc:type rdf:resource="http://purl.org/dc/dcmitype/StillImage"/>
    <dc:title>Logo INTERTON ELECTRONIC (vertical)</dc:title>
    <dc:creator>
     <cc:Agent>
      <dc:title>MagentaGreen</dc:title>
     </cc:Agent>
    </dc:creator>
   </cc:Work>
  </rdf:RDF>
 </metadata>
 <path d="M0 0h96.838v71.967H0z" fill="#000"/>
 <g transform="translate(.4)" fill="#fff" stroke="#1a1a1a" stroke-linecap="round" stroke-linejoin="round" stroke-width=".397">
  <circle cx="50.999" cy="24.562" r="23.155"/>
  <circle cx="50.999" cy="27.667" r="19.078"/>
  <circle cx="50.999" cy="30.279" r="15.685"/>
  <circle cx="50.999" cy="32.494" r="12.717"/>
  <circle cx="50.999" cy="34.478" r="10.011"/>
  <circle cx="50.999" cy="36.150" r="7.677"/>
  <circle cx="50.999" cy="37.462" r="5.796"/>
  <circle cx="50.999" cy="38.358" r="4.184"/>
  <circle cx="50.999" cy="38.754" r="3.031"/>
 </g>
 <g transform="translate(.4)" stroke="#1a1a1a" stroke-linecap="round" stroke-linejoin="round">
  <g fill="#fff" stroke-width=".285">
   <path d="M3.937 62.023h-2.78v-9.522h2.78zm27.813 0v-9.522h10.377v1.906h-7.698v1.903h7.263v1.641h-7.263v2.167h7.698v1.905zm19.376-7.842h-5.04v2.943h5.04c.553 0 .92-.047 1.101-.14.19-.1.285-.279.285-.54v-1.577c0-.265-.095-.444-.285-.538-.181-.099-.548-.148-1.101-.148zm2.631 3.896c.323.082.592.186.806.31.47.27.705.65.705 1.142v2.494h-2.806V59.62c0-.33-.12-.556-.359-.68-.23-.124-.668-.186-1.311-.186h-4.705v3.27h-2.68v-9.522h5.453c2.639 0 4.383.173 5.233.52.849.346 1.274.987 1.274 1.923v1.09c0 .552-.231.973-.693 1.263-.234.145-.542.266-.926.363z"/>
   <path d="M60.541 62.023v-7.416h-3.894V52.5h10.557v2.106H63.32v7.416z" stroke="#1a1a1a"/>
   <path d="M77.976 55.158c0-.265-.079-.442-.235-.532-.149-.09-.45-.135-.903-.135h-5.1c-.462 0-.771.045-.928.135-.148.09-.223.267-.223.532v4.307c0 .265.075.443.223.532.157.09.466.135.928.135h5.1c.453 0 .754-.045.903-.135.156-.09.235-.267.235-.532zm-4.539 6.98c-1.566 0-2.63-.04-3.191-.121-.56-.086-1.027-.233-1.398-.443-.346-.196-.594-.438-.742-.724-.149-.291-.223-.753-.223-1.385v-4.4c0-.632.07-1.091.21-1.378.149-.286.4-.528.755-.724.38-.214.878-.364 1.497-.45.627-.085 1.657-.127 3.992-.127 2.327 0 3.346.042 3.956.128.618.085 1.117.235 1.497.449.354.196.602.438.742.724.148.287.223.746.223 1.379v4.399c0 .654-.07 1.122-.21 1.404-.14.278-.384.513-.73.705-.372.21-.838.357-1.398.443-.561.081-1.62.122-3.18.122z"/>
  </g>
  <path id="a" d="M82.035 62.023v-9.522h4.8l5.639 7.528.028-7.528h2.348v9.522h-4.752l-5.7-7.733.008 7.733z" fill="#fff" stroke-width=".285"/>
  <use transform="translate(-76.517)" xlink:href="#a"/>
  <g fill="#fff" stroke-width=".231">
   <path id="c" d="m1.108 70.498v-7.588h8.666v1.46h-6.432v1.575h5.942v1.309h-5.942v1.4941h6.432v1.7509z" fill="#fff" stroke-width=".231"/>
   <path d="m10.724 70.498v-7.588h2.234l-1.2e-5 5.8381h5.04l1.2e-5 1.7509zm31.926 0v-6.128h-3.19v-1.46h8.605v1.46h-3.18v6.128zm41.154 0h-2.234v-7.588h2.234z"/>
  </g>
  <use transform="translate(56.19)" xlink:href="#b"/>
  <path id="b" d="M38.51 67.438v.764c0 .51-.055.875-.164 1.095-.11.217-.3.4-.57.55-.29.164-.653.28-1.09.346-.438.063-1.265.095-2.482.095H32.9c-1.222 0-2.052-.032-2.49-.095-.438-.067-.801-.182-1.09-.345-.271-.154-.464-.342-.58-.566-.116-.226-.174-.587-.174-1.08v-3.433c0-.494.055-.852.164-1.076.116-.223.312-.412.59-.565.295-.167.684-.284 1.167-.35.49-.067 1.194-.1 3.016-.1 1.816 0 2.61.033 3.087.1.482.066.872.183 1.168.35.276.153.47.342.579.565.116.224.174.582.174 1.076v.43l-2.169-.005v-.353c0-.207-.061-.345-.183-.415-.116-.07-.351-.105-.705-.105h-3.88c-.36 0-.602.035-.724.105-.116.07-.174.208-.174.415v3.293c0 .207.058.346.174.416.122.07.364.105.724.105h3.88c.354 0 .589-.035.705-.105.122-.07.183-.209.183-.416v-.696z" fill="#fff" stroke-width=".231"/>
  <path d="M69.453 68.402c0 .51-.054.876-.164 1.096-.11.217-.3.4-.57.55-.289.164-.653.279-1.09.345-.438.064-1.265.096-2.481.096h-1.305c-1.223 0-2.053-.032-2.49-.096-.438-.066-.802-.181-1.091-.345-.27-.153-.464-.342-.58-.565-.115-.227-.173-.587-.173-1.081v-3.633c0-.494.054-.852.164-1.076.115-.223.312-.412.588-.565.297-.167.686-.284 1.169-.35.489-.067 1.193-.1 3.015-.1 1.816 0 2.61.033 3.087.1.483.066.872.183 1.168.35.277.153.47.342.58.565.115.224.173.582.173 1.076zm-2.169-3.56c0-.208-.06-.346-.183-.416-.116-.07-.35-.105-.705-.105h-3.88c-.36 0-.601.035-.723.105-.116.07-.174.208-.174.415v3.293c0 .207.058.346.174.416.122.07.363.105.724.105h3.88c.354 0 .588-.035.704-.105.123-.07.184-.209.184-.416z" fill="#fff" stroke-width=".231"/>
  <use transform="translate(17.841)" xlink:href="#c"/>
  <path d="M55.175 64.242h-4.022v2.349h4.022c.44 0 .733-.038.878-.113.151-.078.227-.221.227-.43V64.79c0-.212-.076-.355-.227-.43-.145-.079-.438-.118-.878-.118zm2.099 3.109c.258.066.472.148.643.248.375.215.563.518.563.91V70.5h-2.24v-1.919c0-.262-.095-.443-.286-.542-.184-.099-.533-.148-1.046-.148h-3.755v2.61h-2.138v-7.6h4.351c2.106 0 3.498.139 4.176.415.678.276 1.017.788 1.017 1.535v.87c0 .44-.185.776-.553 1.008a2.636 2.636 0 0 1-.739.29zM70.403 70.5v-7.592h3.827l4.496 6.002.023-6.002h1.871V70.5h-3.788l-4.545-6.165.007 6.165z" fill="#fff" stroke-width=".231"/>
  <path d="M23.631 62.023v-7.416h-3.894V52.5h10.557v2.106H26.41v7.416z" fill="#fff" stroke="#1a1a1a" stroke-width=".285"/>
 </g>
</svg>
