<?xml version="1.0" encoding="utf-8"?>
<!-- Generator: Adobe Illustrator 25.4.1, SVG Export Plug-In . SVG Version: 6.00 Build 0)  -->
<svg version="1.1" id="Calque_1" xmlns="http://www.w3.org/2000/svg" xmlns:xlink="http://www.w3.org/1999/xlink" x="0px" y="0px"
	 viewBox="0 0 140.2 27.35" style="enable-background:new 0 0 140.2 27.35;" xml:space="preserve">
<style type="text/css">
	.st0{clip-path:url(#SVGID_00000010995550533303455030000009320557018776874160_);}
	.st1{clip-path:url(#SVGID_00000008869464763365765120000005696045759385526709_);fill:#222221;}
	.st2{clip-path:url(#SVGID_00000008869464763365765120000005696045759385526709_);fill:#B4102D;}
</style>
<g id="KONIX_logo_CMJN_00000104679679091816150760000003448856617673087661_">
	<g>
		<defs>
			<rect id="SVGID_1_" x="1" y="0.91" width="138.18" height="25.62"/>
		</defs>
		<clipPath id="SVGID_00000111909474770496551030000016780421655755549582_">
			<use xlink:href="#SVGID_1_"  style="overflow:visible;"/>
		</clipPath>
		<g style="clip-path:url(#SVGID_00000111909474770496551030000016780421655755549582_);">
			<defs>
				<rect id="SVGID_00000117650865364791515760000007546575967006539187_" x="1" y="0.91" width="138.18" height="25.62"/>
			</defs>
			<clipPath id="SVGID_00000142867789232166938670000015477611401544469943_">
				<use xlink:href="#SVGID_00000117650865364791515760000007546575967006539187_"  style="overflow:visible;"/>
			</clipPath>
			<path style="clip-path:url(#SVGID_00000142867789232166938670000015477611401544469943_);fill:#222221;" d="M43.69,10.47
				c1.8,0,3.26,1.46,3.26,3.26c0,1.8-1.46,3.26-3.26,3.26c-1.8,0-3.26-1.46-3.26-3.26C40.43,11.93,41.89,10.47,43.69,10.47"/>
			<path style="clip-path:url(#SVGID_00000142867789232166938670000015477611401544469943_);fill:#222221;" d="M52.33,10.47
				c1.8,0,3.26,1.46,3.26,3.26c0,1.8-1.46,3.26-3.26,3.26c-1.8,0-3.26-1.46-3.26-3.26C49.07,11.93,50.53,10.47,52.33,10.47"/>
			<path style="clip-path:url(#SVGID_00000142867789232166938670000015477611401544469943_);fill:#222221;" d="M30.95,26.52h-7.79
				l-7.84-8.02c-0.33-0.33-0.6-0.64-0.82-0.92c-0.09,0-9.26,8.95-9.26,8.95L1,26.52V0.92h5.78v16.59c0.38-0.52,0.8-1.02,1.28-1.49
				l15.1-15.1h7.79L19.33,12.54c-0.38,0.38-0.83,0.78-1.35,1.21c0.4,0.28,0.85,0.66,1.35,1.13L30.95,26.52z"/>
			<path style="clip-path:url(#SVGID_00000142867789232166938670000015477611401544469943_);fill:#222221;" d="M95.86,26.53h-7.19
				c0,0-15.15-17.54-16.13-18.71v18.71h-5.78V7.36c0-3.56,2.89-6.45,6.45-6.45c0,0,15.6,17.49,16.91,19v-19h5.74V26.53z"/>
			<path style="clip-path:url(#SVGID_00000142867789232166938670000015477611401544469943_);fill:#222221;" d="M105.36,26.53h-5.78
				V6.69c0-3.19,2.59-5.78,5.78-5.78V26.53z"/>
			<polygon style="clip-path:url(#SVGID_00000142867789232166938670000015477611401544469943_);fill:#222221;" points="
				139.17,26.53 126.83,13.56 138.87,0.91 131.87,0.91 123.33,9.88 114.79,0.91 107.79,0.91 119.83,13.56 107.48,26.53 
				114.48,26.53 123.33,17.24 132.17,26.53 			"/>
			<path style="clip-path:url(#SVGID_00000142867789232166938670000015477611401544469943_);fill:#B4102D;" d="M38.93,0.92
				c-3.56,0-6.45,2.89-6.45,6.45v19.17h24.62c3.56,0,6.45-2.89,6.45-6.45V0.92H38.93z M57.78,18.48c0,1.27-1.03,2.3-2.3,2.3H38.23
				V8.91c0-1.27,1.03-2.3,2.3-2.3h17.25V18.48z"/>
			<path style="clip-path:url(#SVGID_00000142867789232166938670000015477611401544469943_);fill:#222221;" d="M43.69,10.47
				c1.8,0,3.26,1.46,3.26,3.26c0,1.8-1.46,3.26-3.26,3.26c-1.8,0-3.26-1.46-3.26-3.26C40.43,11.93,41.89,10.47,43.69,10.47"/>
			<path style="clip-path:url(#SVGID_00000142867789232166938670000015477611401544469943_);fill:#222221;" d="M52.33,10.47
				c1.8,0,3.26,1.46,3.26,3.26c0,1.8-1.46,3.26-3.26,3.26c-1.8,0-3.26-1.46-3.26-3.26C49.07,11.93,50.53,10.47,52.33,10.47"/>
		</g>
	</g>
</g>
</svg>
