<?xml version="1.0" encoding="UTF-8" standalone="no"?><!-- Generator: Gravit.io --><svg xmlns="http://www.w3.org/2000/svg" xmlns:xlink="http://www.w3.org/1999/xlink" style="isolation:isolate" viewBox="4450 -4283 2500.002 533.726" width="2500.002pt" height="533.726pt"><g><path d=" M 6950 -4041.553 L 6950 -4085.519 L 6895.402 -4085.519 L 6895.402 -4153.87 L 6893.564 -4153.304 L 6842.283 -4137.614 L 6841.272 -4137.307 L 6841.272 -4085.517 L 6760.331 -4085.517 L 6760.331 -4114.368 C 6760.331 -4127.802 6763.334 -4138.083 6769.254 -4144.939 C 6775.134 -4151.713 6783.542 -4155.157 6794.268 -4155.157 C 6801.978 -4155.157 6809.961 -4153.34 6817.995 -4149.759 L 6820.009 -4148.859 L 6820.009 -4195.162 L 6819.061 -4195.51 C 6811.567 -4198.204 6801.373 -4199.561 6788.737 -4199.561 C 6772.812 -4199.561 6758.343 -4196.095 6745.724 -4189.227 C 6733.097 -4182.349 6723.165 -4172.53 6716.207 -4160.047 C 6709.274 -4147.577 6705.755 -4133.176 6705.755 -4117.239 L 6705.755 -4085.519 L 6667.738 -4085.519 L 6667.738 -4041.553 L 6705.755 -4041.553 L 6705.755 -3856.331 L 6760.331 -3856.331 L 6760.331 -4041.553 L 6841.272 -4041.553 L 6841.272 -3923.847 C 6841.272 -3875.371 6864.138 -3850.805 6909.233 -3850.805 C 6916.643 -3850.805 6924.442 -3851.673 6932.406 -3853.373 C 6940.513 -3855.119 6946.034 -3856.863 6949.284 -3858.725 L 6950.002 -3859.151 L 6950.002 -3903.523 L 6947.782 -3902.055 C 6944.82 -3900.082 6941.132 -3898.469 6936.808 -3897.269 C 6932.464 -3896.048 6928.837 -3895.436 6926.027 -3895.436 C 6915.463 -3895.436 6907.647 -3898.283 6902.798 -3903.901 C 6897.893 -3909.569 6895.405 -3919.482 6895.405 -3933.349 L 6895.405 -4041.553 L 6950 -4041.553 Z  M 6545.861 -3895.429 C 6526.052 -3895.429 6510.434 -3901.997 6499.428 -3914.936 C 6488.354 -3927.939 6482.743 -3946.479 6482.743 -3970.034 C 6482.743 -3994.336 6488.354 -4013.357 6499.432 -4026.59 C 6510.446 -4039.737 6525.914 -4046.409 6545.416 -4046.409 C 6564.339 -4046.409 6579.404 -4040.037 6590.194 -4027.459 C 6601.039 -4014.815 6606.543 -3995.947 6606.543 -3971.362 C 6606.543 -3946.474 6601.367 -3927.357 6591.162 -3914.568 C 6581.026 -3901.876 6565.786 -3895.429 6545.861 -3895.429 M 6548.286 -4091.04 C 6510.494 -4091.04 6480.477 -4079.967 6459.074 -4058.126 C 6437.686 -4036.283 6426.842 -4006.056 6426.842 -3968.276 C 6426.842 -3932.392 6437.427 -3903.528 6458.308 -3882.5 C 6479.188 -3861.465 6507.604 -3850.81 6542.76 -3850.81 C 6579.394 -3850.81 6608.814 -3862.038 6630.207 -3884.181 C 6651.597 -3906.3 6662.434 -3936.242 6662.434 -3973.139 C 6662.434 -4009.584 6652.265 -4038.663 6632.199 -4059.551 C 6612.124 -4080.448 6583.887 -4091.04 6548.286 -4091.04 M 6338.849 -4091.04 C 6313.141 -4091.04 6291.877 -4084.465 6275.632 -4071.5 C 6259.289 -4058.457 6250.999 -4041.352 6250.999 -4020.653 C 6250.999 -4009.894 6252.788 -4000.336 6256.309 -3992.23 C 6259.852 -3984.097 6265.335 -3976.936 6272.619 -3970.926 C 6279.847 -3964.965 6291.006 -3958.721 6305.792 -3952.368 C 6318.222 -3947.253 6327.492 -3942.926 6333.381 -3939.516 C 6339.137 -3936.174 6343.221 -3932.815 6345.528 -3929.543 C 6347.77 -3926.341 6348.907 -3921.959 6348.907 -3916.551 C 6348.907 -3901.153 6337.376 -3893.661 6313.649 -3893.661 C 6304.849 -3893.661 6294.81 -3895.499 6283.814 -3899.122 C 6272.895 -3902.69 6262.59 -3907.915 6253.26 -3914.614 L 6250.994 -3916.239 L 6250.994 -3863.695 L 6251.826 -3863.308 C 6259.548 -3859.743 6269.284 -3856.737 6280.759 -3854.372 C 6292.213 -3852.004 6302.619 -3850.8 6311.659 -3850.8 C 6339.555 -3850.8 6362.019 -3857.407 6378.411 -3870.449 C 6394.907 -3883.581 6403.268 -3901.09 6403.268 -3922.505 C 6403.268 -3937.954 6398.767 -3951.202 6389.896 -3961.886 C 6381.086 -3972.484 6365.795 -3982.213 6344.467 -3990.813 C 6327.475 -3997.633 6316.59 -4003.294 6312.099 -4007.64 C 6307.77 -4011.838 6305.572 -4017.775 6305.572 -4025.294 C 6305.572 -4031.959 6308.285 -4037.299 6313.855 -4041.623 C 6319.468 -4045.969 6327.282 -4048.179 6337.081 -4048.179 C 6346.174 -4048.179 6355.478 -4046.743 6364.731 -4043.928 C 6373.976 -4041.113 6382.097 -4037.342 6388.876 -4032.731 L 6391.105 -4031.207 L 6391.105 -4081.05 L 6390.249 -4081.418 C 6383.995 -4084.1 6375.749 -4086.395 6365.732 -4088.257 C 6355.761 -4090.107 6346.716 -4091.04 6338.849 -4091.04 M 6108.722 -3895.429 C 6088.918 -3895.429 6073.295 -3901.997 6062.292 -3914.936 C 6051.215 -3927.939 6045.614 -3946.474 6045.614 -3970.034 C 6045.614 -3994.336 6051.223 -4013.357 6062.304 -4026.59 C 6073.307 -4039.737 6088.773 -4046.409 6108.285 -4046.409 C 6127.201 -4046.409 6142.265 -4040.037 6153.059 -4027.459 C 6163.905 -4014.815 6169.407 -3995.947 6169.407 -3971.362 C 6169.407 -3946.474 6164.229 -3927.357 6154.024 -3914.568 C 6143.888 -3901.876 6128.655 -3895.429 6108.722 -3895.429 M 6111.155 -4091.04 C 6073.353 -4091.04 6043.334 -4079.967 6021.943 -4058.126 C 6000.555 -4036.283 5989.704 -4006.056 5989.704 -3968.276 C 5989.704 -3932.377 6000.296 -3903.528 6021.177 -3882.5 C 6042.057 -3861.465 6070.471 -3850.81 6105.627 -3850.81 C 6142.256 -3850.81 6171.683 -3862.038 6193.076 -3884.181 C 6214.461 -3906.3 6225.303 -3936.242 6225.303 -3973.139 C 6225.303 -4009.584 6215.131 -4038.663 6195.061 -4059.551 C 6174.981 -4080.448 6146.749 -4091.04 6111.155 -4091.04 M 5906.859 -4045.829 L 5906.859 -4085.519 L 5852.949 -4085.519 L 5852.949 -3856.336 L 5906.859 -3856.336 L 5906.859 -3973.572 C 5906.859 -3993.507 5911.379 -4009.884 5920.298 -4022.254 C 5929.104 -4034.477 5940.838 -4040.67 5955.164 -4040.67 C 5960.02 -4040.67 5965.471 -4039.87 5971.375 -4038.286 C 5977.218 -4036.711 5981.45 -4035.001 5983.945 -4033.202 L 5986.212 -4031.56 L 5986.212 -4085.911 L 5985.338 -4086.286 C 5980.318 -4088.419 5973.215 -4089.495 5964.228 -4089.495 C 5950.681 -4089.495 5938.557 -4085.142 5928.173 -4076.571 C 5919.058 -4069.038 5912.47 -4058.709 5907.432 -4045.829 L 5906.859 -4045.829 Z  M 5756.404 -4091.04 C 5731.671 -4091.04 5709.611 -4085.737 5690.846 -4075.282 C 5672.043 -4064.803 5657.502 -4049.843 5647.608 -4030.82 C 5637.758 -4011.843 5632.757 -3989.676 5632.757 -3964.955 C 5632.757 -3943.301 5637.606 -3923.429 5647.19 -3905.915 C 5656.779 -3888.372 5670.351 -3874.648 5687.531 -3865.129 C 5704.687 -3855.622 5724.515 -3850.802 5746.469 -3850.802 C 5772.09 -3850.802 5793.964 -3855.925 5811.502 -3866.026 L 5812.211 -3866.432 L 5812.211 -3915.823 L 5809.945 -3914.169 C 5802 -3908.382 5793.122 -3903.763 5783.57 -3900.435 C 5774.041 -3897.11 5765.355 -3895.429 5757.737 -3895.429 C 5736.583 -3895.429 5719.601 -3902.048 5707.275 -3915.098 C 5694.921 -3928.164 5688.658 -3946.513 5688.658 -3969.601 C 5688.658 -3992.834 5695.19 -4011.654 5708.063 -4025.541 C 5720.897 -4039.386 5737.911 -4046.409 5758.627 -4046.409 C 5776.346 -4046.409 5793.613 -4040.409 5809.95 -4028.559 L 5812.211 -4026.917 L 5812.211 -4078.958 L 5811.48 -4079.369 C 5805.333 -4082.811 5796.948 -4085.652 5786.54 -4087.807 C 5776.174 -4089.957 5766.037 -4091.04 5756.404 -4091.04 M 5595.627 -4085.517 L 5541.716 -4085.517 L 5541.716 -3856.336 L 5595.627 -3856.336 L 5595.627 -4085.517 L 5595.627 -4085.517 Z  M 5569.223 -4183.15 C 5560.35 -4183.15 5552.611 -4180.129 5546.253 -4174.143 C 5539.869 -4168.141 5536.631 -4160.584 5536.631 -4151.665 C 5536.631 -4142.886 5539.83 -4135.466 5546.154 -4129.623 C 5552.437 -4123.797 5560.2 -4120.845 5569.226 -4120.845 C 5578.249 -4120.845 5586.041 -4123.797 5592.399 -4129.614 C 5598.798 -4135.466 5602.043 -4142.883 5602.043 -4151.665 C 5602.043 -4160.272 5598.885 -4167.752 5592.662 -4173.902 C 5586.445 -4180.04 5578.556 -4183.15 5569.223 -4183.15 Z  M 5434.712 -4102.426 L 5434.712 -3856.336 L 5489.731 -3856.336 L 5489.731 -4176.134 L 5413.583 -4176.134 L 5316.794 -3938.597 L 5222.866 -4176.134 L 5143.618 -4176.134 L 5143.618 -3856.338 L 5195.321 -3856.338 L 5195.321 -4102.45 L 5197.096 -4102.45 L 5296.281 -3856.336 L 5335.3 -3856.336 L 5432.937 -4102.426 L 5434.712 -4102.426 L 5434.712 -4102.426 Z " fill="rgb(255,255,255)"/><path d=" M 4703.612 -4029.388 L 4450 -4029.388 L 4450 -4283 L 4703.612 -4283 L 4703.612 -4029.388 Z " fill="rgb(241,81,27)"/><path d=" M 4983.627 -4029.388 L 4730.02 -4029.388 L 4730.02 -4283 L 4983.627 -4283 L 4983.627 -4029.388 Z " fill="rgb(128,204,40)"/><path d=" M 4703.604 -3749.274 L 4450 -3749.274 L 4450 -4002.883 L 4703.604 -4002.883 L 4703.604 -3749.274 Z " fill="rgb(0,173,239)"/><path d=" M 4983.627 -3749.274 L 4730.02 -3749.274 L 4730.02 -4002.883 L 4983.627 -4002.883 L 4983.627 -3749.274 Z " fill="rgb(251,188,9)"/></g></svg>