<?xml version="1.0" encoding="UTF-8" standalone="no"?>
<!DOCTYPE svg PUBLIC "-//W3C//DTD SVG 1.1//EN" "http://www.w3.org/Graphics/SVG/1.1/DTD/svg11.dtd">
<svg xmlns="http://www.w3.org/2000/svg" xmlns:xlink="http://www.w3.org/1999/xlink" version="1.1" width="420.945pt" height="420.945pt" viewBox="0 0 420.945 420.945">
<g enable-background="new">
<g id="Layer-1" data-name="Layer">
<clipPath id="cp0">
<path transform="matrix(1,0,0,-1,0,420.945)" d="M 0 420.945 L 420.945 420.945 L 420.945 0 L 0 0 Z "/>
</clipPath>
<g clip-path="url(#cp0)">
<path transform="matrix(1,0,0,-1,273.0479,245.3903)" d="M 0 0 L -.668 .719 L .224 .443 Z M -174.496 -31.767 L -168.789 -32.138 C -168.604 -32.48 -168.416 -32.823 -168.225 -33.165 L -172.896 -36.369 C -173.482 -34.872 -174.015 -33.342 -174.496 -31.767 M -176.404 -23.889 L -172.48 -23.889 C -172.051 -25.075 -171.579 -26.26 -171.066 -27.44 L -174.908 -30.362 C -175.495 -28.277 -175.994 -26.123 -176.404 -23.889 M 74.788 59.973 L 67.162 97.655 L 33.729 143.865 L -16.786 156.481 L -27.561 139.714 L -56.515 137.587 L -3.825 170.504 L -24.77 168.968 L -14.457 178.955 L -24.27 178.137 L -8.073 194.964 L -106.936 164.229 L -107.302 176.255 L -115.904 162.85 L -117.135 169.689 L -121.972 162.623 L -131.797 186.82 L -143.017 110.362 L -179.225 136.554 L -195.798 120.058 L -199.939 -18.855 L -192.405 1.193 C -192.767 -6.73 -192.553 -14.028 -191.724 -20.785 L -191.294 -23.889 C -189.268 -37.024 -184.826 -48.122 -177.81 -58.038 C -165.148 -75.937 -143.931 -90.657 -106.867 -107.262 L -94.316 -112.885 L -104.433 -52.532 L -48.442 -125.128 L -53.408 -99.475 L -48.495 -100.955 L -52.849 -84.831 L -36.55 -88.928 L -36.628 -88.804 L -24.476 -98.686 L 11.399 -90.046 L 62.311 -41.838 L 64.658 23.796 L 46.884 23.377 Z " fill="#231f20"/>
<path transform="matrix(1,0,0,-1,169.2954,249.20871)" d="M 0 0 L -18.045 39.598 C -42.187 58.81 -73.276 43.479 -80.23 17.725 C -86.928 -40.492 -67.746 -66.418 -.103 -96.721 L -16.111 -1.214 L -51.245 -12.705 L -40.809 -12.705 L -52.677 -21.737 L -41.422 -22.467 L -50.925 -28.984 L -31.663 -29.718 L -24.686 -53.636 C -68.407 -37.991 -78.306 17.509 -43.786 22 C -34.143 22.425 -30.338 18.048 0 0 " fill="#00a2e7" fill-rule="evenodd"/>
<path transform="matrix(1,0,0,-1,159.9531,274.7096)" d="M 0 0 L 58.262 85.055 L 96.414 54.371 L 89.962 55.28 L 100.985 41.305 L 88.273 45.254 L 96.346 36.547 L 56.569 50.759 C 54.664 51.449 52.002 49.869 53.523 47.322 L 79.525 4.905 L 31.767 6.933 C 28.311 7.053 28.653 3.984 29.341 2.756 L 57.264 -48.872 L 47.229 -46.851 L 52.015 -59.058 L 44.141 -52.398 L 52.025 -68.735 Z " fill="#00a2e7" fill-rule="evenodd"/>
<path transform="matrix(1,0,0,-1,233.8057,282.3923)" d="M 0 0 L 40.133 51.932 L 96.26 53.25 L 94.3 -1.56 L 47.004 -46.343 L 16.762 -53.626 L .016 -38.885 Z M 68.78 8.61 L 68.166 14.094 L 71.791 15.907 L 78.004 14.663 L 78.004 9.825 L 74.1 5.951 Z M 42.044 26.2 L 46.445 34.923 L 56.489 36.142 L 59.569 29.403 L 56.449 21.155 L 47.686 19.212 Z M 15.162 -15.896 L 18.31 -8.888 L 28.3 -4.598 L 34.246 -13.501 L 40.098 -14.959 L 49.145 -11.663 L 56.379 -25.549 L 40.258 -32.519 L 32.678 -32.519 L 29.406 -27.285 L 18.952 -27.288 Z " fill="#00a2e7" fill-rule="evenodd"/>
<path transform="matrix(1,0,0,-1,81.7915,220.197)" d="M 0 0 L 2.734 91.714 L 12.789 101.722 L 54.035 71.884 L 61.955 136.627 L 64.854 117.915 L 70.053 125.511 L 71.424 117.896 L 77.314 127.075 L 80.687 16.26 L 22.892 60.922 Z " fill="#ffc011" fill-rule="evenodd"/>
<path transform="matrix(1,0,0,-1,173.6338,215.10121)" d="M 0 0 L -3.986 127.338 L 70.85 150.772 L 54.416 140.481 L 64.526 140.481 L 49.124 129.421 L 66.444 130.691 L 16.356 99.4 C 16.356 98.674 16.354 98.532 16.356 97.962 L 71.804 102.035 L 17.012 61.245 L 17.645 49.553 L 60.738 57.258 L 45.011 47.545 L 57.642 50.292 L 49.102 44.343 L 60.972 46.04 Z " fill="#ffc011" fill-rule="evenodd"/>
<path transform="matrix(1,0,0,-1,259.6016,97.33612)" d="M 0 0 L 42.781 -10.685 L 73.706 -53.425 L 80.353 -86.269 L 50.439 -125.499 L 23.861 -115.975 L -6.995 -75.681 L -24.046 -37.42 Z M 2.354 -50.452 L 5.514 -48.073 L 10.23 -49.242 L 11.098 -52.67 L 6.698 -56.178 L 2.363 -54.003 Z M 24.041 -38.5 L 27.742 -32.272 L 32.597 -32.25 L 36.971 -38.57 L 33.892 -44.716 L 27.755 -44.704 Z M 23.196 -90.519 L 33.079 -97.748 L 45.104 -98.402 L 52.854 -93.239 L 58.663 -86.769 L 59.906 -77.813 L 58.938 -66.047 L 54.044 -81.218 L 49.334 -87.922 L 43.393 -92.514 L 28.795 -93.168 Z " fill="#ffc011" fill-rule="evenodd"/>
</g>
</g>
</g>
</svg>
