<?xml version="1.0" encoding="UTF-8" standalone="no"?><!-- Generator: Gravit.io --><svg xmlns="http://www.w3.org/2000/svg" xmlns:xlink="http://www.w3.org/1999/xlink" style="isolation:isolate" viewBox="635.769 -551.876 2426.474 597.752" width="2426.474pt" height="597.752pt"><g><path d=" M 953.139 45.875 C 762.886 45.823 635.769 -88.984 635.769 -252.455 C 635.769 -415.939 763.21 -552.303 952.867 -551.875 L 2745.146 -551.875 C 2934.803 -552.303 3062.244 -415.939 3062.244 -252.455 C 3062.244 -88.984 2935.101 45.823 2744.835 45.875 L 953.139 45.875 Z " fill-rule="evenodd" fill="rgb(204,33,49)"/><path d=" M 953.736 -478.324 C 803.118 -478.064 710.644 -377.38 710.644 -252.857 C 710.644 -128.348 802.522 -26.872 953.736 -27.43 L 2744.238 -27.43 C 2895.44 -26.872 2987.369 -128.348 2987.369 -252.857 C 2987.369 -377.38 2894.882 -478.051 2744.238 -478.324 L 953.736 -478.324 Z " fill-rule="evenodd" fill="rgb(255,255,255)"/><path d=" M 876.501 -394.202 L 964.125 -394.202 L 1085.457 -197.995 L 1085.392 -394.202 L 1172.354 -394.202 L 1172.354 -112.784 L 1085.509 -112.784 L 963.567 -309.003 L 963.567 -112.784 L 876.462 -112.784 L 876.501 -394.202 L 876.501 -394.202 Z  M 1645.323 -365.227 L 1730.015 -365.227 L 1730.015 -327.369 L 1775.838 -327.369 L 1775.838 -299.574 L 1730.015 -299.574 L 1730.067 -112.784 L 1645.323 -112.784 L 1645.362 -299.574 L 1599.371 -299.574 L 1599.371 -327.343 L 1645.388 -327.343 L 1645.323 -365.227 L 1645.323 -365.227 Z  M 1220.809 -299.912 L 1305.437 -299.912 L 1305.437 -112.784 L 1220.809 -112.784 L 1220.809 -299.912 Z  M 1220.628 -394.254 L 1305.437 -394.254 L 1305.437 -336.72 L 1220.628 -336.72 L 1220.628 -394.254 Z  M 2737.688 -207.852 C 2737.688 -207.852 2737.636 -179.604 2737.636 -168.23 C 2737.636 -138.412 2720.036 -126.078 2703.033 -126.078 C 2686.108 -126.078 2668.378 -138.412 2668.378 -168.23 C 2668.378 -179.604 2668.43 -208.553 2668.43 -208.553 C 2668.43 -208.553 2668.508 -236.217 2668.508 -247.592 C 2668.508 -277.292 2686.159 -289.51 2703.033 -289.51 C 2719.907 -289.51 2737.636 -277.292 2737.636 -247.592 C 2737.636 -236.217 2737.636 -215.271 2737.688 -207.723 L 2737.688 -207.852 Z  M 2703.695 -312.7 C 2635.422 -312.7 2580.08 -265.646 2580.08 -207.593 C 2580.08 -149.579 2635.435 -102.538 2703.695 -102.538 C 2772.045 -102.538 2827.387 -149.579 2827.387 -207.593 C 2827.387 -265.646 2772.045 -312.7 2703.695 -312.7 Z  M 2468.981 -394.202 L 2552.493 -394.202 L 2552.493 -112.836 L 2468.851 -112.836 L 2468.799 -123.601 C 2436.453 -103.29 2399.852 -103.342 2371.37 -116.584 C 2363.744 -120.151 2313.486 -144.274 2313.486 -209.344 C 2313.486 -258.785 2360.125 -312.7 2421.07 -307.356 C 2441.161 -305.566 2455.414 -298.252 2468.968 -290.664 L 2468.981 -394.202 Z  M 2469.59 -207.295 L 2469.59 -240.731 C 2469.59 -269.679 2449.63 -277.046 2436.453 -277.046 C 2422.951 -277.046 2403.237 -269.679 2403.237 -240.731 C 2403.237 -231.185 2403.289 -207.372 2403.289 -207.372 C 2403.289 -207.372 2403.237 -184.092 2403.237 -174.118 C 2403.237 -145.195 2422.951 -137.647 2436.453 -137.647 C 2449.63 -137.647 2469.59 -145.195 2469.59 -174.118 L 2469.59 -207.295 L 2469.59 -207.295 Z  M 1503.524 -308.562 C 1535.145 -309.431 1599.371 -288.719 1598.904 -214.609 C 1598.813 -201.484 1598.878 -112.823 1598.878 -112.823 L 1514.808 -112.823 L 1514.808 -235.711 C 1514.808 -252.04 1499.205 -270.185 1476.171 -270.185 C 1453.098 -270.185 1435.978 -252.04 1435.978 -235.711 L 1436.069 -112.823 L 1352.038 -112.823 L 1351.973 -299.938 L 1436.056 -300.002 C 1436.056 -300.002 1435.965 -284.932 1436.056 -280.34 C 1454.289 -297.756 1478.321 -307.809 1503.524 -308.562 Z  M 2191.272 -308.562 C 2222.841 -309.431 2287.054 -288.719 2286.652 -214.609 C 2286.522 -201.484 2286.574 -112.823 2286.574 -112.823 L 2202.504 -112.823 L 2202.504 -235.711 C 2202.504 -252.04 2186.927 -270.185 2163.867 -270.185 C 2140.807 -270.185 2123.635 -252.04 2123.635 -235.711 L 2123.764 -112.823 L 2039.759 -112.823 L 2039.811 -299.938 L 2123.764 -300.002 C 2123.764 -300.002 2123.635 -284.932 2123.764 -280.34 C 2142.005 -297.768 2166.055 -307.822 2191.272 -308.562 L 2191.272 -308.562 Z  M 1854.681 -234.7 C 1854.525 -251.068 1854.862 -262.014 1860.232 -271.43 C 1866.898 -282.947 1879.051 -288.433 1890.049 -288.485 L 1889.997 -288.485 C 1901.074 -288.433 1913.148 -282.947 1919.763 -271.43 C 1925.133 -262.027 1925.444 -251.068 1925.314 -234.7 L 1854.681 -234.7 Z  M 1924.951 -178.255 C 1924.951 -178.255 1925.029 -177.425 1925.029 -166.881 C 1925.029 -132.654 1902.513 -125.027 1890.049 -125.027 C 1877.533 -125.027 1854.616 -132.654 1854.616 -166.881 C 1854.616 -177.166 1854.746 -205.531 1854.746 -205.531 C 1854.746 -205.531 2014.105 -205.479 2014.105 -205.531 C 2014.105 -263.583 1958.102 -311.662 1889.271 -311.662 C 1820.479 -311.662 1764.671 -264.608 1764.671 -206.62 C 1764.671 -148.554 1820.479 -101.5 1889.271 -101.5 C 1946.364 -101.5 1994.573 -134.106 2009.345 -178.333 L 1924.951 -178.255 L 1924.951 -178.255 Z  M 2833.275 -327.239 L 2823.522 -327.239 L 2823.522 -391.323 L 2847.97 -391.323 C 2863.067 -391.323 2870.589 -385.733 2870.589 -373.113 C 2870.589 -361.661 2863.391 -356.667 2853.949 -355.461 L 2872.159 -327.239 L 2861.316 -327.239 L 2844.391 -355.033 L 2833.275 -355.033 L 2833.275 -327.239 L 2833.275 -327.239 Z  M 2844.87 -363.269 C 2853.106 -363.269 2860.395 -363.84 2860.395 -373.697 C 2860.395 -381.621 2853.197 -383.113 2846.492 -383.113 L 2833.262 -383.113 L 2833.262 -363.269 L 2844.87 -363.269 Z " fill-rule="evenodd" fill="rgb(204,33,49)"/><path d=" M 2788.556 -359.456 C 2788.556 -391.336 2814.443 -414.85 2845 -414.85 C 2875.297 -414.85 2901.107 -391.323 2901.107 -359.456 C 2901.107 -327.252 2875.297 -303.751 2845 -303.751 C 2814.443 -303.751 2788.556 -327.239 2788.556 -359.456 Z  M 2845 -313.011 C 2870.148 -313.011 2889.94 -332.699 2889.94 -359.456 C 2889.94 -385.733 2870.161 -405.602 2845 -405.602 C 2819.592 -405.602 2799.762 -385.733 2799.762 -359.456 C 2799.762 -332.686 2819.592 -313.011 2845 -313.011 L 2845 -313.011 Z " fill-rule="evenodd" fill="rgb(204,33,49)"/></g></svg>