<?xml version="1.0" encoding="UTF-8"?>
<svg viewBox="0 0 200 44" version="1.1" xmlns="http://www.w3.org/2000/svg" xmlns:xlink="http://www.w3.org/1999/xlink">
    <!-- Generator: Sketch 42 (36781) - http://www.bohemiancoding.com/sketch -->
    <title>sbgi-new-logo</title>
    <desc>Created with Sketch.</desc>
    <defs></defs>
    <g id="Page-1" stroke="none" stroke-width="1" fill="none" fill-rule="evenodd">
        <g id="sbgi-new-logo" fill-rule="nonzero" fill="#7DAED3">
            <g id="sbgi-new-logo-200" transform="translate(2.000000, 0.000000)">
                <g id="Group">
                    <g id="Shape1">
                        <path d="M0.1,17.2 L1.1,17.2 C1.7,19.9 2.6,21.8 3.9,23 C5.2,24.2 6.6,24.8 8.3,24.8 C9.9,24.8 11,24.4 11.7,23.5 C12.4,22.7 12.7,21.8 12.7,20.9 C12.7,19.8 12.3,18.9 11.6,18.3 C11.1,17.9 10.2,17.3 8.8,16.6 L6.5,15.4 C4.2,14.3 2.6,13.1 1.7,12 C0.8,10.9 0.3,9.5 0.3,7.9 C0.3,6.1 0.9,4.5 2.2,3 C3.5,1.5 5.3,0.7 7.9,0.7 C9.2,0.7 10.5,0.9 11.7,1.3 C12.9,1.7 13.6,1.9 13.8,1.9 C14.2,1.9 14.5,1.8 14.6,1.6 C14.7,1.4 14.9,1.1 15,0.7 L16.1,0.7 L16.1,8.5 L15.1,8.5 C14.6,6.7 13.8,5.1 12.6,3.8 C11.4,2.5 10,1.8 8.3,1.8 C7,1.8 6,2.1 5.3,2.8 C4.6,3.5 4.3,4.3 4.3,5.2 C4.3,6.3 4.6,7.2 5.3,7.7 C5.9,8.3 7.4,9.1 9.6,10.2 L12.2,11.5 C13.4,12.1 14.3,12.8 15,13.5 C16.3,14.9 17,16.5 17,18.4 C17,20.2 16.3,21.9 14.9,23.5 C13.5,25.1 11.2,25.9 8.1,25.9 C7.4,25.9 6.7,25.8 5.9,25.7 C5.2,25.6 4.4,25.4 3.7,25.1 L3.1,25 C2.9,25 2.8,24.9 2.6,24.9 L2.2,24.9 C1.8,24.9 1.6,25 1.4,25.2 C1.3,25.4 1.1,25.7 1,26.1 L-4.4408921e-16,26.1 L-4.4408921e-16,17.2 L0.1,17.2 Z"></path>
                        <path d="M22.9,24.6 C23.9,24.6 24.6,24.5 25.1,24.2 C25.8,23.8 26.2,23.1 26.2,22 L26.2,4.7 C26.2,3.6 25.9,2.9 25.2,2.6 C24.8,2.4 24,2.2 23,2.2 L23,1.3 L35.5,1.3 L35.5,2.2 C34.4,2.2 33.6,2.4 33.2,2.6 C32.5,3 32.1,3.7 32.1,4.7 L32.1,22.1 C32.1,23.1 32.4,23.8 32.9,24.1 C33.5,24.4 34.3,24.6 35.4,24.6 L35.4,25.5 L22.9,25.5 L22.9,24.6 Z"></path>
                        <path d="M40.5,24.6 C41.8,24.6 42.7,24.3 43.1,23.8 C43.5,23.3 43.7,22.6 43.7,21.7 L43.7,4.7 C42.6,3.5 41.9,2.8 41.7,2.5 C41.4,2.3 41.1,2.1 40.6,2.1 L40.6,1.3 L48.2,1.3 L60.5,16.3 L60.7,16.3 L60.7,5.7 C60.7,4.5 60.5,3.6 60,3.1 C59.6,2.6 58.7,2.3 57.4,2.2 L57.4,1.3 L65.1,1.3 L65.1,2.2 C64,2.4 63.2,2.6 62.8,3 C62.4,3.3 62.2,4 62.2,5.1 L62.2,26.3 L61.2,26.3 L45.5,7 L45.3,7 L45.3,21.1 C45.3,22.2 45.5,23 45.8,23.4 C46.3,24.1 47.3,24.5 48.7,24.6 L48.7,25.5 L40.6,25.5 L40.6,24.6 L40.5,24.6 Z"></path>
                        <path d="M87,1.7 C88.5,2.3 89.4,2.5 89.6,2.5 C90.1,2.5 90.4,2.3 90.7,2 C91,1.6 91.1,1.3 91.2,0.9 L92.2,0.9 L92.2,9.3 L91.3,9.3 C90.4,7.4 89.5,6 88.6,5 C86.9,3 85,2 82.9,2 C80.5,2 78.8,3 77.8,5.1 C76.8,7.2 76.3,10 76.3,13.5 C76.3,16.1 76.6,18.2 77.2,19.8 C78.3,22.9 80.4,24.5 83.4,24.5 C85.2,24.5 87,24 88.5,23 C89.4,22.4 90.5,21.5 91.7,20.1 L92.8,21 C91.4,22.6 90.2,23.7 89.1,24.4 C87.2,25.7 85.1,26.3 82.8,26.3 C79.3,26.3 76.3,25.2 73.9,23.1 C71.2,20.8 69.9,17.6 69.9,13.7 C69.9,9.8 71.2,6.6 73.7,4.2 C76,2 79,0.8 82.4,0.8 C83.9,0.8 85.4,1.1 87,1.7 Z"></path>
                        <path d="M98.3,24.6 C99.3,24.6 100,24.4 100.4,24.2 C101.1,23.8 101.5,23.1 101.5,22.1 L101.5,4.7 C101.5,3.7 101.2,3 100.5,2.6 C100.1,2.4 99.4,2.2 98.3,2.2 L98.3,1.3 L110.8,1.3 L110.8,2.2 C109.3,2.2 108.4,2.4 107.9,2.8 C107.4,3.2 107.2,4 107.2,5.5 L107.2,22.5 C107.2,23.3 107.4,23.8 107.8,24.1 C108.2,24.4 109,24.5 110.2,24.5 C112.4,24.5 114.2,24 115.6,23.1 C117.1,22.1 118.3,20.3 119.4,17.5 L120.5,17.5 L119,25.6 L98.2,25.6 L98.2,24.6 L98.3,24.6 Z"></path>
                        <path d="M124.1,24.6 C125,24.5 125.7,24.2 126.2,23.4 C126.5,22.9 127,21.9 127.7,20.4 L135.7,0.8 L136.7,0.8 L144.7,19.7 C145.6,21.8 146.3,23.2 146.7,23.8 C147.1,24.4 147.8,24.7 148.6,24.7 L148.6,25.6 L137,25.6 L137,24.7 C138.2,24.7 138.9,24.6 139.3,24.4 C139.7,24.2 139.9,23.9 139.9,23.2 C139.9,22.9 139.8,22.5 139.6,21.9 C139.5,21.6 139.3,21.2 139.1,20.7 L138.2,18.5 L130,18.5 C129.5,19.9 129.1,20.9 129,21.3 C128.7,22.2 128.5,22.9 128.5,23.3 C128.5,23.8 128.8,24.2 129.5,24.4 C129.9,24.5 130.5,24.6 131.3,24.6 L131.3,25.5 L124,25.5 L124,24.6 L124.1,24.6 Z M137.5,17.1 L134,8.8 L133.7,8.8 L130.5,17.1 L137.5,17.1 Z"></path>
                        <path d="M153.5,24.6 C154.5,24.6 155.2,24.5 155.7,24.2 C156.4,23.8 156.8,23.1 156.8,22 L156.8,4.7 C156.8,3.6 156.5,2.9 155.8,2.6 C155.4,2.4 154.6,2.2 153.6,2.2 L153.6,1.3 L166.1,1.3 L166.1,2.2 C165,2.2 164.2,2.4 163.8,2.6 C163.1,3 162.7,3.7 162.7,4.7 L162.7,22.1 C162.7,23.1 163,23.8 163.5,24.1 C164.1,24.4 164.9,24.6 166,24.6 L166,25.5 L153.5,25.5 L153.5,24.6 Z"></path>
                        <path d="M171.1,24.6 C172.3,24.5 173.1,24.3 173.6,23.9 C174,23.5 174.3,22.6 174.3,21.3 L174.3,5.5 C174.3,4.1 174,3.2 173.5,2.8 C173.1,2.5 172.4,2.3 171.1,2.2 L171.1,1.3 L182.6,1.3 C185,1.3 186.9,1.6 188.4,2.1 C191.3,3.1 192.7,4.9 192.7,7.6 C192.7,9.6 191.9,11.1 190.4,12.2 C189.2,13 188,13.6 186.7,13.8 L194.3,24 C194.5,24.3 194.7,24.5 194.9,24.6 C195.1,24.7 195.4,24.7 195.7,24.8 L195.7,25.7 L188.2,25.7 L179.8,14.5 L179.8,14.5 L179.8,21.5 C179.8,22.8 180,23.6 180.4,24 C180.8,24.4 181.7,24.7 182.9,24.7 L182.9,25.6 L170.8,25.6 L170.8,24.6 L171.1,24.6 Z M185.1,12.2 C186.1,11.6 186.6,10.1 186.6,7.9 C186.6,6.5 186.4,5.4 186,4.6 C185.3,3.2 184.1,2.5 182.4,2.5 C181.4,2.5 180.8,2.6 180.5,2.9 C180.2,3.1 180,3.5 180,4 L180,13.1 C182.4,13.1 184.1,12.8 185.1,12.2 Z"></path>
                    </g>
                    <g transform="translate(8.000000, 36.000000)" id="Shape2">
                        <path d="M0.2,0.6 L4.4,0.6 C5.1,0.6 5.9,0.6 6.3,1.3 C6.5,1.6 6.6,2 6.6,2.2 C6.6,2.4 6.6,2.7 6.3,3.1 C6,3.5 5.7,3.6 5.5,3.6 C6,3.7 7,4 7,5.3 C7,5.7 6.9,6.1 6.7,6.4 C6.2,7.2 5.3,7.2 4.7,7.2 L0.2,7.2 L0.2,0.6 Z M1.8,3.2 L4.1,3.2 C4.3,3.2 4.5,3.2 4.6,3.1 C5,2.9 5,2.5 5,2.4 C5,1.7 4.5,1.7 4.2,1.7 L1.7,1.7 L1.7,3.2 L1.8,3.2 Z M1.8,6 L4.3,6 C4.7,6 5.4,6 5.4,5.1 C5.4,4.3 4.8,4.3 4.5,4.3 L1.8,4.3 L1.8,6 Z"></path>
                        <path d="M12.8,0.6 L17.3,0.6 C18,0.6 18.7,0.7 19.3,1.3 C19.6,1.7 19.7,2.2 19.7,2.6 C19.7,3.1 19.5,3.7 19.1,4 C18.7,4.3 18.3,4.4 18,4.4 L20,7.1 L18.1,7.1 L16.4,4.5 L14.5,4.5 L14.5,7.1 L12.9,7.1 L12.9,0.6 L12.8,0.6 Z M14.5,3.4 L17.1,3.4 C17.5,3.4 18.1,3.4 18.1,2.6 C18.1,2.5 18.1,2.2 18,2.1 C17.9,1.9 17.7,1.8 17.1,1.8 L14.6,1.8 L14.6,3.4 L14.5,3.4 Z"></path>
                        <path d="M32.2,1.7 C32.5,2 32.9,2.7 32.9,3.8 C32.9,5.9 31.5,7.3 28.9,7.3 C26.3,7.3 24.9,5.9 24.9,3.8 C24.9,1.6 26.5,0.4 28.7,0.3 C30,0.4 31.4,0.7 32.2,1.7 Z M26.6,3.9 C26.6,4.7 26.9,5.1 27,5.3 C27.2,5.5 27.6,6.2 28.9,6.2 C30.4,6.2 31.2,5.2 31.2,3.9 C31.2,2.4 30.1,1.5 28.8,1.6 C27.8,1.6 26.6,2.3 26.6,3.9 Z"></path>
                        <path d="M40.6,0.6 L42.4,0.6 L45.6,7.1 L43.8,7.1 L43.2,5.9 L39.8,5.9 L39.2,7.1 L37.4,7.1 L40.6,0.6 Z M41.7,2.6 C41.7,2.5 41.6,2.4 41.6,2.3 C41.6,2.2 41.6,2.1 41.5,2 C41.5,2.1 41.5,2.2 41.4,2.2 C41.4,2.3 41.3,2.4 41.3,2.4 L40.3,4.6 L42.6,4.6 L41.7,2.6 Z"></path>
                        <path d="M50.6,0.6 L54.2,0.6 L54.9,0.6 C56.8,0.8 57.8,2.1 57.8,3.8 C57.8,4.5 57.6,5.3 57.2,5.9 C56.3,7.1 55.1,7.1 54.1,7.1 L50.7,7.1 L50.7,0.6 L50.6,0.6 Z M52.2,1.8 L52.2,6 L54,6 C54.6,6 55.2,6 55.7,5.4 C55.9,5.1 56.1,4.7 56.1,3.9 C56.1,3.3 56,2.9 55.8,2.6 C55.4,1.9 54.7,1.9 54.1,1.9 L52.2,1.9 L52.2,1.8 Z"></path>
                        <path d="M70.9,4.9 C70.8,5.3 70.6,5.8 70,6.3 C69.5,6.8 68.6,7.3 66.9,7.3 C64.6,7.3 63,6.1 63,3.8 C63,1.3 65,0.3 67,0.3 C67.7,0.3 69.9,0.5 70.7,2.3 L69,2.7 C68.8,2.4 68.3,1.6 67,1.6 C65.5,1.6 64.7,2.6 64.7,3.9 C64.7,5.3 65.8,6.2 67.1,6.2 C68.5,6.2 69,5.4 69.2,5 L70.9,4.9 Z"></path>
                        <path d="M78.2,0.6 L80,0.6 L83.2,7.1 L81.4,7.1 L80.8,5.9 L77.4,5.9 L76.8,7.1 L75,7.1 L78.2,0.6 Z M79.3,2.6 C79.3,2.5 79.2,2.4 79.2,2.3 C79.2,2.2 79.2,2.1 79.1,2 C79.1,2.1 79.1,2.2 79,2.2 C79,2.3 78.9,2.4 78.9,2.4 L77.9,4.6 L80.2,4.6 L79.3,2.6 Z"></path>
                        <path d="M89.2,5.1 C89.6,5.9 90.5,6.1 91.4,6.1 C91.8,6.1 93,6 93,5.2 C93,4.7 92.5,4.6 92.2,4.6 C91.9,4.5 90.6,4.3 90.3,4.3 C89.7,4.2 88.2,3.9 88.2,2.4 C88.2,2.1 88.3,1.7 88.5,1.5 C89,0.6 90.2,0.4 91.3,0.4 C92.3,0.4 93,0.5 93.7,0.9 C94.4,1.3 94.7,1.7 94.8,2 L93.2,2.4 C93.1,2.3 93,2.1 92.6,1.9 C92.2,1.7 91.6,1.7 91.3,1.7 C90.6,1.7 89.8,1.8 89.8,2.5 C89.8,2.9 90.2,3 90.7,3.1 C91,3.2 92.3,3.4 92.6,3.4 C93.4,3.5 94.6,3.8 94.6,5.3 C94.6,7.4 92.1,7.5 91.3,7.5 C90.2,7.5 88.6,7.3 87.7,5.7 L89.2,5.1 Z"></path>
                        <polygon points="99.2 0.6 105.7 0.6 105.7 1.8 103.3 1.8 103.3 7.1 101.7 7.1 101.7 1.8 99.3 1.8 99.3 0.6"></polygon>
                        <path d="M125,6.4 C124.3,7.1 123.3,7.3 122.3,7.3 C119.2,7.3 118.4,5.4 118.4,3.8 C118.4,2.9 118.7,2.1 119.3,1.5 C120.4,0.3 122.1,0.3 122.6,0.3 C123.2,0.3 124.3,0.4 125.2,0.9 C125.9,1.3 126.2,1.8 126.4,2.1 L124.6,2.3 C124.3,2 123.9,1.4 122.6,1.4 C121.2,1.4 120.2,2.2 120.2,3.7 C120.2,5 121.1,6 122.7,6 C123.5,6 124.1,5.8 124.5,5.4 C124.9,5.1 125,4.8 125,4.7 L122.9,4.7 L122.9,3.5 L126.4,3.5 L126.4,7 L125,7 L125,6.4 Z"></path>
                        <path d="M132.2,0.6 L136.7,0.6 C137.4,0.6 138.1,0.7 138.7,1.3 C139,1.7 139.1,2.2 139.1,2.6 C139.1,3.1 138.9,3.7 138.5,4 C138.1,4.3 137.7,4.4 137.4,4.4 L139.4,7.1 L137.5,7.1 L135.8,4.5 L133.9,4.5 L133.9,7.1 L132.3,7.1 L132.3,0.6 L132.2,0.6 Z M133.8,3.4 L136.4,3.4 C136.8,3.4 137.4,3.4 137.4,2.6 C137.4,2.5 137.4,2.2 137.3,2.1 C137.2,1.9 137,1.8 136.4,1.8 L133.9,1.8 L133.9,3.4 L133.8,3.4 Z"></path>
                        <path d="M151.6,1.7 C151.9,2 152.3,2.7 152.3,3.8 C152.3,5.9 150.9,7.3 148.3,7.3 C145.7,7.3 144.3,5.9 144.3,3.8 C144.3,1.6 145.9,0.4 148.1,0.3 C149.3,0.4 150.8,0.7 151.6,1.7 Z M146,3.9 C146,4.7 146.3,5.1 146.4,5.3 C146.6,5.5 147,6.2 148.3,6.2 C149.8,6.2 150.6,5.2 150.6,3.9 C150.6,2.4 149.5,1.5 148.2,1.6 C147.1,1.6 146,2.3 146,3.9 Z"></path>
                        <path d="M157.9,0.6 L159.5,0.6 L159.5,4.4 C159.5,5 159.6,5.5 160.2,5.8 C160.7,6 161.2,6 161.7,6 C162.3,5.9 162.7,5.8 163,5.5 C163.2,5.3 163.3,5.1 163.3,4.4 L163.3,0.5 L164.9,0.5 L164.9,4.3 C164.9,5 164.9,5.7 164.3,6.3 C163.6,7 162.4,7.3 161.4,7.3 C160.9,7.3 160.5,7.3 160,7.1 C159.7,7 159.3,6.9 158.9,6.6 C157.9,5.9 157.9,5 157.9,4.3 L157.9,0.6 Z"></path>
                        <path d="M171.1,0.6 L175.1,0.6 C175.8,0.6 176.7,0.6 177.2,1.4 C177.4,1.7 177.6,2.2 177.6,2.7 C177.6,3.3 177.4,3.8 177.2,4 C176.7,4.6 175.9,4.7 175,4.7 L172.7,4.7 L172.7,7.2 L171.1,7.2 L171.1,0.6 Z M172.7,3.5 L174.7,3.5 C175.2,3.5 175.9,3.5 175.9,2.6 C175.9,2.2 175.8,2 175.6,1.9 C175.4,1.7 175.1,1.7 174.5,1.7 L172.7,1.7 L172.7,3.5 L172.7,3.5 Z"></path>
                    </g>
                </g>
            </g>
        </g>
    </g>
</svg>