<?xml version="1.0" encoding="UTF-8" standalone="no"?>
<svg id="svg2" xmlns:rdf="http://www.w3.org/1999/02/22-rdf-syntax-ns#" xmlns="http://www.w3.org/2000/svg" viewBox="0 0 695.66 695.66" version="1.1" xmlns:cc="http://creativecommons.org/ns#" xmlns:dc="http://purl.org/dc/elements/1.1/">
 <metadata id="metadata7">
  <rdf:RDF>
   <cc:Work rdf:about="">
    <dc:format>image/svg+xml</dc:format>
    <dc:type rdf:resource="http://purl.org/dc/dcmitype/StillImage"/>
    <dc:title/>
   </cc:Work>
  </rdf:RDF>
 </metadata>
 <g id="layer1" transform="translate(61.502944,-89.8915)">
  <g id="g2945" fill-rule="nonzero" transform="translate(11.428571,-8.5714286)">
   <path id="path2883" fill="#231f20" d="m-61.503,447.73c0-186.56,151.27-337.83,337.83-337.83s337.83,151.27,337.83,337.83-151.27,337.83-337.83,337.83-337.83-151.26-337.83-337.83"/>
   <path id="path2885" fill="#f0b21a" d="m406.97,344.13c-5.9538-1.315-11.298-6.75-11.298-6.75l2.2512-6.75,6.7962-4.5s6.75,0.56125,8.9988,2.25c2.2512,1.6875,4.5012,9,4.5012,9l-5.0625,4.5s-1.125,3.3738-6.1875,2.25zm38.25-38.298,9.0462-13.501,11.252,0s9.5612,14.062,9.5612,16.315c0,2.25-7.3125,12.982-7.3125,12.982l-14.674-0.56125-7.8738-15.235zm0,112.59c7.6412,4.8762,15.75,4.7812,23.626,4.6875,13.172-0.14125,25.826-4.2662,34.919-14.812,7.3612-10.686,7.55-17.345,11.861-29.436,2.5312-7.08,5.625-11.11,5.625-11.11s2.5312,9.5625,2.25,20.858c-0.1875,7.5488-1.5462,15.516-6.1875,23.065-9,14.671-17.484,20.295-23.67,21.42-6.1888,1.1238-23.626,3.375-34.879-1.6862-8.81-3.985-13.545-12.985-13.545-12.985zm-49.548-193.64-54.046,78.796,38.296,83.342,67.546,85.596,51.798,17.999,65.344-78.842-9-67.548-67.592-94.595-92.345-24.749"/>
   <path id="path2887" fill="#f0b21a" d="m6.0903,470.23,6.75-180.14,22.502-27.046,87.843,65.345,22.501-133.45,4.5,38.859,11.295-20.298,2.25,18.049,15.751-20.298,2.625,236.86-126.47-97.22s-49.546,118.22-49.546,119.34"/>
   <path id="path2889" fill="#f0b21a" d="M201.98,199.99,354.42,157.19s-30.798,18.045-28.546,18.045c2.2488,0,20.249,2.25,20.249,2.25l-36.001,22.501,40.501-2.2488-108.09,63.044v4.5025l117.14-6.7512-117.14,83.345v24.749l88.22-10.875s-29.11,16.546-27.378,15.422c1.69-1.1712,21.376-0.79625,21.376-0.79625l-12.375,7.5462h21.375l-129.47,92.298-2.2975-270.24"/>
   <path id="path2891" fill="#2394d8" d="m190.73,540.07-37.219-81.47s-20.625-18.61-57.234-17.296c-8.0638,0.28125-74.673,0.79625-78.939,103.26-3.7974,91.641,57.282,134.95,57.282,134.95s29.579,21.844,51.469,35.11c21.89,13.311,62.391,32.625,62.391,32.625l-31.501-200.44-67.594,20.251,13.548,2.2512-22.546,18.048,20.249,2.2475-13.499,13.501,36.046,2.25,13.499,51.796s-27.468-8.625-50.579-31.592c-18.935-18.844-34.168-49.55-35.013-74.251-0.79688-24.701,10.78-55.875,45.046-56.296,34.314-0.42125,94.595,45.048,94.595,45.048"/>
   <path id="path2893" fill="#2394d8" d="m172.73,596.37,128.34-175.69,81.092,65.344s-10.126-2.58-11.249-2.2488c-1.125,0.28,17.999,26.999,17.999,26.999l-24.749-9.0012,13.499,17.999-83.342-29.248-6.75,6.7488,54.046,90.096-110.34-4.5,60.799,117.09-22.502-4.501,10.595,26.486-19.031-16.549,15.186,28.36-103.59-137.39"/>
   <path id="path2895" fill="#2394d8" d="m364.17,648.16,6.75-11.25,20.249-8.9988,15.798,20.249,13.5,0,18-6.75,13.5,29.25-33.75,15.796-15.796,0-6.7512-13.499-22.499,0-9-24.797zm117.09-60.795s8.2038-3.6575,9.0012-2.2512c0.795,1.3588,11.25,2.2512,11.25,2.2512v11.25l-9.0012,6.7488-11.25-6.7488v-11.25zm-47.295-11.252-9.0025-13.545,9.0025-18.001,22.546-2.25,6.7512,13.5-6.7512,18.048-22.546,2.2488zm-101.35,42.751-2.2488,81.094,36.048,29.296,63.468-13.359,105.42-92.484,6.75-114.89-121.59,0-87.845,110.34"/>
  </g>
 </g>
</svg>