<?xml version="1.0" encoding="UTF-8" standalone="no"?><!-- Generator: Gravit.io --><svg xmlns="http://www.w3.org/2000/svg" xmlns:xlink="http://www.w3.org/1999/xlink" style="isolation:isolate" viewBox="-364 1044.822 2421.411 423.178" width="2421.411pt" height="423.178pt"><g><path d=" M 1808.921 1213.919 L 1884.54 1133.178 C 1888.924 1127.25 1891.103 1123.1 1891.103 1119.546 C 1891.103 1113.618 1886.005 1111.244 1869.974 1111.244 L 1850.894 1111.244 L 1850.894 1060.27 L 2057.411 1060.27 L 2057.411 1111.244 L 2030.277 1111.244 C 1998.94 1111.244 1993.116 1115.979 1949.392 1171.104 L 1829.765 1300.29 L 1829.765 1379.126 C 1829.765 1399.295 1839.947 1406.39 1869.105 1406.39 L 1914.268 1406.39 L 1914.268 1455.574 L 1625.011 1455.574 L 1625.011 1406.39 L 1670.175 1406.39 C 1699.307 1406.39 1709.515 1399.295 1709.515 1379.126 L 1709.515 1300.29 L 1568.615 1144.423 C 1545.333 1117.172 1548.55 1111.244 1483.723 1111.244 L 1483.723 1060.27 L 1745.313 1060.27 L 1745.313 1111.244 L 1726.688 1111.244 C 1707.738 1111.244 1699.709 1114.798 1699.709 1121.906 C 1699.709 1127.847 1705.533 1132.581 1709.177 1137.315 L 1780.464 1215.009 C 1788.933 1223.816 1799.271 1224.957 1808.921 1213.919 L 1808.921 1213.919 Z  M 53.782 1060.257 L 116.884 1060.257 L 116.884 1202.492 L 58.607 1202.492 C 53.445 1174.061 35.649 1162.997 19.423 1148.081 C -9.851 1121.18 -73.252 1098.78 -126.574 1098.78 C -195.396 1098.78 -253.478 1120.129 -253.478 1151.518 C -253.478 1238.654 140.114 1169.314 140.114 1334.066 C 140.114 1419.996 55.806 1468 -95.6 1468 C -148.014 1468 -227.329 1451.735 -274.127 1426.883 C -288.797 1418.414 -295.022 1434.899 -297.772 1455.561 L -362.469 1455.561 L -362.469 1308.579 L -303.946 1308.579 C -291.041 1345.921 -273.258 1353.613 -256.902 1368.438 C -228.522 1394.522 -160.972 1413.498 -99.024 1412.888 C -5.623 1411.967 26.492 1391.551 26.492 1361.914 C 26.492 1332.289 -5.273 1325.168 -107.624 1309.175 L -194.527 1294.947 C -292.597 1280.121 -364 1258.201 -364 1179.975 C -364 1098.78 -273.673 1047.805 -130.854 1047.805 C -70.671 1047.805 -20.319 1055.847 28.01 1083.163 C 41.395 1091.866 53.951 1092.904 53.782 1060.257 Z  M 1285.26 1298.397 L 1286.505 1140.311 C 1286.505 1119.572 1275.714 1112.464 1244.883 1112.464 L 1208.656 1112.464 L 1208.656 1063.279 L 1439.143 1063.279 L 1439.143 1112.464 L 1409.103 1112.464 C 1378.246 1112.464 1367.455 1119.584 1367.455 1140.311 L 1367.455 1458.57 L 1277.244 1457.857 L 985.095 1181.208 L 985.095 1382.122 C 985.095 1402.278 995.887 1409.97 1026.718 1409.97 L 1066.823 1409.97 L 1066.823 1458.57 L 827.451 1458.57 L 827.451 1409.97 L 867.115 1409.97 C 897.946 1409.97 908.737 1402.265 908.737 1382.122 L 908.737 1140.311 C 908.737 1119.572 897.946 1112.464 867.115 1112.464 L 827.451 1112.464 L 827.451 1063.279 L 1034.409 1063.279 L 1285.26 1298.397 L 1285.26 1298.397 Z  M 513.213 1044.822 C 329.524 1044.822 214.539 1126.031 214.539 1256.398 C 214.539 1384.431 327.928 1465.017 507.609 1465.017 C 698.458 1465.017 809.474 1385.611 809.474 1249.887 C 809.487 1127.808 689.69 1044.822 513.213 1044.822 Z  M 509.036 1413.472 C 407.36 1413.472 348.915 1354.793 348.915 1253.441 C 348.915 1154.475 409.902 1095.796 514.121 1095.796 C 614.098 1095.796 672.543 1155.669 672.543 1257.604 C 672.543 1357.166 613.242 1413.472 509.036 1413.472 Z " fill-rule="evenodd" fill="rgb(0,0,0)"/></g></svg>