<?xml version="1.0" encoding="UTF-8" standalone="no"?>
<!-- Created with Inkscape (http://www.inkscape.org/) -->
<svg
   xmlns:dc="http://purl.org/dc/elements/1.1/"
   xmlns:cc="http://creativecommons.org/ns#"
   xmlns:rdf="http://www.w3.org/1999/02/22-rdf-syntax-ns#"
   xmlns:svg="http://www.w3.org/2000/svg"
   xmlns="http://www.w3.org/2000/svg"
   xmlns:sodipodi="http://sodipodi.sourceforge.net/DTD/sodipodi-0.dtd"
   xmlns:inkscape="http://www.inkscape.org/namespaces/inkscape"
   id="svg2869"
   sodipodi:version="0.32"
   inkscape:version="0.46"
   width="376.94"
   height="124.74"
   xml:space="preserve"
   sodipodi:docname="BAA Logo.svg"
   version="1.0"
   inkscape:output_extension="org.inkscape.output.svg.inkscape"><metadata
     id="metadata2874"><rdf:RDF><cc:Work
         rdf:about=""><dc:format>image/svg+xml</dc:format><dc:type
           rdf:resource="http://purl.org/dc/dcmitype/StillImage" /></cc:Work></rdf:RDF></metadata><defs
     id="defs2872"><inkscape:perspective
       sodipodi:type="inkscape:persp3d"
       inkscape:vp_x="0 : 526.18109 : 1"
       inkscape:vp_y="0 : 1000 : 0"
       inkscape:vp_z="744.09448 : 526.18109 : 1"
       inkscape:persp3d-origin="372.04724 : 350.78739 : 1"
       id="perspective2876" /><clipPath
       clipPathUnits="userSpaceOnUse"
       id="clipPath2884"><path
         d="M 0,0 L 419.528,0 L 419.528,595.276 L 0,595.276 L 0,0 z"
         id="path2886" /></clipPath><clipPath
       clipPathUnits="userSpaceOnUse"
       id="clipPath2992"><path
         d="M 58.684,120.354 L 136.727,120.354 L 136.727,192.05 L 58.684,192.05 L 58.684,120.354 z"
         id="path2994" /></clipPath><clipPath
       clipPathUnits="userSpaceOnUse"
       id="clipPath3000"><path
         d="M 58.684,120.354 L 144.722,120.354 L 144.722,192.05 L 58.684,192.05 L 58.684,120.354 z"
         id="path3002" /></clipPath><clipPath
       clipPathUnits="userSpaceOnUse"
       id="clipPath3012"><path
         d="M 290.957,121.344 L 339.996,121.344 L 339.996,186.66 L 290.957,186.66 L 290.957,121.344 z"
         id="path3014" /></clipPath><clipPath
       clipPathUnits="userSpaceOnUse"
       id="clipPath3020"><path
         d="M 287.84,121.344 L 340.078,121.344 L 340.078,186.66 L 287.84,186.66 L 287.84,121.344 z"
         id="path3022" /></clipPath><clipPath
       clipPathUnits="userSpaceOnUse"
       id="clipPath3140"><path
         d="M 18.854,313.933 L 82.824,313.933 L 82.824,450.453 L 18.854,450.453 L 18.854,313.933 z"
         id="path3142" /></clipPath><clipPath
       clipPathUnits="userSpaceOnUse"
       id="clipPath3148"><path
         d="M -36.935,412.087 L 6.069,310.324 L 113.332,355.653 L 70.328,457.415 L -36.935,412.087 z"
         id="path3150" /></clipPath><clipPath
       clipPathUnits="userSpaceOnUse"
       id="clipPath3170"><path
         d="M 133.314,334.912 L 240.548,334.912 L 240.548,465.165 L 133.314,465.165 L 133.314,334.912 z"
         id="path3172" /></clipPath><clipPath
       clipPathUnits="userSpaceOnUse"
       id="clipPath3178"><path
         d="M 110.94,332.435 L 264.04,332.435 L 264.04,485.535 L 110.94,485.535 L 110.94,332.435 z"
         id="path3180" /></clipPath><clipPath
       clipPathUnits="userSpaceOnUse"
       id="clipPath3252"><path
         d="M 178.906,118.77 L 240.623,118.77 L 240.623,201.542 L 178.906,201.542 L 178.906,118.77 z"
         id="path3254" /></clipPath><clipPath
       clipPathUnits="userSpaceOnUse"
       id="clipPath3260"><path
         d="M 181.933,117.761 L 240.462,117.761 L 240.462,200.533 L 181.933,200.533 L 181.933,117.761 z"
         id="path3262" /></clipPath><clipPath
       clipPathUnits="userSpaceOnUse"
       id="clipPath3312"><path
         d="M 302.472,335.943 L 388.755,335.943 L 388.755,447.578 L 302.472,447.578 L 302.472,335.943 z"
         id="path3314" /></clipPath><clipPath
       clipPathUnits="userSpaceOnUse"
       id="clipPath3320"><path
         d="M 260.609,331.765 L 434.949,331.765 L 434.949,455.016 L 260.609,455.016 L 260.609,331.765 z"
         id="path3322" /></clipPath><inkscape:perspective
       id="perspective3415"
       inkscape:persp3d-origin="372.04724 : 350.78739 : 1"
       inkscape:vp_z="744.09448 : 526.18109 : 1"
       inkscape:vp_y="0 : 1000 : 0"
       inkscape:vp_x="0 : 526.18109 : 1"
       sodipodi:type="inkscape:persp3d" /><inkscape:perspective
       id="perspective3428"
       inkscape:persp3d-origin="372.04724 : 350.78739 : 1"
       inkscape:vp_z="744.09448 : 526.18109 : 1"
       inkscape:vp_y="0 : 1000 : 0"
       inkscape:vp_x="0 : 526.18109 : 1"
       sodipodi:type="inkscape:persp3d" /></defs><sodipodi:namedview
     inkscape:window-height="974"
     inkscape:window-width="1280"
     inkscape:pageshadow="2"
     inkscape:pageopacity="0.0"
     guidetolerance="10.0"
     gridtolerance="10.0"
     objecttolerance="10.0"
     borderopacity="1.0"
     bordercolor="#666666"
     pagecolor="#ffffff"
     id="base"
     showgrid="false"
     inkscape:zoom="1"
     inkscape:cx="330.8477"
     inkscape:cy="298.91941"
     inkscape:window-x="-8"
     inkscape:window-y="-8"
     inkscape:current-layer="g2882" /><g
     id="g2878"
     inkscape:groupmode="layer"
     inkscape:label="BAA_security_leaflet"
     transform="matrix(1.25,0,0,-1.25,-128.67875,147.92517)"><g
       id="g2880"><g
         id="g2882"
         clip-path="url(#clipPath2884)"><path
           d="M 268.43808,21.745 L 268.43808,26.235871 C 272.32018,26.440455 273.95187,27.66297 273.95187,30.317573 C 273.95187,31.031123 273.6425,32.463211 273.33811,33.481142 L 270.68351,41.644547 L 248.22916,41.644547 L 245.46977,33.685726 C 244.9608,32.15384 244.55163,30.726741 244.55163,29.808608 C 244.55163,27.563172 246.08352,26.540252 250.06543,26.340658 L 250.06543,21.745 L 206.27445,21.745 L 206.27445,26.031287 C 210.46094,26.440455 211.78824,27.458385 211.78824,30.41737 C 211.78824,31.849459 211.27927,33.281548 210.8701,34.60386 L 208.42008,41.644547 L 185.55656,41.644547 L 182.90196,33.481142 C 182.39299,31.749662 182.08362,30.522157 182.08362,29.703821 C 182.08362,27.458385 183.82009,26.340658 187.69721,26.235871 L 187.69721,21.745 L 165.03827,21.745 L 165.03827,26.131084 C 169.21977,26.440455 171.16083,28.381509 172.79251,32.662806 L 194.22893,90.644936 L 205.66069,90.644936 L 227.50628,31.440291 L 228.01525,30.013192 C 228.83359,27.867554 229.85651,26.849623 231.18381,26.849623 C 232.7107,26.849623 233.83342,28.276722 234.95614,31.340494 L 256.59715,90.644936 L 267.82432,90.644936 L 288.85158,34.194691 C 290.07908,31.031123 290.99722,29.39944 292.42432,28.072138 C 293.54703,27.054207 294.97912,26.540252 297.22456,26.235871 L 297.22456,21.745 L 268.43808,21.745 z M 138.60202,21.745 L 106.143,21.745 L 106.143,26.340658 C 112.26555,26.340658 114.41119,28.381509 114.41119,34.299478 L 114.41119,76.149403 C 114.41119,83.394675 112.9791,85.435526 106.143,85.6451 L 106.143,90.031183 L 138.19285,90.031183 C 152.89296,90.031183 160.75199,84.312808 160.75199,73.594597 C 160.75199,65.535979 156.05653,60.426366 147.07479,58.490302 C 157.68822,57.163 163.71097,50.731075 163.71097,40.731403 C 163.71097,28.171935 155.1384,21.745 138.60202,21.745 M 259.45633,74.722304 L 250.67918,48.994605 L 268.13369,48.994605 L 259.45633,74.722304 z M 197.08812,75.026686 L 188.21117,48.994605 L 205.97007,48.994605 L 197.08812,75.026686 z M 132.37467,83.19508 C 131.15216,83.19508 129.61528,83.090293 128.59735,82.985506 L 128.59735,61.449287 C 129.3109,61.449287 130.02445,61.349489 131.35175,61.349489 C 140.94725,61.349489 146.56084,65.535979 146.56084,72.681453 C 146.56084,79.617353 141.6608,83.19508 132.37467,83.19508 M 145.6427,50.017526 C 143.09289,53.181095 139.31556,54.303812 131.66113,54.303812 C 130.33382,54.303812 129.21111,54.204015 128.59735,54.204015 L 128.59735,37.463047 C 128.59735,34.194691 129.00652,32.563008 129.92466,31.235707 C 131.04737,29.808608 133.49739,28.785687 136.04721,28.785687 C 143.19268,28.785687 148.19751,34.194691 148.19751,41.953918 C 148.19751,45.222274 147.37917,47.77209 145.6427,50.017526"
           style="fill:#000000;fill-opacity:1;fill-rule:nonzero;stroke:none"
           id="path3404" /><path
           d="M 395.69438,91.368465 L 380.39049,103.7982 L 401.293,115.14014 L 395.69438,91.368465 z M 315.37266,90.250737 L 381.09406,90.250737 L 315.37266,21.745 L 315.37266,90.250737 z M 347.3776,21.745 L 383.8784,90.250737 L 383.8784,21.745 L 347.3776,21.745 z"
           style="fill:#348943;fill-opacity:1;fill-rule:nonzero;stroke:none"
           id="path3406" /></g></g></g></svg>