<?xml version="1.0" encoding="UTF-8" standalone="no"?>
<svg
   xmlns:dc="http://purl.org/dc/elements/1.1/"
   xmlns:cc="http://creativecommons.org/ns#"
   xmlns:rdf="http://www.w3.org/1999/02/22-rdf-syntax-ns#"
   xmlns:svg="http://www.w3.org/2000/svg"
   xmlns="http://www.w3.org/2000/svg"
   xmlns:sodipodi="http://sodipodi.sourceforge.net/DTD/sodipodi-0.dtd"
   xmlns:inkscape="http://www.inkscape.org/namespaces/inkscape"
   width="644.96759"
   height="200"
   viewBox="0 0 644.96759 200"
   version="1.1"
   id="svg17"
   sodipodi:docname="logo.svg"
   inkscape:version="0.92.4 (5da689c313, 2019-01-14)">
  <metadata
     id="metadata21">
    <rdf:RDF>
      <cc:Work
         rdf:about="">
        <dc:format>image/svg+xml</dc:format>
        <dc:type
           rdf:resource="http://purl.org/dc/dcmitype/StillImage" />
        <dc:title>ZapIT Logo</dc:title>
      </cc:Work>
    </rdf:RDF>
  </metadata>
  <sodipodi:namedview
     pagecolor="#ffffff"
     bordercolor="#666666"
     borderopacity="1"
     objecttolerance="10"
     gridtolerance="10"
     guidetolerance="10"
     inkscape:pageopacity="0"
     inkscape:pageshadow="2"
     inkscape:window-width="1920"
     inkscape:window-height="986"
     id="namedview19"
     showgrid="false"
     inkscape:pagecheckerboard="true"
     fit-margin-top="0"
     fit-margin-left="0"
     fit-margin-right="0"
     fit-margin-bottom="0"
     inkscape:zoom="0.7"
     inkscape:cx="-250.74672"
     inkscape:cy="-31.586454"
     inkscape:window-x="2869"
     inkscape:window-y="-11"
     inkscape:window-maximized="1"
     inkscape:current-layer="Group-9"
     viewbox-height="22.9" />
  <!-- Generator: Sketch 42 (36781) - http://www.bohemiancoding.com/sketch -->
  <title
     id="title2">ZapIT Logo</title>
  <desc
     id="desc4">Created with Sketch.</desc>
  <defs
     id="defs6" />
  <g
     id="Webapp-UI"
     style="fill:none;fill-rule:evenodd;stroke:none;stroke-width:1"
     transform="translate(-65.714844,164.23437)">
    <g
       id="Dashboard"
       transform="translate(-33,-23)">
      <g
         id="Background">
        <g
           id="Group-9">
          <g
             id="Group-7"
             transform="matrix(8.7342206,0,0,8.7342206,-475.2531,-253.61923)">
            <path
               d="M 79.0625,30 H 65.714844 V 27.140625 L 73.132812,16.605469 H 65.890625 V 12.867188 H 78.875 v 2.847656 L 71.457031,26.261719 H 79.0625 Z m 10.839844,0 -0.878907,-1.757813 h -0.09375 c -0.61719,0.765629 -1.24609,1.289062 -1.886718,1.570313 -0.640629,0.281251 -1.468745,0.421875 -2.484375,0.421875 -1.250006,0 -2.234372,-0.374996 -2.953125,-1.125 -0.718754,-0.750004 -1.078125,-1.804681 -1.078125,-3.164063 0,-1.414069 0.492182,-2.466793 1.476562,-3.158203 0.98438,-0.691409 2.410147,-1.080077 4.277344,-1.166015 l 2.214844,-0.07031 v -0.1875 c 0,-1.093755 -0.539057,-1.640625 -1.617188,-1.640625 -0.968755,0 -2.199211,0.328122 -3.691406,0.984375 l -1.324219,-3.023437 c 1.546883,-0.796879 3.499988,-1.195313 5.859375,-1.195313 1.703134,0 3.02148,0.421871 3.955078,1.265625 0.933599,0.843754 1.400391,2.02343 1.400391,3.539063 V 30 Z m -3.398438,-3 c 0.55469,0 1.029295,-0.17578 1.423828,-0.527344 0.394534,-0.351564 0.591797,-0.808591 0.591797,-1.371094 v -1.03125 l -1.054687,0.04687 c -1.50782,0.05469 -2.261719,0.60937 -2.261719,1.664063 0,0.812504 0.433589,1.21875 1.300781,1.21875 z m 17.660154,3.234375 c -0.67188,0 -1.27343,-0.111327 -1.80468,-0.333984 -0.53126,-0.222658 -1.0586,-0.623044 -1.58204,-1.201172 h -0.21093 c 0.14062,0.929692 0.21093,1.507811 0.21093,1.734375 v 5.332031 H 96.195312 V 16.722656 h 3.726563 l 0.644535,1.6875 h 0.21093 c 0.85157,-1.281256 2.02734,-1.921875 3.52735,-1.921875 1.46875,0 2.62109,0.609369 3.45703,1.828125 0.83594,1.218756 1.25391,2.890615 1.25391,5.015625 0,2.140636 -0.43555,3.826166 -1.30665,5.056641 -0.87109,1.230475 -2.05272,1.845703 -3.54492,1.845703 z m -1.53515,-10.148438 c -0.67188,0 -1.14258,0.240232 -1.41211,0.720704 -0.26954,0.480471 -0.41602,1.193354 -0.43946,2.138671 v 0.363282 c 0,1.14063 0.15235,1.964841 0.45704,2.472656 0.30468,0.507815 0.78515,0.761719 1.4414,0.761719 0.58594,0 1.01172,-0.251951 1.27735,-0.75586 0.26562,-0.503908 0.39843,-1.337884 0.39843,-2.501953 0,-1.140631 -0.13281,-1.958982 -0.39843,-2.455078 -0.26563,-0.496096 -0.70703,-0.744141 -1.32422,-0.744141 z"
               id="Zap"
               inkscape:connector-curvature="0"
               style="fill:#083854;fill-opacity:1" />
            <path
               d="M 112.85156,30 V 12.867188 h 4.65235 V 30 Z m 15.91406,0 h -4.6289 V 16.652344 h -4.18359 v -3.785156 h 12.98437 v 3.785156 h -4.17188 z m 10.19532,-6.046875 h -3.86719 l -0.59766,-11.085937 h 5.0625 z m -4.41797,4.101562 c 0,-0.710941 0.21093,-1.263669 0.63281,-1.658203 0.42188,-0.394533 1.03515,-0.591797 1.83984,-0.591797 0.79688,0 1.40039,0.197264 1.81055,0.591797 0.41016,0.394534 0.61524,0.947262 0.61524,1.658203 0,0.703129 -0.21289,1.251952 -0.63868,1.646485 -0.42578,0.394533 -1.02148,0.591797 -1.78711,0.591797 -0.77344,0 -1.3789,-0.197264 -1.8164,-0.591797 -0.4375,-0.394533 -0.65625,-0.943356 -0.65625,-1.646485 z"
               id="IT!"
               inkscape:connector-curvature="0"
               style="fill:#d94e22" />
            <g
               id="Page-1"
               style="fill:#fefefe" />
          </g>
        </g>
      </g>
    </g>
  </g>
</svg>
