<?xml version="1.0" encoding="UTF-8" standalone="no"?>
<svg
   xmlns:dc="http://purl.org/dc/elements/1.1/"
   xmlns:cc="http://creativecommons.org/ns#"
   xmlns:rdf="http://www.w3.org/1999/02/22-rdf-syntax-ns#"
   xmlns:svg="http://www.w3.org/2000/svg"
   xmlns="http://www.w3.org/2000/svg"
   id="svg4260"
   version="1.1"
   viewBox="0 0 95.312492 21.013622"
   height="21.013622mm"
   width="95.312492mm">
  <defs
     id="defs4254">
    <linearGradient
       id="linearGradient44"
       spreadMethod="pad"
       gradientTransform="matrix(0,-52.183617,52.183617,0,84.855185,158.55154)"
       gradientUnits="userSpaceOnUse"
       y2="0"
       x2="1"
       y1="0"
       x1="0">
      <stop
         id="stop40"
         offset="0"
         style="stop-opacity:1;stop-color:#ffffff" />
      <stop
         id="stop42"
         offset="1"
         style="stop-opacity:1;stop-color:#b2b4b5" />
    </linearGradient>
  </defs>
  <metadata
     id="metadata4257">
    <rdf:RDF>
      <cc:Work
         rdf:about="">
        <dc:format>image/svg+xml</dc:format>
        <dc:type
           rdf:resource="http://purl.org/dc/dcmitype/StillImage" />
        <dc:title></dc:title>
      </cc:Work>
    </rdf:RDF>
  </metadata>
  <g
     transform="translate(-51.205496,-92.293438)"
     id="layer1">
    <path
       id="path68"
       style="fill:#f37421;fill-opacity:1;fill-rule:nonzero;stroke:none;stroke-width:0.35277775"
       d="m 82.169958,111.86167 c -0.0198,0.004 0.0589,-0.0296 -0.01,-0.0183 -0.3302,0.0519 -0.61313,0.0536 -0.97472,0.0536 -3.23533,0 -5.85788,-2.6222 -5.85788,-5.85788 h 10.70787 c 0.39793,-2.57351 -0.393,-5.29449 -2.37561,-7.276037 -3.30094,-3.302 -8.65364,-3.302 -11.95564,0 -3.30129,3.301647 -3.30129,8.654697 0,11.956347 2.90054,2.89983 7.18079,3.33763 10.46551,1.14229 -0.0229,0.005 0.0226,-0.004 0,0 m -3.82306,-12.918729 c 1.63372,0 2.9591,1.324679 2.9591,2.959449 h -5.91749 c 0,-1.63477 1.32468,-2.959449 2.95839,-2.959449" />
    <path
       id="path70"
       style="fill:none;stroke:#f37421;stroke-width:0.11853333;stroke-linecap:butt;stroke-linejoin:miter;stroke-miterlimit:10;stroke-dasharray:none;stroke-opacity:1"
       d="m 82.169958,111.86167 c -0.0198,0.004 0.0589,-0.0296 -0.01,-0.0183 -0.3302,0.0519 -0.61313,0.0536 -0.97472,0.0536 -3.23533,0 -5.85788,-2.6222 -5.85788,-5.85788 h 10.70787 c 0.39793,-2.57351 -0.393,-5.29449 -2.37561,-7.276037 -3.30094,-3.302 -8.65364,-3.302 -11.95564,0 -3.30129,3.301647 -3.30129,8.654697 0,11.956347 2.90054,2.89983 7.18079,3.33763 10.46551,1.14229 -0.0229,0.005 0.0226,-0.004 0,0 z m -3.82306,-12.918724 c 1.63372,0 2.9591,1.324684 2.9591,2.959454 h -5.91749 c 0,-1.63477 1.32468,-2.959454 2.95839,-2.959454 z" />
    <path
       id="path72"
       style="fill:#f37421;fill-opacity:1;fill-rule:nonzero;stroke:none;stroke-width:0.35277775"
       d="m 101.36812,111.86167 c -0.0194,0.004 0.0593,-0.0296 -0.009,-0.0183 -0.3302,0.0519 -0.61383,0.0536 -0.97578,0.0536 -3.234972,0 -5.857522,-2.6222 -5.857522,-5.85788 h 10.708212 c 0.39794,-2.57351 -0.39299,-5.29449 -2.3756,-7.276037 -3.301302,-3.302 -8.653992,-3.302 -11.954932,0 -3.30165,3.301647 -3.30165,8.654697 0,11.956347 2.89948,2.89983 7.17973,3.33763 10.464442,1.14229 -0.0222,0.005 0.0226,-0.004 0,0 M 97.545238,98.942949 c 1.63336,0 2.959102,1.324681 2.959102,2.959451 h -5.917842 c 0,-1.63477 1.32503,-2.959451 2.95874,-2.959451" />
    <path
       id="path74"
       style="fill:none;stroke:#f37421;stroke-width:0.11853333;stroke-linecap:butt;stroke-linejoin:miter;stroke-miterlimit:10;stroke-dasharray:none;stroke-opacity:1"
       d="m 101.36812,111.86167 c -0.0194,0.004 0.0593,-0.0296 -0.009,-0.0183 -0.3302,0.0519 -0.61383,0.0536 -0.97578,0.0536 -3.234972,0 -5.857522,-2.6222 -5.857522,-5.85788 h 10.708212 c 0.39794,-2.57351 -0.39299,-5.29449 -2.3756,-7.276037 -3.301302,-3.302 -8.653992,-3.302 -11.954932,0 -3.30165,3.301647 -3.30165,8.654697 0,11.956347 2.89948,2.89983 7.17973,3.33763 10.464442,1.14229 -0.0222,0.005 0.0226,-0.004 0,0 z M 97.545418,98.942946 c 1.63336,0 2.959102,1.324684 2.959102,2.959454 h -5.917852 c 0,-1.63477 1.32504,-2.959454 2.95875,-2.959454 z" />
    <path
       id="path76"
       style="fill:#f37421;fill-opacity:1;fill-rule:nonzero;stroke:none;stroke-width:0.35277775"
       d="m 66.271668,107.55319 c -2.40629,2.16147 -5.84552,2.42817 -8.13293,0.14076 l 7.9128,-7.913156 c -1.53811,-2.100792 -4.02096,-3.466042 -6.82449,-3.465689 -2.37349,-3.44e-4 -4.51731,0.979311 -6.05296,2.554111 0.0741,0.0088 2.28777,-0.915811 5.26345,1.607964 l -7.16351,7.1635 c 1.17546,3.25508 4.2919,5.58271 7.95302,5.58271 4.24639,0 7.47572,-2.48109 8.07756,-6.55955 -0.0716,0.009 -0.51647,0.42545 -1.03294,0.88935" />
    <path
       id="path78"
       style="fill:none;stroke:#f37421;stroke-width:0.11853333;stroke-linecap:butt;stroke-linejoin:miter;stroke-miterlimit:10;stroke-dasharray:none;stroke-opacity:1"
       d="m 66.271668,107.55319 c -2.40629,2.16147 -5.84552,2.42817 -8.13293,0.14076 l 7.9128,-7.913156 c -1.53811,-2.100792 -4.02096,-3.466042 -6.82449,-3.465689 -2.37349,-3.44e-4 -4.51731,0.979311 -6.05296,2.554111 0.0741,0.0088 2.28777,-0.915811 5.26345,1.607964 l -7.16351,7.1635 c 1.17546,3.25508 4.2919,5.58271 7.95302,5.58271 4.24639,0 7.47572,-2.48109 8.07756,-6.55955 -0.0716,0.009 -0.51647,0.42545 -1.03294,0.88935 z" />
    <path
       id="path80"
       style="fill:#f37421;fill-opacity:1;fill-rule:nonzero;stroke:none;stroke-width:0.35277775"
       d="m 141.43486,98.789135 c -3.302,-3.302 -8.65435,-3.302 -11.95635,0 -3.30129,3.301645 -3.30129,8.654345 0,11.956345 3.302,3.30129 8.65435,3.30129 11.95635,0 3.30129,-3.302 3.30129,-8.6547 0,-11.956345 m -3.67948,9.786405 c -2.5019,0 -4.5286,-2.02812 -4.5286,-4.52931 0,-2.50084 2.0267,-4.528609 4.5286,-4.528609 2.50155,0 4.52861,2.027769 4.52861,4.528609 0,2.50119 -2.02706,4.52931 -4.52861,4.52931" />
    <path
       id="path82"
       style="fill:none;stroke:#f37421;stroke-width:0.11853333;stroke-linecap:butt;stroke-linejoin:miter;stroke-miterlimit:10;stroke-dasharray:none;stroke-opacity:1"
       d="m 141.43486,98.789135 c -3.302,-3.302 -8.65435,-3.302 -11.95635,0 -3.30129,3.301645 -3.30129,8.654345 0,11.956345 3.302,3.30129 8.65435,3.30129 11.95635,0 3.30129,-3.302 3.30129,-8.6547 0,-11.956345 z m -3.67948,9.786405 c -2.5019,0 -4.5286,-2.02812 -4.5286,-4.52931 0,-2.50084 2.0267,-4.528609 4.5286,-4.528609 2.50155,0 4.52861,2.027769 4.52861,4.528609 0,2.50119 -2.02706,4.52931 -4.52861,4.52931 z" />
    <path
       id="path84"
       style="fill:#f37421;fill-opacity:1;fill-rule:nonzero;stroke:none;stroke-width:0.35277775"
       d="m 122.27091,98.815241 c -1.8348,-1.83515 -4.30283,-2.648656 -6.70066,-2.444045 1.47002,-2.072216 3.81706,-3.375731 6.73876,-3.729567 0.0776,-0.0095 0.13794,-0.02469 0.133,-0.03951 -0.81351,-0.17145 -1.55469,-0.249414 -2.419,-0.249414 -6.73488,0 -12.19376,5.459237 -12.19376,12.194465 l 0.0152,-0.006 c -0.0667,2.24755 0.75565,4.51556 2.47015,6.23077 3.302,3.30164 8.6547,3.30164 11.95634,0 3.3013,-3.30165 3.3013,-8.6547 0,-11.956348 m -3.74756,9.577918 c -2.5019,0 -4.5286,-2.02812 -4.5286,-4.52967 0,-2.50119 2.0267,-4.528959 4.5286,-4.528959 2.5012,0 4.52861,2.027769 4.52861,4.528959 0,2.50155 -2.02741,4.52967 -4.52861,4.52967" />
    <path
       id="path86"
       style="fill:none;stroke:#f37421;stroke-width:0.11853333;stroke-linecap:butt;stroke-linejoin:miter;stroke-miterlimit:10;stroke-dasharray:none;stroke-opacity:1"
       d="m 122.27091,98.815241 c -1.8348,-1.83515 -4.30283,-2.648656 -6.70066,-2.444045 1.47002,-2.072216 3.81706,-3.375731 6.73876,-3.729567 0.0776,-0.0095 0.13794,-0.02469 0.133,-0.03951 -0.81351,-0.17145 -1.55469,-0.249414 -2.419,-0.249414 -6.73488,0 -12.19376,5.459237 -12.19376,12.194465 l 0.0152,-0.006 c -0.0667,2.24755 0.75565,4.51556 2.47015,6.23077 3.302,3.30164 8.6547,3.30164 11.95634,0 3.3013,-3.30165 3.3013,-8.6547 0,-11.956348 z m -3.74756,9.577919 c -2.5019,0 -4.52861,-2.02812 -4.52861,-4.52967 0,-2.50119 2.02671,-4.52896 4.52861,-4.52896 2.5012,0 4.52861,2.02777 4.52861,4.52896 0,2.50155 -2.02741,4.52967 -4.52861,4.52967 z" />
    <path
       id="path88"
       style="fill:#f37421;fill-opacity:1;fill-rule:nonzero;stroke:none;stroke-width:0.35277775"
       d="m 140.42238,105.16383 c -0.7814,0.70203 -1.89829,0.78881 -2.64124,0.0459 l 2.57034,-2.56999 c -0.50024,-0.68262 -1.30669,-1.12606 -2.21686,-1.12571 -0.77082,0 -1.46755,0.31785 -1.96568,0.82938 0.024,0.004 0.74295,-0.29774 1.70956,0.52211 l -2.32692,2.32692 c 0.38135,1.05728 1.39453,1.81293 2.58269,1.81293 1.37971,0 2.42817,-0.80539 2.62396,-2.13043 -0.0233,0.004 -0.16757,0.13829 -0.33585,0.28893" />
    <path
       id="path90"
       style="fill:none;stroke:#f37421;stroke-width:0.11853333;stroke-linecap:butt;stroke-linejoin:miter;stroke-miterlimit:10;stroke-dasharray:none;stroke-opacity:1"
       d="m 140.42238,105.16383 c -0.7814,0.70203 -1.89829,0.78881 -2.64124,0.0459 l 2.57034,-2.56999 c -0.50024,-0.68262 -1.30669,-1.12606 -2.21686,-1.12571 -0.77082,0 -1.46755,0.31785 -1.96568,0.82938 0.024,0.004 0.74295,-0.29774 1.70956,0.52211 l -2.32692,2.32692 c 0.38135,1.05728 1.39453,1.81293 2.58269,1.81293 1.37971,0 2.42817,-0.80539 2.62396,-2.13043 -0.0233,0.004 -0.16757,0.13829 -0.33585,0.28893 z" />
    <path
       id="path92"
       style="fill:#f37421;fill-opacity:1;fill-rule:nonzero;stroke:none;stroke-width:0.35277775"
       d="m 144.90372,99.206119 h 0.35736 v -0.785284 l 0.39759,0.463197 h 0.0451 l 0.39264,-0.463197 v 0.785284 h 0.36231 V 97.68106 h -0.0455 l -0.73449,0.775053 -0.72989,-0.775053 h -0.0452 z m -1.0922,0 h 0.3676 v -1.202973 h 0.42756 v -0.301977 h -1.22273 v 0.301977 h 0.42757 z" />
    <path
       id="path94"
       style="fill:none;stroke:#f37421;stroke-width:0.11853333;stroke-linecap:butt;stroke-linejoin:miter;stroke-miterlimit:4;stroke-dasharray:none;stroke-opacity:1"
       d="m 144.90372,99.206119 h 0.35736 v -0.785284 l 0.39759,0.463197 h 0.0451 l 0.39264,-0.463197 v 0.785284 h 0.36231 V 97.68106 h -0.0455 l -0.73449,0.775053 -0.72989,-0.775053 h -0.0452 z m -1.0922,0 h 0.3676 v -1.202973 h 0.42756 v -0.301977 h -1.22273 v 0.301977 h 0.42757 z" />
  </g>
</svg>
